<svg width="20" height="92" viewBox="0 0 20 92" fill="none" xmlns="http://www.w3.org/2000/svg"><path d="M8.667 1.343v86.44l-5.813-4.876a1.329 1.329 0 0 0-1.88.175 1.352 1.352 0 0 0 .173 1.894l8 6.715c.064.045.13.086.2.121.067 0 .107 0 .174.094.153.06.315.093.48.094.164-.001.327-.033.48-.094.066 0 .106 0 .173-.094a1.68 1.68 0 0 0 .2-.12l8-6.716a1.341 1.341 0 0 0 .48-1.034 1.35 1.35 0 0 0-.711-1.19 1.328 1.328 0 0 0-1.476.155l-5.813 4.876V1.343c0-.356-.14-.698-.39-.95a1.329 1.329 0 0 0-1.886 0 1.35 1.35 0 0 0-.39.95Z" fill="#fff" fill-opacity=".3"/></svg>