<svg width="96" height="76" viewBox="0 0 96 76" fill="none" xmlns="http://www.w3.org/2000/svg"><path d="m16.984 20.663 13.013 13.252c1.492 1.52.466 4.085-1.633 4.085h-8.348c0 15.722 12.546 28.5 27.984 28.5 3.685 0 7.276-.713 10.494-2.09 1.68-.712 3.591-.19 4.85 1.093 2.38 2.422 1.54 6.507-1.585 7.79C57.515 75.05 52.85 76 48 76c-20.615 0-37.312-17.005-37.312-38H2.339C.24 38-.786 35.435.707 33.962L13.719 20.71a2.266 2.266 0 0 1 3.265-.047Zm59 17.337C75.984 22.277 63.438 9.5 48 9.5c-3.685 0-7.276.713-10.494 2.09-1.68.713-3.591.19-4.85-1.092-2.38-2.423-1.54-6.508 1.585-7.79C38.485.95 43.15 0 48 0c20.615 0 37.312 17.005 37.312 38h8.349c2.099 0 3.125 2.565 1.632 4.038L82.281 55.29c-.933.95-2.38.95-3.312 0L65.957 42.038C64.51 40.565 65.537 38 67.636 38h8.348Z" fill="#fff"/></svg>