<?xml version="1.0" encoding="iso-8859-1"?>
<!-- Generator: Adobe Illustrator 19.0.0, SVG Export Plug-In . SVG Version: 6.00 Build 0)  -->
<svg fill="white" version="1.1" id="Layer_1" xmlns="http://www.w3.org/2000/svg" xmlns:xlink="http://www.w3.org/1999/xlink" x="0px" y="0px"
	 viewBox="0 0 512 512" style="enable-background:new 0 0 512 512;" xml:space="preserve">
<g>
	<g>
		<rect   x="89.044" y="278.261" width="33.391" height="66.783"/>
	</g>
</g>
<g>
	<g>
		<polygon points="89.044,166.957 89.044,100.174 55.652,100.174 55.652,278.261 89.044,278.261 89.044,200.348 155.826,200.348 
			155.826,166.957 		"/>
	</g>
</g>
<g>
	<g>
		<polygon points="422.957,100.174 422.957,200.348 322.783,200.348 322.783,233.739 422.957,233.739 422.957,278.261 
			456.348,278.261 456.348,100.174 		"/>
	</g>
</g>
<g>
	<g>
		<rect x="122.435" y="345.043" width="33.391" height="33.391"/>
	</g>
</g>
<g>
	<g>
		<rect x="356.174" y="345.043" width="33.391" height="33.391"/>
	</g>
</g>
<g>
	<g>
		<polygon points="322.783,378.435 322.783,411.826 289.391,411.826 289.391,445.217 356.174,445.217 356.174,378.435 		"/>
	</g>
</g>
<g>
	<g>
		<rect x="122.435" y="445.217" width="33.391" height="33.391"/>
	</g>
</g>
<g>
	<g>
		<rect x="356.174" y="445.217" width="33.391" height="33.391"/>
	</g>
</g>
<g>
	<g>
		<polygon points="189.217,411.826 189.217,378.435 155.826,378.435 155.826,445.217 222.609,445.217 222.609,411.826 		"/>
	</g>
</g>
<g>
	<g>
		<rect x="89.044" y="478.609" width="33.391" height="33.391"/>
	</g>
</g>
<g>
	<g>
		<rect x="389.565" y="478.609" width="33.391" height="33.391"/>
	</g>
</g>
<g>
	<g>
		<rect x="155.826" width="200.348" height="33.391"/>
	</g>
</g>
<g>
	<g>
		<rect x="122.435" y="33.391" width="33.391" height="33.391"/>
	</g>
</g>
<g>
	<g>
		<rect x="89.044" y="66.783" width="33.391" height="33.391"/>
	</g>
</g>
<g>
	<g>
		<rect x="356.174" y="33.391" width="33.391" height="33.391"/>
	</g>
</g>
<g>
	<g>
		<rect x="189.217" y="100.174" width="33.391" height="33.391"/>
	</g>
</g>
<g>
	<g>
		<rect x="222.609" y="133.565" width="33.391" height="33.391"/>
	</g>
</g>
<g>
	<g>
		<rect x="155.826" y="133.565" width="33.391" height="33.391"/>
	</g>
</g>
<g>
	<g>
		<rect x="256" y="166.957" width="66.783" height="33.391"/>
	</g>
</g>
<g>
	<g>
		<rect x="389.565" y="66.783" width="33.391" height="33.391"/>
	</g>
</g>
<g>
	<g>
		<rect x="389.565" y="278.261" width="33.391" height="66.783"/>
	</g>
</g>
<g>
</g>
<g>
</g>
<g>
</g>
<g>
</g>
<g>
</g>
<g>
</g>
<g>
</g>
<g>
</g>
<g>
</g>
<g>
</g>
<g>
</g>
<g>
</g>
<g>
</g>
<g>
</g>
<g>
</g>
</svg>
