<?xml version="1.0" encoding="iso-8859-1"?>
<!-- Generator: Adobe Illustrator 19.0.0, SVG Export Plug-In . SVG Version: 6.00 Build 0)  -->
<svg version="1.1" id="Layer_1" xmlns="http://www.w3.org/2000/svg" xmlns:xlink="http://www.w3.org/1999/xlink" x="0px" y="0px"
	 viewBox="0 0 512 512" style="enable-background:new 0 0 512 512;" xml:space="preserve">
<g>
	<g>
		<rect x="189.217" y="122.435" width="133.565" height="33.391"/>
	</g>
</g>
<g>
	<g>
		<rect x="189.217" y="345.043" width="133.565" height="33.391"/>
	</g>
</g>
<g>
	<g>
		<rect x="122.435" y="189.217" width="33.391" height="122.435"/>
	</g>
</g>
<g>
	<g>
		<rect x="66.783" y="66.783" width="33.391" height="33.391"/>
	</g>
</g>
<g>
	<g>
		<g>
			<rect y="166.957" width="33.391" height="178.087"/>
			<rect x="33.391" y="100.174" width="33.391" height="66.783"/>
			<rect x="33.391" y="345.043" width="33.391" height="66.783"/>
			<rect x="66.783" y="411.826" width="33.391" height="33.391"/>
		</g>
	</g>
</g>
<g>
	<g>
		<g>
			<rect x="166.957" width="178.087" height="33.391"/>
			<rect x="100.174" y="33.391" width="66.783" height="33.391"/>
			<rect x="411.826" y="66.783" width="33.391" height="33.391"/>
			<rect x="345.043" y="33.391" width="66.783" height="33.391"/>
		</g>
	</g>
</g>
<g>
	<g>
		<rect x="445.217" y="100.174" width="33.39" height="66.783"/>
	</g>
</g>
<g>
	<g>
		<rect x="478.609" y="166.957" width="33.391" height="178.087"/>
	</g>
</g>
<g>
	<g>
		<rect x="389.565" y="345.043" width="89.042" height="33.391"/>
	</g>
</g>
<g>
	<g>
		<g>
			<rect x="166.957" y="478.609" width="178.087" height="33.391"/>
			<rect x="100.174" y="445.217" width="66.783" height="33.391"/>
			<rect x="345.043" y="445.217" width="66.783" height="33.391"/>
		</g>
	</g>
</g>
<g>
	<g>
		<polygon points="356.174,189.217 356.174,311.652 322.783,311.652 322.783,345.043 389.565,345.043 389.565,189.217 		"/>
	</g>
</g>
<g>
	<g>
		<rect x="322.783" y="155.826" width="33.391" height="33.391"/>
	</g>
</g>
<g>
	<g>
		<rect x="155.826" y="155.826" width="33.391" height="33.391"/>
	</g>
</g>
<g>
	<g>
		<rect x="155.826" y="311.652" width="33.391" height="33.391"/>
	</g>
</g>
<g>
</g>
<g>
</g>
<g>
</g>
<g>
</g>
<g>
</g>
<g>
</g>
<g>
</g>
<g>
</g>
<g>
</g>
<g>
</g>
<g>
</g>
<g>
</g>
<g>
</g>
<g>
</g>
<g>
</g>
</svg>
