<svg width="33" height="33" viewBox="0 0 33 33" fill="none" xmlns="http://www.w3.org/2000/svg">
<path d="M5.15512 5.15527H10.3914V10.3916H5.15512V5.15527Z" fill="white"/>
<path d="M5.15512 22.6089H10.3914V27.8452H5.15512V22.6089Z" fill="white"/>
<path d="M22.6089 5.15527H27.8452V10.3916H22.6089V5.15527Z" fill="white"/>
<path d="M29.8812 29.8808H24.6449V32.499H29.8812C31.3357 32.499 32.4993 31.3354 32.4993 29.8808V27.2627H29.8812V29.8808Z" fill="white"/>
<path d="M0.5 3.11815V15.0453H15.0453V0.5H3.11815C1.66362 0.5 0.5 1.66362 0.5 3.11815ZM12.4271 12.4271H3.11815V3.11815H12.4271V12.4271Z" fill="white"/>
<path d="M0.5 29.8807C0.5 31.3353 1.66362 32.4989 3.11815 32.4989H15.0453V17.9536H0.5V29.8807ZM3.11815 20.5718H12.4271V29.8807H3.11815V20.5718Z" fill="white"/>
<path d="M17.9538 17.9536H27.2627V20.5718H17.9538V17.9536Z" fill="white"/>
<path d="M24.6459 21.7368H21.7368V24.6459H24.6459V27.264H27.264V24.6459H32.5003V21.7368H27.264H24.6459Z" fill="white"/>
<path d="M17.9538 27.2627H20.5719V32.499H17.9538V27.2627Z" fill="white"/>
<path d="M21.7368 27.2627H24.355V29.8808H21.7368V27.2627Z" fill="white"/>
<path d="M17.9538 21.7368H20.5719V24.355H17.9538V21.7368Z" fill="white"/>
<path d="M29.8818 17.9536H32.5V20.5718H29.8818V17.9536Z" fill="white"/>
<path d="M29.8809 0.5H17.9538V15.0453H32.4991V3.11815C32.4991 1.66362 31.3354 0.5 29.8809 0.5ZM29.8809 12.4271H20.5719V3.11815H29.8809V12.4271Z" fill="white"/>
</svg>
