<?xml version="1.0" encoding="iso-8859-1"?>
<!-- Generator: Adobe Illustrator 19.0.0, SVG Export Plug-In . SVG Version: 6.00 Build 0)  -->
<svg version="1.1" id="Layer_1" xmlns="http://www.w3.org/2000/svg" xmlns:xlink="http://www.w3.org/1999/xlink" x="0px" y="0px"
	 viewBox="0 0 512 512" style="enable-background:new 0 0 512 512;" xml:space="preserve">
<g>
	<g>
		<path d="M345.043,133.565v-33.391h-33.391V66.783H133.565v33.391h-33.391v33.391H66.783v178.087h33.391v33.391h33.391v33.391
			h178.087v-33.391h33.391v-33.391h33.391V133.565H345.043z M311.652,267.13H256v33.391h33.391v33.391H155.826v-33.391h33.391
			V267.13h-55.652V144.696h33.391v-33.391h111.304v33.391h33.391V267.13z"/>
	</g>
</g>
<g>
	<g>
		<rect x="66.783" y="33.391" width="66.783" height="33.391"/>
	</g>
</g>
<g>
	<g>
		<rect x="133.565" width="178.087" height="33.391"/>
	</g>
</g>
<g>
	<g>
		<rect x="133.565" y="411.826" width="178.087" height="33.391"/>
	</g>
</g>
<g>
	<g>
		<rect x="311.652" y="33.391" width="66.783" height="33.391"/>
	</g>
</g>
<g>
	<g>
		<rect x="378.435" y="66.783" width="33.39" height="66.783"/>
	</g>
</g>
<g>
	<g>
		<rect x="411.826" y="133.565" width="33.391" height="178.087"/>
	</g>
</g>
<g>
	<g>
		<rect x="378.435" y="311.652" width="33.39" height="33.391"/>
	</g>
</g>
<g>
	<g>
		<rect x="33.391" y="66.783" width="33.391" height="66.783"/>
	</g>
</g>
<g>
	<g>
		<rect y="133.565" width="33.391" height="178.087"/>
	</g>
</g>
<g>
	<g>
		<rect x="33.391" y="311.652" width="33.391" height="66.783"/>
	</g>
</g>
<g>
	<g>
		<rect x="66.783" y="378.435" width="66.783" height="33.391"/>
	</g>
</g>
<g>
	<g>
		<rect x="311.652" y="378.435" width="33.391" height="33.391"/>
	</g>
</g>
<g>
	<g>
		<rect x="411.826" y="345.043" width="33.391" height="33.391"/>
	</g>
</g>
<g>
	<g>
		<rect x="345.043" y="411.826" width="33.391" height="33.391"/>
	</g>
</g>
<g>
	<g>
		<rect x="445.217" y="378.435" width="33.391" height="33.391"/>
	</g>
</g>
<g>
	<g>
		<rect x="378.435" y="445.217" width="33.391" height="33.391"/>
	</g>
</g>
<g>
	<g>
		<rect x="478.609" y="411.826" width="33.391" height="66.783"/>
	</g>
</g>
<g>
	<g>
		<rect x="411.826" y="478.609" width="66.783" height="33.391"/>
	</g>
</g>
<g>
</g>
<g>
</g>
<g>
</g>
<g>
</g>
<g>
</g>
<g>
</g>
<g>
</g>
<g>
</g>
<g>
</g>
<g>
</g>
<g>
</g>
<g>
</g>
<g>
</g>
<g>
</g>
<g>
</g>
</svg>
