<svg width="190" height="190" viewBox="0 0 190 190" fill="none" xmlns="http://www.w3.org/2000/svg">
<path d="M190 95C190 147.467 147.467 190 95 190C42.533 190 0 147.467 0 95C0 42.533 42.533 0 95 0C147.467 0 190 42.533 190 95Z" fill="#D2D2D2" fill-opacity="0.8"/>
<path d="M95.0007 57.6848C91.2926 57.6848 88.2588 60.7673 88.2588 64.5349C88.2588 68.3025 91.2926 71.385 95.0007 71.385C98.7088 71.385 101.743 68.3025 101.743 64.5349C101.743 60.7673 98.7088 57.6848 95.0007 57.6848ZM118.597 43.9846H114.215L113.204 40.9021C112.867 39.8746 112.53 39.1895 111.856 38.162C111.856 38.162 111.856 38.162 111.856 37.8195L111.518 37.477C109.496 35.0795 106.799 33.7095 103.765 33.7095H86.2362C84.5507 33.7095 82.5281 34.3945 81.1797 35.422C80.8426 35.422 80.8426 35.7645 80.5055 35.7645C78.82 37.1345 77.4717 38.847 76.7975 40.9021L75.7862 43.9846H71.4039C65.6733 43.9846 61.291 48.4372 61.291 54.2598V81.6601C61.291 87.4827 65.6733 91.9353 71.4039 91.9353H118.597C124.328 91.9353 128.71 87.4827 128.71 81.6601V54.2598C128.71 48.4372 124.328 43.9846 118.597 43.9846ZM95.0007 78.2351C87.5846 78.2351 81.5168 72.07 81.5168 64.5349C81.5168 56.9998 87.5846 50.8347 95.0007 50.8347C102.417 50.8347 108.485 56.9998 108.485 64.5349C108.485 72.07 102.417 78.2351 95.0007 78.2351Z" fill="black" fill-opacity="0.26"/>
<path d="M67.0687 128.105C68.1371 128.105 69.0973 127.913 69.9492 127.529C70.8081 127.145 71.5203 126.603 72.086 125.905C72.6516 125.207 73.0217 124.39 73.1963 123.454L73.2067 123.391H71.3004L71.2794 123.444C71.0979 124.058 70.8081 124.585 70.4101 125.025C70.019 125.458 69.5407 125.79 68.9751 126.02C68.4094 126.251 67.774 126.366 67.0687 126.366C66.0841 126.366 65.2287 126.115 64.5025 125.612C63.7763 125.109 63.2141 124.4 62.8161 123.486C62.4251 122.564 62.2295 121.481 62.2295 120.238V120.228C62.2295 118.978 62.4251 117.896 62.8161 116.981C63.2141 116.066 63.7763 115.357 64.5025 114.855C65.2287 114.352 66.0841 114.1 67.0687 114.1C67.767 114.1 68.399 114.226 68.9646 114.478C69.5302 114.722 70.0085 115.071 70.3996 115.525C70.7976 115.979 71.0874 116.52 71.269 117.149L71.3004 117.264H73.2067L73.1963 117.211C73.0356 116.248 72.669 115.403 72.0964 114.677C71.5238 113.95 70.8046 113.385 69.9387 112.98C69.0798 112.568 68.1231 112.362 67.0687 112.362C65.6791 112.362 64.478 112.683 63.4655 113.325C62.453 113.968 61.6709 114.876 61.1193 116.049C60.5676 117.222 60.2918 118.615 60.2918 120.228V120.238C60.2918 121.845 60.5676 123.238 61.1193 124.418C61.6709 125.591 62.453 126.499 63.4655 127.141C64.485 127.784 65.6861 128.105 67.0687 128.105ZM75.3858 127.791H77.2084V121.254C77.2084 120.612 77.3271 120.053 77.5645 119.579C77.8019 119.104 78.1336 118.737 78.5596 118.479C78.9925 118.22 79.5023 118.091 80.0888 118.091C80.9687 118.091 81.6321 118.35 82.079 118.866C82.5259 119.383 82.7493 120.144 82.7493 121.15V127.791H84.5719V120.762C84.5719 119.875 84.4148 119.114 84.1005 118.479C83.7863 117.836 83.3359 117.344 82.7493 117.002C82.1628 116.653 81.4645 116.478 80.6545 116.478C79.8305 116.478 79.1392 116.646 78.5805 116.981C78.0289 117.316 77.6064 117.787 77.3131 118.395H77.2084V112.309H75.3858V127.791ZM91.5902 127.99C92.6306 127.99 93.5349 127.759 94.3031 127.298C95.0712 126.83 95.6647 126.167 96.0837 125.308C96.5097 124.442 96.7226 123.419 96.7226 122.239V122.218C96.7226 121.031 96.5097 120.008 96.0837 119.149C95.6647 118.29 95.0712 117.63 94.3031 117.169C93.5349 116.709 92.6271 116.478 91.5797 116.478C90.5462 116.478 89.6419 116.709 88.8668 117.169C88.0987 117.63 87.5017 118.29 87.0757 119.149C86.6567 120.008 86.4472 121.031 86.4472 122.218V122.239C86.4472 123.419 86.6567 124.442 87.0757 125.308C87.5017 126.167 88.0987 126.83 88.8668 127.298C89.6419 127.759 90.5497 127.99 91.5902 127.99ZM91.5902 126.376C90.9128 126.376 90.3298 126.216 89.841 125.895C89.3521 125.566 88.9751 125.095 88.7097 124.481C88.4444 123.859 88.3117 123.112 88.3117 122.239V122.218C88.3117 121.345 88.4444 120.602 88.7097 119.987C88.9751 119.373 89.3521 118.905 89.841 118.584C90.3298 118.255 90.9093 118.091 91.5797 118.091C92.264 118.091 92.8506 118.252 93.3394 118.573C93.8282 118.894 94.2018 119.366 94.4602 119.987C94.7255 120.602 94.8582 121.345 94.8582 122.218V122.239C94.8582 123.112 94.7255 123.859 94.4602 124.481C94.2018 125.095 93.8282 125.566 93.3394 125.895C92.8576 126.216 92.2745 126.376 91.5902 126.376ZM103.27 127.99C104.31 127.99 105.214 127.759 105.982 127.298C106.751 126.83 107.344 126.167 107.763 125.308C108.189 124.442 108.402 123.419 108.402 122.239V122.218C108.402 121.031 108.189 120.008 107.763 119.149C107.344 118.29 106.751 117.63 105.982 117.169C105.214 116.709 104.307 116.478 103.259 116.478C102.226 116.478 101.321 116.709 100.546 117.169C99.7781 117.63 99.1811 118.29 98.7551 119.149C98.3361 120.008 98.1266 121.031 98.1266 122.218V122.239C98.1266 123.419 98.3361 124.442 98.7551 125.308C99.1811 126.167 99.7781 126.83 100.546 127.298C101.321 127.759 102.229 127.99 103.27 127.99ZM103.27 126.376C102.592 126.376 102.009 126.216 101.52 125.895C101.032 125.566 100.654 125.095 100.389 124.481C100.124 123.859 99.9911 123.112 99.9911 122.239V122.218C99.9911 121.345 100.124 120.602 100.389 119.987C100.654 119.373 101.032 118.905 101.52 118.584C102.009 118.255 102.589 118.091 103.259 118.091C103.943 118.091 104.53 118.252 105.019 118.573C105.508 118.894 105.881 119.366 106.14 119.987C106.405 120.602 106.538 121.345 106.538 122.218V122.239C106.538 123.112 106.405 123.859 106.14 124.481C105.881 125.095 105.508 125.566 105.019 125.895C104.537 126.216 103.954 126.376 103.27 126.376ZM114.237 127.99C115.068 127.99 115.815 127.85 116.478 127.571C117.142 127.291 117.665 126.9 118.049 126.397C118.433 125.895 118.625 125.315 118.625 124.659V124.648C118.625 123.852 118.381 123.217 117.892 122.742C117.403 122.267 116.621 121.9 115.546 121.642L113.807 121.223C113.172 121.069 112.711 120.867 112.425 120.616C112.145 120.357 112.006 120.039 112.006 119.662V119.641C112.006 119.313 112.1 119.027 112.288 118.783C112.477 118.531 112.739 118.339 113.074 118.206C113.409 118.067 113.8 117.997 114.247 117.997C114.925 117.997 115.469 118.147 115.881 118.447C116.293 118.741 116.548 119.128 116.646 119.61L116.656 119.641H118.416V119.589C118.353 118.975 118.14 118.433 117.777 117.966C117.421 117.498 116.943 117.135 116.342 116.876C115.742 116.611 115.043 116.478 114.247 116.478C113.458 116.478 112.753 116.618 112.131 116.897C111.51 117.176 111.021 117.561 110.665 118.049C110.316 118.538 110.141 119.097 110.141 119.725V119.736C110.141 120.532 110.389 121.174 110.885 121.663C111.388 122.152 112.159 122.522 113.2 122.773L114.939 123.192C115.602 123.353 116.07 123.562 116.342 123.821C116.621 124.072 116.761 124.39 116.761 124.774V124.795C116.761 125.13 116.656 125.423 116.447 125.675C116.244 125.926 115.955 126.122 115.577 126.261C115.207 126.401 114.771 126.471 114.268 126.471C113.542 126.471 112.962 126.324 112.529 126.031C112.103 125.738 111.821 125.34 111.681 124.837L111.67 124.795H109.827L109.837 124.837C109.907 125.472 110.127 126.027 110.497 126.502C110.874 126.97 111.381 127.337 112.016 127.602C112.652 127.86 113.392 127.99 114.237 127.99ZM125.172 127.99C125.801 127.99 126.377 127.906 126.901 127.738C127.424 127.571 127.882 127.34 128.273 127.047C128.671 126.754 128.996 126.422 129.247 126.052C129.498 125.675 129.669 125.28 129.76 124.868L129.781 124.774H127.98L127.938 124.868C127.84 125.134 127.669 125.381 127.424 125.612C127.18 125.842 126.873 126.027 126.503 126.167C126.133 126.307 125.703 126.376 125.214 126.376C124.537 126.376 123.95 126.23 123.455 125.937C122.966 125.636 122.589 125.207 122.323 124.648C122.058 124.09 121.925 123.416 121.925 122.627V121.914C121.925 121.083 122.062 120.385 122.334 119.819C122.606 119.247 122.976 118.817 123.444 118.531C123.912 118.238 124.446 118.091 125.047 118.091C125.64 118.091 126.164 118.231 126.618 118.51C127.079 118.783 127.438 119.202 127.697 119.767C127.962 120.333 128.095 121.048 128.095 121.914V122.627L129.006 121.307H120.993V122.742H129.917V122.051C129.917 120.94 129.722 119.966 129.331 119.128C128.947 118.29 128.388 117.641 127.655 117.18C126.929 116.712 126.063 116.478 125.057 116.478C124.045 116.478 123.165 116.723 122.418 117.211C121.67 117.693 121.091 118.371 120.679 119.243C120.267 120.109 120.061 121.118 120.061 122.271V122.281C120.061 123.44 120.267 124.449 120.679 125.308C121.091 126.16 121.677 126.82 122.439 127.288C123.2 127.756 124.111 127.99 125.172 127.99ZM69.3995 154.519H71.222V148.989H71.3373C71.5537 149.401 71.8365 149.757 72.1857 150.057C72.5348 150.351 72.9363 150.581 73.3902 150.749C73.8441 150.909 74.326 150.99 74.8357 150.99C75.7784 150.99 76.5989 150.756 77.2972 150.288C77.9955 149.813 78.5402 149.146 78.9312 148.287C79.3223 147.421 79.5178 146.409 79.5178 145.25V145.229C79.5178 144.069 79.3223 143.06 78.9312 142.202C78.5402 141.336 77.992 140.665 77.2867 140.19C76.5884 139.716 75.7679 139.478 74.8252 139.478C74.3015 139.478 73.8162 139.558 73.3693 139.719C72.9294 139.88 72.5383 140.11 72.1962 140.41C71.854 140.711 71.5677 141.074 71.3373 141.5H71.222V139.677H69.3995V154.519ZM74.4377 149.376C73.7813 149.376 73.2087 149.209 72.7199 148.874C72.2381 148.532 71.861 148.053 71.5886 147.439C71.3233 146.817 71.1906 146.088 71.1906 145.25V145.229C71.1906 144.384 71.3233 143.654 71.5886 143.039C71.861 142.418 72.2381 141.94 72.7199 141.604C73.2087 141.262 73.7813 141.091 74.4377 141.091C75.108 141.091 75.6806 141.259 76.1555 141.594C76.6373 141.922 77.0074 142.397 77.2658 143.019C77.5241 143.633 77.6533 144.37 77.6533 145.229V145.25C77.6533 146.094 77.5241 146.828 77.2658 147.449C77.0074 148.071 76.6373 148.549 76.1555 148.884C75.6806 149.212 75.108 149.376 74.4377 149.376ZM81.5817 150.791H83.4042V144.254C83.4042 143.612 83.5229 143.053 83.7603 142.579C83.9978 142.104 84.3294 141.737 84.7554 141.479C85.1883 141.22 85.6981 141.091 86.2847 141.091C87.1645 141.091 87.8279 141.35 88.2748 141.866C88.7217 142.383 88.9452 143.144 88.9452 144.15V150.791H90.7677V143.762C90.7677 142.875 90.6106 142.114 90.2964 141.479C89.9821 140.836 89.5317 140.344 88.9452 140.002C88.3586 139.653 87.6603 139.478 86.8503 139.478C86.0263 139.478 85.335 139.646 84.7764 139.981C84.2247 140.316 83.8022 140.787 83.5089 141.395H83.4042V135.309H81.5817V150.791ZM97.786 150.99C98.8265 150.99 99.7308 150.759 100.499 150.298C101.267 149.83 101.861 149.167 102.28 148.308C102.705 147.442 102.918 146.419 102.918 145.239V145.218C102.918 144.031 102.705 143.008 102.28 142.149C101.861 141.29 101.267 140.63 100.499 140.169C99.7308 139.709 98.823 139.478 97.7755 139.478C96.7421 139.478 95.8378 139.709 95.0627 140.169C94.2945 140.63 93.6975 141.29 93.2715 142.149C92.8526 143.008 92.6431 144.031 92.6431 145.218V145.239C92.6431 146.419 92.8526 147.442 93.2715 148.308C93.6975 149.167 94.2945 149.83 95.0627 150.298C95.8378 150.759 96.7455 150.99 97.786 150.99ZM97.786 149.376C97.1087 149.376 96.5256 149.216 96.0368 148.895C95.548 148.566 95.1709 148.095 94.9055 147.481C94.6402 146.859 94.5075 146.112 94.5075 145.239V145.218C94.5075 144.345 94.6402 143.602 94.9055 142.987C95.1709 142.373 95.548 141.905 96.0368 141.584C96.5256 141.255 97.1052 141.091 97.7755 141.091C98.4599 141.091 99.0464 141.252 99.5352 141.573C100.024 141.894 100.398 142.366 100.656 142.987C100.921 143.602 101.054 144.345 101.054 145.218V145.239C101.054 146.112 100.921 146.859 100.656 147.481C100.398 148.095 100.024 148.566 99.5352 148.895C99.0534 149.216 98.4703 149.376 97.786 149.376ZM108.68 150.927C108.861 150.927 109.039 150.916 109.214 150.895C109.389 150.881 109.549 150.864 109.696 150.843V149.324C109.57 149.331 109.451 149.342 109.34 149.356C109.235 149.363 109.113 149.366 108.973 149.366C108.428 149.366 108.03 149.24 107.779 148.989C107.528 148.738 107.402 148.298 107.402 147.669V141.185H109.696V139.677H107.402V136.744H105.517V139.677H103.82V141.185H105.517V147.931C105.517 148.985 105.771 149.75 106.281 150.225C106.791 150.693 107.59 150.927 108.68 150.927ZM116.012 150.99C117.053 150.99 117.957 150.759 118.725 150.298C119.493 149.83 120.087 149.167 120.506 148.308C120.932 147.442 121.145 146.419 121.145 145.239V145.218C121.145 144.031 120.932 143.008 120.506 142.149C120.087 141.29 119.493 140.63 118.725 140.169C117.957 139.709 117.049 139.478 116.002 139.478C114.968 139.478 114.064 139.709 113.289 140.169C112.521 140.63 111.924 141.29 111.498 142.149C111.079 143.008 110.869 144.031 110.869 145.218V145.239C110.869 146.419 111.079 147.442 111.498 148.308C111.924 149.167 112.521 149.83 113.289 150.298C114.064 150.759 114.972 150.99 116.012 150.99ZM116.012 149.376C115.335 149.376 114.752 149.216 114.263 148.895C113.774 148.566 113.397 148.095 113.132 147.481C112.867 146.859 112.734 146.112 112.734 145.239V145.218C112.734 144.345 112.867 143.602 113.132 142.987C113.397 142.373 113.774 141.905 114.263 141.584C114.752 141.255 115.331 141.091 116.002 141.091C116.686 141.091 117.273 141.252 117.762 141.573C118.25 141.894 118.624 142.366 118.882 142.987C119.148 143.602 119.28 144.345 119.28 145.218V145.239C119.28 146.112 119.148 146.859 118.882 147.481C118.624 148.095 118.25 148.566 117.762 148.895C117.28 149.216 116.697 149.376 116.012 149.376Z" fill="black" fill-opacity="0.9"/>
</svg>
