<svg width="58" height="58" viewBox="0 0 58 58" fill="none" xmlns="http://www.w3.org/2000/svg">
<circle cx="29" cy="29" r="28" fill="white" stroke="#D6D6D6" stroke-width="2"/>
<path d="M28.085 39.5068L28.0849 39.5069C27.8387 39.74 27.5441 39.927 27.217 40.0553C26.8899 40.1835 26.5381 40.25 26.1818 40.25C25.8256 40.25 25.4737 40.1835 25.1466 40.0553C24.8196 39.927 24.525 39.74 24.2787 39.5069L24.2787 39.5069L15.5172 31.2123C15.5172 31.2123 15.5172 31.2123 15.5172 31.2123C15.0206 30.742 14.75 30.1134 14.75 29.4672C14.75 28.821 15.0208 28.1924 15.5175 27.7222C16.0155 27.2507 16.6993 26.9791 17.4204 26.9791C18.1415 26.9791 18.8253 27.2505 19.3234 27.7219C19.3234 27.7219 19.3234 27.722 19.3235 27.722L25.6662 33.7267L26.1818 34.2148L26.6975 33.7267L40.6761 20.4931C40.6761 20.4931 40.6761 20.4931 40.6761 20.4931C41.1742 20.0216 41.8581 19.75 42.5792 19.75C43.3004 19.75 43.9843 20.0216 44.4824 20.4931C44.9791 20.9633 45.2499 21.5919 45.25 22.2382C45.2501 22.8844 44.9794 23.5131 44.4828 23.9834C44.4828 23.9834 44.4827 23.9835 44.4827 23.9835L28.085 39.5068Z" fill="#68A089" stroke="white" stroke-width="1.5"/>
</svg>
