<svg width="19" height="16" viewBox="0 0 19 16" fill="none" xmlns="http://www.w3.org/2000/svg">
<path d="M17.875 2.75H14.125V1.5C14.125 1.16848 13.9933 0.850537 13.7589 0.616116C13.5245 0.381696 13.2065 0.25 12.875 0.25H6.625C6.29348 0.25 5.97554 0.381696 5.74112 0.616116C5.5067 0.850537 5.375 1.16848 5.375 1.5V2.75H1.625C1.45924 2.75 1.30027 2.81585 1.18306 2.93306C1.06585 3.05027 1 3.20924 1 3.375V14C1 14.3315 1.1317 14.6495 1.36612 14.8839C1.60054 15.1183 1.91848 15.25 2.25 15.25H17.25C17.5815 15.25 17.8995 15.1183 18.1339 14.8839C18.3683 14.6495 18.5 14.3315 18.5 14V3.375C18.5 3.20924 18.4342 3.05027 18.3169 2.93306C18.1997 2.81585 18.0408 2.75 17.875 2.75ZM6.625 1.5H12.875V2.75H6.625V1.5ZM6.625 4H17.25V7.2875C15.4178 7.83152 13.5316 8.17314 11.625 8.30625V8.2625C11.6234 7.96132 11.503 7.67295 11.29 7.45998C11.0771 7.24701 10.7887 7.12664 10.4875 7.125H9.0125C8.71132 7.12664 8.42295 7.24701 8.20998 7.45998C7.99701 7.67295 7.87664 7.96132 7.875 8.2625V8.3125C5.96862 8.17392 4.08273 7.83027 2.25 7.2875V4H6.625ZM9.125 9V8.375H10.375V9.625H9.125V9ZM2.25 14V8.575C4.0865 9.09247 5.97147 9.4192 7.875 9.55V9.7375C7.87664 10.0387 7.99701 10.3271 8.20998 10.54C8.42295 10.753 8.71132 10.8734 9.0125 10.875H10.4875C10.7887 10.8734 11.0771 10.753 11.29 10.54C11.503 10.3271 11.6234 10.0387 11.625 9.7375V9.54375C13.5289 9.42025 15.4144 9.09552 17.25 8.575V14H2.25Z" fill="black" stroke="white" stroke-width="0.3"/>
</svg>
