<svg width="375" height="490" viewBox="0 0 375 490" fill="none" xmlns="http://www.w3.org/2000/svg">
<g clip-path="url(#clip0_1343_32554)">
<path d="M452 0H-38.6846V490H452V0Z" fill="white"/>
<path d="M354.932 281.269C354.923 280.275 354.911 279.281 354.906 278.287C354.864 271.485 354.817 264.683 354.775 257.881L354.728 250.855C354.72 249.835 354.716 248.816 354.707 247.8C354.707 247.5 354.707 247.2 354.703 246.899C354.699 245.931 354.69 244.962 354.686 243.993V243.976C354.673 242.246 354.665 240.512 354.652 238.782C354.639 236.836 351.039 233.266 350.128 231.388C348.862 228.778 347.209 227.517 344.939 225.647C342.003 223.236 339.695 220.313 336.78 217.889C336.437 217.602 336.094 217.322 335.747 217.043C335.641 216.959 335.535 216.874 335.429 216.789C335.183 216.591 334.933 216.396 334.684 216.201C334.565 216.108 334.451 216.02 334.332 215.926C334.078 215.728 333.819 215.533 333.565 215.343C333.464 215.267 333.362 215.186 333.26 215.11C332.909 214.848 332.557 214.586 332.201 214.332C332.197 214.332 332.193 214.323 332.189 214.323C331.812 214.053 331.43 213.782 331.049 213.515C330.99 213.473 330.926 213.431 330.867 213.388C330.553 213.168 330.24 212.953 329.922 212.741C329.833 212.682 329.744 212.623 329.655 212.564C329.35 212.361 329.045 212.157 328.74 211.959C328.66 211.908 328.584 211.857 328.503 211.806C328.126 211.561 327.745 211.32 327.364 211.083C325.182 213.477 322.696 215.58 319.942 217.331C313.126 221.658 304.879 223.693 296.839 222.775C289.125 221.895 281.818 218.621 276.099 213.393C276.057 213.426 276.01 213.46 275.968 213.49C275.523 213.824 275.078 214.167 274.642 214.509C272.371 216.295 271.143 218.955 268.817 220.448C265.115 222.83 262.675 224.954 260.18 228.587C257.698 232.208 254.267 235.914 252.259 239.776C250.23 243.68 249.865 249.467 249.116 253.786C248.557 257.005 249.366 260.131 249.497 263.388L249.976 274.975C250.259 281.832 248.734 288.621 250.569 295.334C252.377 301.967 256.423 308.025 262.048 312.026C262.756 312.53 263.489 313.003 264.276 313.363C266.644 314.446 269.347 314.446 271.952 314.412C278.166 314.332 284.338 314.053 290.544 313.744C293.103 313.583 295.661 313.422 298.224 313.257C305.357 312.8 312.487 312.322 319.616 311.823C323.178 311.574 326.745 311.358 330.299 311.058C335.382 310.63 341.563 311.73 346.307 309.531C349.056 308.257 351.132 305.774 352.305 302.987C354.029 298.892 353.203 294.564 354.305 290.389C354.512 289.598 354.678 288.896 354.792 288.194C354.936 287.306 355.008 286.413 354.995 285.334C354.983 283.985 354.966 282.631 354.953 281.282L354.932 281.269Z" fill="#E3E3E3"/>
<path d="M332.24 216.781C330.405 210.918 323.395 211.878 319.731 208.075C317.79 206.066 315.855 203.815 314.55 201.332C314.109 200.499 311.347 193.57 312.55 193.05C314.588 192.178 316.227 190.757 318.286 189.78C320.396 188.782 321.747 188.232 323.234 186.239C325.708 182.927 327.682 179.298 329.033 175.389C331.558 168.075 331.875 160.046 329.833 152.58C329.588 151.684 329.308 150.791 328.995 149.907C328.791 149.332 328.575 148.756 328.342 148.185C326.724 144.255 324.492 140.651 321.717 137.432C321.569 137.263 321.404 137.17 321.234 137.136C320.078 135.854 318.688 134.759 317.193 133.875C313.444 131.65 309.022 130.165 304.731 129.475C298.182 128.422 291.65 129.708 285.927 132.834C285.033 133.321 284.161 133.854 283.309 134.429C283.03 134.619 282.75 134.814 282.475 135.013C275.892 139.776 271.313 146.629 268.614 154.23C267.17 158.304 266.276 162.551 265.78 166.84C265.264 171.307 265.031 175.96 266.073 180.372C267.047 184.484 269.343 188.469 273.033 190.702C277.54 193.431 282.881 191.256 287.257 193.261C290.26 194.636 289.375 202.898 289.392 202.902C289.392 202.902 288.219 202.623 287.549 204.556C284.406 207.563 272.444 213.651 276.832 218.701C279.806 222.123 282.83 225.592 286.622 228.079C292.823 232.149 300.584 233.236 307.984 232.728C313.432 232.356 318.845 231.163 323.831 228.938C326.301 227.834 328.711 226.438 330.422 224.348C332.134 222.259 333.049 219.37 332.244 216.794L332.24 216.781Z" fill="#E3E3E3"/>
<path d="M438.571 281.269C438.563 280.275 438.55 279.28 438.546 278.286C438.504 271.484 438.457 264.682 438.415 257.88L438.368 250.854C438.36 249.835 438.355 248.815 438.347 247.8C438.347 247.5 438.347 247.199 438.343 246.899C438.338 245.93 438.33 244.962 438.326 243.993V243.976C438.313 242.246 438.305 240.511 438.292 238.781C438.279 236.835 434.679 233.265 433.768 231.387C432.501 228.777 430.849 227.517 428.579 225.647C425.643 223.236 423.334 220.313 420.42 217.889C420.077 217.601 419.734 217.322 419.386 217.043C419.281 216.958 419.175 216.874 419.069 216.789C418.823 216.59 418.573 216.396 418.323 216.201C418.205 216.108 418.09 216.019 417.972 215.926C417.717 215.727 417.459 215.533 417.205 215.342C417.103 215.266 417.002 215.186 416.9 215.11C416.548 214.847 416.197 214.585 415.841 214.331C415.837 214.331 415.832 214.323 415.828 214.323C415.451 214.052 415.07 213.781 414.689 213.515C414.629 213.473 414.566 213.43 414.507 213.388C414.193 213.168 413.88 212.952 413.562 212.741C413.473 212.682 413.384 212.622 413.295 212.563C412.99 212.36 412.685 212.157 412.38 211.958C412.3 211.907 412.223 211.857 412.143 211.806C411.766 211.561 411.385 211.319 411.003 211.083C408.822 213.477 406.335 215.579 403.582 217.33C396.766 221.658 388.518 223.693 380.478 222.775C372.765 221.895 365.458 218.621 359.739 213.392C359.697 213.426 359.65 213.46 359.608 213.489C359.163 213.824 358.718 214.166 358.282 214.509C356.011 216.294 354.783 218.955 352.457 220.448C348.755 222.83 346.315 224.953 343.82 228.587C341.338 232.208 337.906 235.913 335.898 239.775C333.869 243.68 333.505 249.467 332.755 253.786C332.196 257.005 333.005 260.131 333.137 263.388L333.615 274.974C333.899 281.831 332.374 288.621 334.208 295.334C336.017 301.967 340.063 308.024 345.688 312.026C346.395 312.529 347.128 313.003 347.916 313.363C350.284 314.445 352.987 314.445 355.592 314.412C361.806 314.331 367.978 314.052 374.184 313.743C376.742 313.583 379.301 313.422 381.864 313.257C388.997 312.8 396.126 312.322 403.256 311.823C406.818 311.573 410.385 311.357 413.939 311.057C419.022 310.63 425.203 311.73 429.947 309.53C432.696 308.257 434.772 305.774 435.945 302.986C437.669 298.891 436.843 294.564 437.945 290.389C438.152 289.598 438.317 288.896 438.432 288.193C438.576 287.305 438.648 286.412 438.635 285.334C438.622 283.984 438.605 282.631 438.593 281.281L438.571 281.269Z" fill="#E3E3E3"/>
<path d="M415.879 216.781C414.045 210.918 407.035 211.878 403.37 208.075C401.43 206.066 399.494 203.815 398.19 201.332C397.749 200.499 394.987 193.57 396.19 193.05C398.228 192.178 399.867 190.757 401.926 189.78C404.035 188.782 405.387 188.232 406.874 186.239C409.347 182.927 411.321 179.298 412.673 175.389C415.197 168.075 415.515 160.046 413.473 152.58C413.228 151.683 412.948 150.791 412.635 149.907C412.431 149.331 412.215 148.756 411.982 148.185C410.364 144.255 408.132 140.651 405.357 137.432C405.209 137.263 405.044 137.17 404.874 137.136C403.718 135.854 402.328 134.759 400.833 133.875C390.052 127.474 380.352 128.853 370.435 136.019C357.253 145.545 356.147 166.032 358.833 180.719C359.472 184.221 360.705 189.898 363.895 192.085C366.428 193.815 369.973 191.853 372.219 194.674C374.049 196.971 372.367 200.436 373.032 202.897C373.032 202.897 371.859 202.618 371.189 204.551C368.046 207.559 356.084 213.646 360.472 218.697C363.446 222.119 366.47 225.588 370.262 228.075C376.463 232.144 384.223 233.232 391.624 232.724C397.071 232.352 402.485 231.159 407.471 228.934C409.94 227.83 412.351 226.434 414.062 224.344C415.773 222.254 416.688 219.365 415.884 216.789L415.879 216.781Z" fill="#E3E3E3"/>
<path d="M58.0324 281.269C58.0239 280.275 58.0112 279.281 58.0069 278.287C57.9646 271.485 57.918 264.683 57.8756 257.881L57.829 250.855C57.8206 249.835 57.8163 248.816 57.8078 247.8C57.8078 247.5 57.8078 247.2 57.8036 246.899C57.7994 245.931 57.7909 244.962 57.7867 243.993V243.976C57.774 242.246 57.7655 240.512 57.7528 238.782C57.7401 236.836 54.1394 233.266 53.2287 231.388C51.9621 228.778 50.3101 227.517 48.0396 225.647C45.104 223.236 42.7953 220.313 39.881 217.889C39.5378 217.602 39.1947 217.322 38.8474 217.043C38.7415 216.959 38.6356 216.874 38.5297 216.789C38.284 216.591 38.034 216.396 37.7841 216.201C37.6655 216.108 37.5511 216.02 37.4325 215.926C37.1784 215.728 36.92 215.533 36.6658 215.343C36.5641 215.267 36.4625 215.186 36.3608 215.11C36.0092 214.848 35.6576 214.586 35.3018 214.332C35.2976 214.332 35.2933 214.323 35.2891 214.323C34.9121 214.053 34.5308 213.782 34.1496 213.515C34.0903 213.473 34.0268 213.431 33.9675 213.388C33.654 213.168 33.3405 212.953 33.0228 212.741C32.9339 212.682 32.8449 212.623 32.756 212.564C32.451 212.361 32.146 212.157 31.841 211.959C31.7605 211.908 31.6842 211.857 31.6038 211.806C31.2267 211.561 30.8455 211.32 30.4643 211.083C28.2827 213.477 25.7962 215.58 23.0427 217.331C16.227 221.658 7.9794 223.693 -0.060585 222.775C-7.7744 221.895 -15.0816 218.621 -20.8002 213.393C-20.8426 213.426 -20.8892 213.46 -20.9315 213.49C-21.3763 213.824 -21.8211 214.167 -22.2574 214.509C-24.5279 216.295 -25.7564 218.955 -28.0819 220.448C-31.7842 222.83 -34.2242 224.954 -36.7192 228.587C-39.2015 232.208 -42.6369 235.914 -44.6406 239.776C-46.6696 243.68 -47.0339 249.467 -47.7837 253.786C-48.3429 257.005 -47.5338 260.131 -47.4025 263.388L-46.9238 274.975C-46.64 281.832 -48.165 288.621 -46.3308 295.334C-44.522 301.967 -40.4766 308.025 -34.8511 312.026C-34.1437 312.53 -33.4109 313.003 -32.623 313.363C-30.255 314.446 -27.5524 314.446 -24.9473 314.412C-18.733 314.332 -12.5611 314.053 -6.35533 313.744C-3.79676 313.583 -1.2382 313.422 1.3246 313.257C8.45808 312.8 15.5873 312.322 22.7166 311.823C26.2791 311.574 29.8458 311.358 33.3998 311.058C38.4831 310.63 44.6634 311.73 49.4078 309.531C52.157 308.257 54.2326 305.774 55.406 302.987C57.1301 298.892 56.3041 294.564 57.4054 290.389C57.613 289.598 57.7782 288.896 57.8926 288.194C58.0366 287.306 58.1086 286.413 58.0959 285.334C58.0832 283.985 58.0662 282.631 58.0535 281.282L58.0324 281.269Z" fill="#E3E3E3"/>
<path d="M35.3401 216.781C33.5059 210.918 26.4953 211.878 22.8311 208.075C20.891 206.066 18.9552 203.815 17.6505 201.332C17.2099 200.499 14.448 193.57 15.6511 193.05C17.6886 192.178 19.3279 190.757 21.3866 189.78C23.4962 188.782 24.8475 188.232 26.3343 186.239C28.8082 182.927 30.7822 179.298 32.1334 175.389C34.6581 168.075 34.9758 160.046 32.9341 152.58C32.6884 151.684 32.4088 150.791 32.0953 149.907C31.892 149.332 31.676 148.756 31.443 148.185C29.8248 144.255 27.5924 140.651 24.8178 137.432C24.6696 137.263 24.5044 137.17 24.3349 137.136C23.1785 135.854 21.7891 134.759 20.2937 133.875C16.5449 131.65 12.1224 130.165 7.83134 129.475C1.28243 128.422 -5.24953 129.708 -10.9724 132.834C-11.8662 133.321 -12.7388 133.854 -13.5903 134.429C-13.8699 134.619 -14.1494 134.814 -14.4248 135.013C-21.0076 139.776 -25.5867 146.629 -28.2851 154.23C-29.7296 158.304 -30.6234 162.551 -31.119 166.84C-31.6358 171.307 -31.8688 175.96 -30.8267 180.372C-28.9671 188.232 -25.0276 188.845 -19.1352 191.624C-13.4632 194.302 -13.2133 195.495 -15.4372 202.665C-15.4838 202.821 -15.5346 202.982 -15.5854 203.147C-16.475 205.986 -16.6826 208.473 -17.7501 211.045C-18.826 213.634 -22.9604 215.368 -20.0629 218.706C-17.0935 222.128 -14.0689 225.592 -10.2777 228.075C-4.07615 232.145 3.68426 233.232 11.0846 232.724C16.5321 232.352 21.9458 231.159 26.9316 228.934C29.4012 227.83 31.8115 226.434 33.5229 224.344C35.2342 222.255 36.1492 219.365 35.3444 216.789L35.3401 216.781Z" fill="#E3E3E3"/>
<path d="M141.668 281.269C141.66 280.275 141.647 279.281 141.643 278.287C141.6 271.485 141.554 264.683 141.511 257.881L141.465 250.855C141.456 249.835 141.452 248.816 141.444 247.8C141.444 247.5 141.444 247.2 141.439 246.899C141.435 245.931 141.427 244.962 141.422 243.993V243.976C141.41 242.246 141.401 240.512 141.389 238.782C141.376 236.836 137.775 233.266 136.864 231.388C135.598 228.778 133.946 227.517 131.675 225.647C128.74 223.236 126.431 220.313 123.517 217.889C123.174 217.602 122.83 217.322 122.483 217.043C122.377 216.959 122.271 216.874 122.165 216.789C121.92 216.591 121.67 216.396 121.42 216.201C121.301 216.108 121.187 216.02 121.068 215.926C120.814 215.728 120.556 215.533 120.302 215.343C120.2 215.267 120.098 215.186 119.997 215.11C119.645 214.848 119.293 214.586 118.938 214.332C118.933 214.332 118.929 214.323 118.925 214.323C118.548 214.053 118.167 213.782 117.785 213.515C117.726 213.473 117.663 213.431 117.603 213.388C117.29 213.168 116.976 212.953 116.659 212.741C116.57 212.682 116.481 212.623 116.392 212.564C116.087 212.361 115.782 212.157 115.477 211.959C115.396 211.908 115.32 211.857 115.239 211.806C114.862 211.561 114.481 211.32 114.1 211.083C111.918 213.477 109.432 215.58 106.678 217.331C99.8627 221.658 91.6151 223.693 83.5752 222.775C75.8613 221.895 68.5542 218.621 62.8355 213.393C62.7932 213.426 62.7466 213.46 62.7042 213.49C62.2594 213.824 61.8147 214.167 61.3784 214.509C59.1078 216.295 57.8794 218.955 55.5538 220.448C51.8515 222.83 49.4116 224.954 46.9165 228.587C44.4342 232.208 41.003 235.914 38.9952 239.776C36.9661 243.68 36.6018 249.467 35.852 253.786C35.2929 257.005 36.102 260.131 36.2333 263.388L36.7119 274.975C36.9958 281.832 35.4708 288.621 37.305 295.334C39.1138 301.967 43.1592 308.025 48.7846 312.026C49.492 312.53 50.2249 313.003 51.0128 313.363C53.3807 314.446 56.0833 314.446 58.6885 314.412C64.9027 314.332 71.0746 314.053 77.2804 313.744C79.839 313.583 82.3975 313.422 84.9603 313.257C92.0938 312.8 99.2231 312.322 106.352 311.823C109.915 311.574 113.482 311.358 117.036 311.058C122.119 310.63 128.299 311.73 133.044 309.531C135.793 308.257 137.868 305.774 139.042 302.987C140.766 298.892 139.94 294.564 141.041 290.389C141.249 289.598 141.414 288.896 141.528 288.194C141.672 287.306 141.744 286.413 141.732 285.334C141.719 283.985 141.702 282.631 141.689 281.282L141.668 281.269Z" fill="#E3E3E3"/>
<path d="M118.98 216.781C117.146 210.918 110.135 211.878 106.471 208.075C104.531 206.066 102.595 203.815 101.291 201.332C100.85 200.499 98.0882 193.57 99.2912 193.05C101.329 192.178 102.968 190.757 105.027 189.78C107.136 188.782 108.488 188.232 109.974 186.239C112.448 182.927 114.422 179.298 115.774 175.389C118.298 168.075 118.616 160.046 116.574 152.58C116.329 151.684 116.049 150.791 115.735 149.907C115.532 149.332 115.316 148.756 115.083 148.185C113.465 144.255 111.233 140.651 108.458 137.432C108.31 137.263 108.145 137.17 107.975 137.136C106.819 135.854 105.429 134.759 103.934 133.875C100.185 131.65 95.7626 130.165 91.4715 129.475C84.9226 128.422 78.3906 129.708 72.6677 132.834C71.7739 133.321 70.9013 133.854 70.0499 134.429C69.7703 134.619 69.4907 134.814 69.2154 135.013C58.5914 142.699 58.0619 157.695 59.4937 169.539C60.4214 177.217 61.8828 187.009 68.3131 192.2C72.8245 195.837 77.446 195.313 76.1286 202.889C75.6753 203.27 74.9849 203.769 74.1504 204.353C69.3128 207.749 59.6335 214.167 63.573 218.701C66.5467 222.123 69.567 225.588 73.3582 228.075C79.5598 232.145 87.3202 233.232 94.7205 232.724C100.168 232.352 105.582 231.159 110.568 228.934C113.037 227.83 115.447 226.434 117.159 224.344C118.87 222.255 119.785 219.365 118.98 216.789V216.781Z" fill="#E3E3E3"/>
<path d="M93.915 256.349C92.945 255.609 91.5725 255.275 90.1958 255.135C91.1828 253.202 90.9541 250.689 89.4248 248.946C87.2899 246.518 83.99 246.362 81.3552 247.745C80.8638 244.729 80.1098 241.7 78.229 239.243C76.0009 236.328 72.3579 234.835 68.7106 235.194C65.0507 235.558 61.7381 237.766 59.9802 240.998C58.5992 243.532 58.3027 246.442 58.9762 249.162C56.1127 248.43 52.9441 248.963 50.5635 250.812C47.4034 253.261 46.1199 257.614 47.2763 261.408C47.4712 262.043 47.988 262.309 48.5048 262.301C48.6742 262.386 48.8733 262.436 49.1063 262.436C59.5693 262.322 70.028 262.208 80.491 262.094L88.3997 262.009C90.3314 261.988 92.6908 262.212 94.1311 260.651C95.2917 259.395 95.3129 257.415 93.915 256.349Z" fill="#87A2C7"/>
<path d="M342.244 227.348C340.182 225.749 337.441 225.288 334.959 225.918C335.543 223.562 335.285 221.045 334.09 218.849C332.565 216.049 329.697 214.137 326.529 213.824C323.373 213.511 320.217 214.805 318.285 217.331C316.659 219.458 316.002 222.081 315.579 224.695C313.3 223.498 310.44 223.629 308.593 225.736C307.268 227.246 307.068 229.425 307.924 231.095C306.73 231.218 305.544 231.51 304.701 232.149C303.489 233.071 303.51 234.788 304.514 235.875C305.764 237.225 307.806 237.035 309.479 237.051L316.328 237.128C325.389 237.225 334.45 237.326 343.507 237.424C343.71 237.424 343.88 237.381 344.028 237.31C344.477 237.318 344.926 237.085 345.091 236.535C346.091 233.249 344.981 229.48 342.244 227.356V227.348Z" fill="#87A2C7"/>
<path d="M249.869 186.823L249.967 191.527C252.733 187.402 256.765 184.276 261.739 184.843C262.031 184.357 262.501 184.035 263.247 184.103C263.81 184.154 264.2 184.399 264.458 184.746C264.602 184.886 264.712 185.059 264.772 185.254C265.568 187.94 266.28 190.647 266.907 193.371C270.274 193.223 273.642 193.041 277.005 192.821C277.891 192.762 278.39 192.056 278.238 191.205C277.552 187.377 273.985 184.687 270.236 184.611C270.579 181.611 269.507 178.443 267.169 176.459C264.903 174.539 261.959 173.887 259.15 174.45C259.248 169.209 254.982 164.649 249.479 164.856L250.009 186.827H249.869V186.823Z" fill="#87A2C7"/>
<path d="M108.678 196.925C108.098 198.431 108.14 200.165 108.805 201.646C105.984 203.283 101.532 207.052 104.535 209.751C106.014 211.079 108.653 210.681 110.461 210.673C112.389 210.664 114.316 210.592 116.239 210.478C114.287 206.696 112.164 202.991 110.046 199.306C109.589 198.511 109.136 197.72 108.682 196.925H108.678Z" fill="#87A2C7"/>
<path d="M129.71 285.723C129.689 278.803 129.325 271.891 128.6 265.009C128.571 264.712 128.452 264.425 128.27 264.192C128.371 264.006 128.473 263.816 128.562 263.621C128.647 263.443 128.719 263.27 128.787 263.092C127.173 263.892 125.482 264.547 123.733 265.051C122.144 265.508 121.471 263.042 123.051 262.585C125.3 261.937 127.44 261.02 129.43 259.848C129.456 259.615 129.477 259.382 129.502 259.146C129.689 257.394 130.485 255.656 131.04 253.998C131.091 253.849 131.142 253.697 131.188 253.549C129.807 254.285 128.363 254.92 126.863 255.444C125.305 255.99 124.639 253.52 126.181 252.978C128.405 252.2 130.498 251.146 132.43 249.835C132.48 249.683 132.531 249.531 132.582 249.378L132.722 248.964C133.552 248.384 134.361 247.771 135.149 247.132C135.522 246.827 135.89 246.514 136.255 246.197C136.509 245.973 136.763 245.749 137.013 245.516C137.182 245.36 137.352 245.203 137.517 245.047C137.966 244.619 138.407 244.179 138.843 243.731C139.504 243.054 140.148 242.352 140.766 241.624C142.621 239.437 144.244 237.026 145.354 234.442C145.769 233.477 146.095 232.475 146.311 231.459C146.349 231.273 146.387 231.083 146.421 230.897C146.561 230.089 146.625 229.277 146.608 228.469C146.595 227.779 146.523 227.094 146.375 226.417C146.091 225.089 145.536 223.811 144.659 222.64C142.401 219.641 138.631 217.864 134.87 218.38C134.569 218.422 134.268 218.477 133.971 218.541C133.078 218.735 132.201 219.027 131.349 219.391C130.515 219.746 129.702 220.169 128.909 220.643L125.508 223.211L124.665 182.898C123.004 179.708 120.802 176.798 118.027 174.319C115.32 171.904 111.741 169.649 107.945 170.097C104.412 170.516 101.917 173.38 101.235 176.76C100.431 180.732 102.019 184.552 103.798 188.029C105.336 191.036 106.996 193.985 108.674 196.921C109.127 197.716 109.585 198.507 110.038 199.302C112.156 202.991 114.282 206.692 116.231 210.474C118.705 215.271 120.899 220.199 122.437 225.393C122 225.749 121.568 226.113 121.136 226.481C120.145 227.331 119.179 228.219 118.256 229.15C116.413 231.007 114.753 233.042 113.482 235.305C108.619 243.968 109.034 254.607 110.22 264.146C110.868 269.366 113.223 273.921 115.591 278.553C117.599 282.475 119.865 286.303 122.839 289.56C124.055 288.799 125.313 288.088 126.554 287.394C127.592 286.815 128.638 286.261 129.693 285.719L129.71 285.723ZM124.665 224.793C124.699 224.738 124.712 224.687 124.712 224.636C124.779 224.602 124.851 224.573 124.923 224.556C126.567 222.61 129.058 221.07 131.387 220.009C132.307 219.59 133.196 219.247 134.005 218.985C134.031 218.976 134.06 218.964 134.09 218.955C135.162 218.613 136.098 219.903 135.535 220.833C134.967 221.768 134.526 222.729 134.2 223.714C133.599 225.525 133.387 227.424 133.51 229.416C133.586 230.652 133.361 231.641 132.345 232.432C132.205 232.538 132.061 232.64 131.913 232.737C130.9 233.393 129.659 233.816 128.592 234.323C127.533 234.822 126.118 235.838 124.872 235.516C122.64 232.297 122.555 228.152 124.665 224.793Z" fill="#FFA995"/>
<path d="M284.241 356.853C283.881 355.19 283.542 353.528 283.216 351.857C278.535 356.133 272.99 359.437 266.92 361.497C265.352 362.03 264.687 359.56 266.238 359.031C272.528 356.895 278.251 353.299 282.923 348.625C284.126 344.691 284.588 340.541 284.787 336.421C285.105 329.898 285.177 323.413 285.867 316.912C286.562 310.38 287.528 303.883 288.24 297.356C288.951 290.808 289.409 284.209 289.04 277.622C288.667 271.002 287.109 264.627 285.91 258.13C283.809 246.713 285.821 234.209 280.704 223.464C279.242 220.393 277.133 217.715 275.049 215.046C272.964 212.386 271.012 209.666 269.415 206.675C269.381 206.611 269.347 206.544 269.313 206.48C268.889 205.677 268.491 204.86 268.114 204.031C268.021 203.824 267.924 203.612 267.835 203.401C267.331 203.608 266.687 203.481 266.242 202.906C264.111 200.148 262.662 196.924 261.963 193.54C261.913 193.287 261.862 193.028 261.819 192.77C261.794 192.711 261.769 192.644 261.747 192.576C261.459 191.531 261.337 190.49 261.358 189.458C261.273 188.578 261.239 187.694 261.269 186.802C261.29 186.15 261.4 185.38 261.735 184.826C256.762 184.259 252.729 187.386 249.963 191.51C249.476 192.233 249.031 192.99 248.624 193.765C247.502 195.901 246.693 198.155 246.235 200.228C245.795 202.225 245.54 204.276 245.447 206.349C245.146 213.261 246.697 220.423 249.467 226.59C249.755 227.229 250.069 227.859 250.403 228.473C250.513 228.676 250.628 228.883 250.746 229.086C250.903 228.942 251.386 228.291 251.721 227.834C255.482 232.914 261.281 236.671 267.724 236.755C269.372 236.776 269.372 239.336 267.724 239.31C261.002 239.221 254.94 235.677 250.691 230.634C249.908 238.76 249.493 246.92 249.45 255.076C249.425 259.577 249.518 264.082 249.713 268.578C249.861 271.92 250.069 275.262 250.34 278.595C250.361 278.87 250.382 279.145 250.403 279.42C250.382 279.446 250.357 279.467 250.336 279.492C247.078 282.914 244.566 287.017 242.999 291.472C242.372 291.929 241.749 292.394 241.139 292.876C239.559 294.128 238.055 295.473 236.624 296.891C236.31 297.204 235.997 297.512 235.687 297.83C235.319 298.21 234.959 298.6 234.603 298.993C232.667 301.125 230.892 303.413 229.316 305.833C229.003 306.315 228.694 306.798 228.393 307.292C228.173 307.225 227.952 307.153 227.732 307.072C227.707 307.064 227.686 307.056 227.66 307.051C227.334 306.95 227.05 306.979 226.821 307.102C226.275 307.144 225.728 307.182 225.182 307.225C225.445 307.694 225.716 308.16 225.995 308.616C226.55 309.526 227.148 310.41 227.77 311.273C231.638 316.603 236.763 320.926 242.745 323.836C244.227 324.56 242.927 326.759 241.453 326.045C233.777 322.309 227.351 316.252 223.149 308.841C222.933 308.46 222.721 308.075 222.518 307.686C222.471 307.601 222.437 307.517 222.412 307.432C221.234 307.521 220.056 307.605 218.879 307.694C207.395 308.54 195.911 309.331 184.419 310.067C181.86 310.232 179.302 310.397 176.739 310.554C172.901 310.791 169.063 311.028 165.225 311.252C164.098 311.32 162.972 311.383 161.845 311.446C160.621 311.518 159.396 311.59 158.172 311.658C156.452 311.755 154.737 311.848 153.017 311.946C152.92 315.347 152.221 318.705 150.916 321.865C150.297 323.367 147.824 322.707 148.446 321.184C149.649 318.257 150.323 315.211 150.446 312.081C148.518 312.187 146.587 312.288 144.659 312.39C144.308 312.407 143.956 312.428 143.605 312.445C140.605 316.51 136.564 319.615 131.845 321.531C130.316 322.149 129.659 319.678 131.163 319.065C134.641 317.656 137.725 315.427 140.182 312.627C140.118 312.627 140.055 312.635 139.991 312.635C139.995 312.474 139.991 312.314 139.991 312.149C139.978 311.789 139.94 311.438 139.877 311.087C136.801 311.561 133.654 311.484 130.536 310.829C128.922 310.49 129.609 308.028 131.218 308.363C133.908 308.925 136.67 309.006 139.368 308.612C140.893 308.028 142.414 307.436 143.926 306.823C144.655 306.527 145.379 306.222 146.1 305.905C147.408 305.325 148.696 304.699 149.937 303.997C150.81 303.502 151.653 302.965 152.471 302.386C152.97 302.03 153.462 301.666 153.936 301.273C154.288 300.981 154.631 300.677 154.97 300.359C155.063 300.27 155.16 300.186 155.254 300.097C155.419 299.936 155.576 299.771 155.736 299.606C156.058 299.272 156.376 298.925 156.673 298.57C156.956 298.232 157.228 297.88 157.486 297.525C159.134 295.254 160.256 292.618 160.46 289.784C160.608 287.724 160.244 285.605 159.384 283.726C158.969 282.821 158.443 281.971 157.804 281.205C157.702 281.083 157.592 280.964 157.486 280.846C157.469 280.829 157.452 280.808 157.435 280.787C157.105 280.435 156.753 280.105 156.372 279.801C156.05 279.543 155.69 279.471 155.355 279.513C155.22 279.53 155.088 279.577 154.966 279.632C154.919 279.653 154.868 279.67 154.822 279.699C154.284 279.649 153.75 279.636 153.216 279.657C150.598 279.75 148.006 280.605 145.498 281.294C144.185 281.654 142.876 282.034 141.58 282.441C139.932 282.952 138.297 283.506 136.687 284.128C136.526 284.188 136.369 284.247 136.208 284.31C135.662 284.526 135.116 284.75 134.573 284.983C134.417 285.051 134.26 285.114 134.107 285.182C132.612 285.833 131.142 286.544 129.715 287.331L124.22 290.935C122.962 291.924 121.772 293.003 120.671 294.183C120.522 294.34 120.383 294.501 120.234 294.661C116.557 298.752 113.906 303.811 113.304 309.323C112.669 315.135 114.753 320.803 118.121 325.473C121.543 330.215 125.978 334.086 130.469 337.783C136.268 342.555 142.08 347.309 147.887 352.068C159.494 361.586 171.096 371.108 182.703 380.626C188.295 385.211 194.708 390.461 201.668 393.655C207.564 393.265 213.376 391.891 218.819 389.509C220.315 388.853 221.615 391.057 220.111 391.717C215.121 393.9 209.86 395.334 204.489 395.964C207.386 411.459 212.224 426.565 218.887 440.854C220.383 444.061 222.026 447.225 224.36 449.911C226.559 452.436 229.367 454.285 232.451 455.545C239.013 458.232 246.51 458.282 253.462 457.631C261.332 456.895 269.038 454.987 276.514 452.457C283.199 450.199 290.54 447.834 296.021 443.227C301.257 438.832 303.599 432.17 303.76 425.482C303.947 417.809 301.274 410.465 298.52 403.426C292.59 388.244 287.672 372.758 284.232 356.819L284.241 356.853ZM143.893 284.344C146.544 282.369 149.548 280.918 152.708 279.962C153.572 279.699 154.245 280.402 154.326 281.193C154.491 282.809 154.656 284.42 154.817 286.036C154.843 286.273 154.864 286.51 154.889 286.747C154.889 286.772 154.894 286.798 154.898 286.823C154.923 287.077 154.949 287.331 154.974 287.584C155.11 288.9 155.389 290.347 154.584 291.408C154.449 291.59 154.284 291.759 154.076 291.916C152.822 292.864 150.848 293.202 149.336 293.464C147.565 293.773 145.667 293.98 143.88 293.697C142.418 293.464 140.94 292.61 140.491 291.112C140.402 290.816 140.36 290.524 140.36 290.232C139.856 287.732 141.897 285.825 143.888 284.344H143.893ZM164.81 340.372C163.679 343.528 162.035 346.383 159.879 348.951C158.82 350.211 157.016 348.397 158.071 347.144C159.93 344.932 161.37 342.411 162.345 339.695C162.895 338.155 165.369 338.824 164.814 340.376L164.81 340.372Z" fill="#FFA995"/>
<path d="M135.162 247.132C135.196 247.915 135.226 248.702 135.26 249.484C135.569 248.38 135.908 247.284 136.268 246.197C135.903 246.515 135.535 246.828 135.162 247.132Z" fill="#F9F2F1"/>
<path d="M190.95 126.32C195.241 127.009 199.664 128.494 203.413 130.719C204.908 131.608 206.297 132.699 207.454 133.981C207.623 134.014 207.788 134.108 207.937 134.277C210.716 137.492 212.944 141.1 214.562 145.03C214.795 145.601 215.011 146.172 215.214 146.751C215.528 147.635 215.807 148.528 216.053 149.425C219.349 146.823 221.085 142.466 220.827 138.278C220.488 132.834 217.082 128.084 212.821 124.89C210.478 123.135 207.848 121.789 205.09 120.715C204.294 120.406 203.485 120.114 202.671 119.848C202.637 119.835 202.608 119.827 202.574 119.814C201.765 119.547 200.947 119.302 200.13 119.069C198.554 118.625 196.97 118.24 195.407 117.893C189.506 116.582 182.868 116.045 177.361 119.031C172.833 121.485 169.452 126.121 169.529 131.269C170.38 130.694 171.253 130.161 172.146 129.674C177.865 126.548 184.397 125.262 190.95 126.316V126.32Z" fill="#F9F2F1"/>
<path d="M218.285 305.495C218.442 304.01 219.513 303.012 220.649 302.17C221.903 301.239 223.228 300.406 224.592 299.649C224.648 299.619 224.707 299.59 224.762 299.56C225.579 299.116 226.405 298.71 227.244 298.337C227.545 298.202 227.846 298.079 228.151 297.952C228.655 297.741 229.163 297.538 229.676 297.339C229.388 296.802 229.218 296.193 229.189 295.55C229.095 293.477 231.018 291.717 233.026 291.717C234.784 291.717 236.17 292.893 236.669 294.454C238.283 293.43 239.584 292.064 240.494 290.148C240.783 289.539 241.024 288.913 241.223 288.274C241.223 288.147 241.223 288.024 241.223 287.897C241.223 287.403 241.223 286.912 241.223 286.417C241.223 285.964 241.223 285.512 241.219 285.055C241.219 284.535 241.215 284.014 241.21 283.494C241.21 283.05 241.202 282.606 241.198 282.161C241.185 280.812 241.168 279.458 241.155 278.109C241.147 277.115 241.134 276.121 241.13 275.127C241.088 268.325 241.041 261.523 240.999 254.721C240.639 254.56 240.321 254.336 240.041 254.04C239.668 253.693 239.402 253.282 239.249 252.804C239.008 252.348 238.898 251.857 238.919 251.328V251.074C238.919 250.381 239.097 249.738 239.444 249.141C239.643 248.883 239.842 248.625 240.045 248.367C240.321 248.096 240.626 247.876 240.956 247.699C240.948 246.679 240.944 245.66 240.935 244.645C240.935 244.344 240.935 244.044 240.931 243.744C240.927 242.775 240.918 241.806 240.914 240.837C240.914 240.833 240.914 240.825 240.914 240.82C240.901 239.09 240.893 237.356 240.88 235.626C238.304 231.341 235.339 227.284 232.022 223.515C231.891 223.363 231.756 223.215 231.62 223.067C231.489 223.27 231.328 223.46 231.141 223.634L230.887 223.887C230.409 224.361 229.845 224.691 229.193 224.873L228.172 225.008C227.477 225.008 226.833 224.831 226.232 224.484C225.973 224.285 225.715 224.086 225.457 223.883C225.084 223.536 224.817 223.126 224.664 222.648C224.423 222.191 224.313 221.7 224.334 221.172C224.313 220.643 224.423 220.152 224.664 219.695C224.821 219.221 225.084 218.807 225.457 218.46C225.541 218.375 225.626 218.291 225.711 218.206C225.91 218.007 226.126 217.842 226.359 217.694C225.821 217.191 225.274 216.696 224.72 216.205C224.156 215.706 223.584 215.216 223.008 214.733C222.665 214.45 222.318 214.167 221.975 213.887C221.869 213.803 221.763 213.718 221.657 213.634C221.411 213.435 221.161 213.24 220.911 213.046C220.793 212.952 220.678 212.864 220.56 212.771C220.306 212.572 220.047 212.377 219.793 212.187C219.691 212.111 219.59 212.03 219.488 211.954C219.136 211.692 218.785 211.43 218.429 211.176C218.425 211.176 218.421 211.167 218.416 211.163C218.039 210.892 217.658 210.622 217.277 210.355C217.218 210.313 217.154 210.271 217.095 210.228C216.781 210.008 216.468 209.793 216.15 209.581C216.061 209.522 215.972 209.463 215.883 209.403C215.578 209.2 215.273 208.997 214.968 208.798C214.888 208.748 214.811 208.697 214.731 208.646C214.354 208.401 213.973 208.16 213.591 207.923C211.41 210.317 208.923 212.419 206.17 214.171C199.354 218.498 191.107 220.533 183.067 219.615C175.353 218.735 168.046 215.461 162.327 210.232C162.285 210.266 162.238 210.3 162.196 210.33C161.751 210.664 161.306 211.007 160.87 211.349C160.764 211.434 160.658 211.514 160.552 211.599C160.035 212.013 159.519 212.428 159.01 212.855C158.989 212.872 158.968 212.893 158.947 212.91C158.595 213.206 158.248 213.507 157.9 213.807C157.883 213.824 157.862 213.841 157.845 213.853C157.159 214.454 156.486 215.063 155.825 215.689C155.804 215.706 155.787 215.723 155.765 215.744C155.486 216.007 155.21 216.273 154.935 216.54C154.859 216.616 154.783 216.692 154.706 216.764C155.033 217.094 155.274 217.47 155.414 217.91C155.655 218.367 155.765 218.858 155.744 219.386V219.64C155.744 220.334 155.566 220.977 155.219 221.573C155.02 221.831 154.821 222.09 154.617 222.348C154.139 222.821 153.575 223.151 152.923 223.333C152.584 223.38 152.241 223.426 151.902 223.469C151.373 223.49 150.881 223.38 150.424 223.139C150.038 223.016 149.699 222.813 149.399 222.546C149.229 222.749 149.06 222.952 148.895 223.155C148.784 223.291 148.679 223.426 148.573 223.562C148.302 223.9 148.035 224.243 147.772 224.59C147.666 224.729 147.56 224.869 147.454 225.008C147.103 225.474 146.755 225.943 146.412 226.417C146.556 227.09 146.628 227.775 146.645 228.469C146.662 229.276 146.599 230.089 146.459 230.897C146.425 231.087 146.387 231.273 146.349 231.459C146.133 232.474 145.806 233.477 145.391 234.441C144.282 237.026 142.659 239.437 140.804 241.624C140.185 242.352 139.541 243.054 138.881 243.731C138.444 244.179 138.004 244.623 137.555 245.046C137.389 245.203 137.22 245.359 137.051 245.516C136.801 245.744 136.547 245.973 136.292 246.197C135.932 247.284 135.593 248.38 135.284 249.484C135.373 251.688 135.466 253.892 135.555 256.095L135.725 260.22L136.203 271.806C136.309 274.353 136.373 276.908 136.47 279.463C136.902 279.293 137.36 279.192 137.826 279.192C139.787 279.192 141.278 280.651 141.6 282.483C142.901 282.077 144.21 281.696 145.518 281.337C148.026 280.647 150.619 279.793 153.236 279.7C153.77 279.678 154.308 279.691 154.842 279.742C154.889 279.716 154.939 279.695 154.986 279.674C155.109 279.619 155.24 279.573 155.376 279.556C155.71 279.509 156.07 279.585 156.392 279.843C156.774 280.148 157.129 280.478 157.456 280.829C157.473 280.846 157.489 280.867 157.506 280.888C157.617 281.007 157.722 281.125 157.824 281.248C158.464 282.009 158.993 282.859 159.404 283.769C160.264 285.647 160.628 287.766 160.48 289.826C160.277 292.661 159.154 295.296 157.506 297.568C157.248 297.923 156.977 298.274 156.693 298.612C156.392 298.972 156.079 299.315 155.757 299.649C155.596 299.814 155.439 299.983 155.274 300.139C155.181 300.228 155.083 300.313 154.99 300.402C154.651 300.715 154.308 301.024 153.957 301.315C153.482 301.709 152.991 302.073 152.491 302.428C151.673 303.007 150.83 303.545 149.958 304.04C150.661 304.09 151.381 304.086 152.127 304.027C152.165 304.027 152.203 304.023 152.245 304.018C152.754 303.972 153.275 303.917 153.796 303.858C154.135 303.82 154.473 303.786 154.817 303.752C154.893 303.743 154.969 303.739 155.045 303.731C155.486 303.689 155.931 303.65 156.371 303.625C156.786 303.6 157.197 303.591 157.604 303.591C159.942 303.6 162.153 304.112 163.822 306.062C165.08 307.534 165.767 309.577 165.25 311.286C169.088 311.062 172.926 310.825 176.763 310.588C176.628 310.275 176.547 309.945 176.535 309.598C176.42 309.09 176.441 308.579 176.602 308.071C176.721 307.572 176.95 307.136 177.289 306.768C177.56 306.349 177.92 306.024 178.365 305.782C178.534 305.698 178.704 305.609 178.873 305.524C179.47 305.178 180.118 305.004 180.809 305C181.148 305.046 181.491 305.093 181.83 305.135C182.482 305.317 183.045 305.647 183.524 306.121C183.723 306.379 183.922 306.637 184.126 306.895C184.405 307.335 184.558 307.809 184.583 308.32C184.697 308.828 184.676 309.34 184.515 309.848C184.494 309.932 184.465 310.017 184.439 310.097C195.927 309.361 207.415 308.574 218.899 307.724C218.425 307.111 218.217 306.315 218.306 305.503L218.285 305.495ZM225.677 262.377C225.834 261.903 226.096 261.489 226.469 261.142C226.816 260.77 227.227 260.503 227.706 260.351C228.163 260.11 228.655 260 229.184 260.021H229.438C230.133 260.021 230.777 260.199 231.379 260.546C231.637 260.744 231.895 260.943 232.154 261.146C232.628 261.624 232.959 262.187 233.141 262.838C233.187 263.177 233.234 263.519 233.276 263.858C233.297 264.386 233.187 264.877 232.946 265.334C232.789 265.808 232.527 266.222 232.154 266.569C231.806 266.941 231.396 267.208 230.917 267.36C230.459 267.601 229.968 267.711 229.438 267.69H229.184C228.49 267.69 227.846 267.513 227.248 267.166C226.99 266.967 226.732 266.768 226.473 266.565C225.999 266.087 225.668 265.524 225.486 264.873C225.44 264.535 225.393 264.192 225.351 263.853C225.33 263.325 225.44 262.834 225.681 262.377H225.677ZM147.967 260.474C147.81 260.947 147.547 261.362 147.175 261.709C146.827 262.081 146.416 262.348 145.938 262.5C145.48 262.741 144.989 262.851 144.459 262.83H143.693C142.998 262.83 142.354 262.652 141.757 262.305C141.498 262.106 141.24 261.908 140.982 261.705C140.507 261.227 140.177 260.664 139.995 260.013C139.948 259.674 139.901 259.331 139.859 258.993C139.838 258.464 139.948 257.974 140.19 257.517C140.346 257.043 140.609 256.628 140.982 256.282C141.329 255.909 141.74 255.643 142.219 255.491C142.676 255.249 143.167 255.139 143.697 255.161H144.464C145.158 255.161 145.802 255.338 146.404 255.685C146.662 255.884 146.921 256.083 147.179 256.286C147.653 256.764 147.984 257.326 148.166 257.978C148.213 258.316 148.259 258.659 148.302 258.997C148.323 259.526 148.213 260.017 147.971 260.474H147.967ZM174.408 275.867C174.408 276.561 174.23 277.204 173.883 277.8C173.684 278.058 173.485 278.316 173.281 278.574C172.803 279.048 172.239 279.378 171.587 279.56C171.248 279.606 170.905 279.653 170.566 279.695C170.037 279.716 169.545 279.606 169.088 279.365C168.613 279.209 168.198 278.947 167.851 278.574C167.478 278.227 167.211 277.817 167.059 277.339C166.817 276.882 166.707 276.392 166.728 275.863V275.609C166.728 274.915 166.906 274.272 167.254 273.672C167.453 273.414 167.652 273.156 167.855 272.897C168.334 272.424 168.897 272.094 169.549 271.912C169.888 271.865 170.231 271.819 170.57 271.776C171.1 271.755 171.591 271.865 172.049 272.106C172.523 272.263 172.938 272.525 173.286 272.897C173.658 273.244 173.925 273.655 174.078 274.133C174.319 274.59 174.429 275.08 174.408 275.609V275.863V275.867ZM173.129 244.171C170.977 244.171 169.384 242.415 169.291 240.338C169.198 238.265 171.121 236.506 173.129 236.506C175.281 236.506 176.874 238.261 176.967 240.338C177.06 242.411 175.137 244.171 173.129 244.171ZM205.64 221.76C207.792 221.76 209.385 223.515 209.478 225.592C209.571 227.665 207.648 229.425 205.64 229.425C203.489 229.425 201.896 227.669 201.803 225.592C201.709 223.519 203.633 221.76 205.64 221.76ZM201.798 291.971C199.646 291.971 198.054 290.216 197.961 288.139C197.867 286.066 199.79 284.306 201.798 284.306C203.95 284.306 205.543 286.062 205.636 288.139C205.729 290.211 203.806 291.971 201.798 291.971ZM211.16 251.328C211.16 252.022 210.982 252.665 210.635 253.261C210.436 253.519 210.237 253.777 210.033 254.035C209.555 254.509 208.991 254.839 208.339 255.021C208 255.068 207.657 255.114 207.318 255.156C206.788 255.178 206.297 255.068 205.84 254.826C205.365 254.67 204.95 254.408 204.603 254.035C204.23 253.688 203.963 253.278 203.81 252.8C203.569 252.343 203.459 251.853 203.48 251.324V251.07C203.48 250.376 203.658 249.733 204.005 249.137C204.204 248.879 204.404 248.621 204.607 248.363C205.086 247.889 205.649 247.559 206.301 247.377C206.64 247.331 206.983 247.284 207.322 247.242C207.852 247.221 208.343 247.331 208.801 247.572C209.275 247.728 209.69 247.991 210.037 248.363C210.41 248.71 210.677 249.12 210.83 249.598C211.071 250.055 211.181 250.546 211.16 251.074V251.328Z" fill="#FFC460"/>
<path d="M147.752 224.59C148.014 224.243 148.285 223.904 148.552 223.562C148.658 223.426 148.764 223.291 148.874 223.156C149.039 222.948 149.209 222.749 149.378 222.546C149.679 222.813 150.018 223.012 150.403 223.139C150.861 223.38 151.352 223.49 151.882 223.469C152.221 223.422 152.564 223.375 152.903 223.333C153.555 223.151 154.118 222.821 154.597 222.348C154.796 222.09 154.995 221.831 155.198 221.573C155.546 220.977 155.719 220.33 155.724 219.64V219.386C155.745 218.858 155.635 218.367 155.393 217.91C155.249 217.474 155.012 217.094 154.686 216.764C154.762 216.688 154.838 216.612 154.915 216.54C155.19 216.273 155.465 216.007 155.745 215.744C155.766 215.727 155.783 215.711 155.804 215.689C156.465 215.068 157.139 214.454 157.825 213.853C157.842 213.837 157.863 213.82 157.88 213.807C158.227 213.507 158.575 213.206 158.926 212.91C158.947 212.893 158.969 212.872 158.99 212.855C159.498 212.428 160.011 212.009 160.532 211.599C160.638 211.514 160.743 211.434 160.849 211.349C161.286 211.002 161.73 210.664 162.175 210.33C162.218 210.296 162.264 210.262 162.307 210.232C168.025 215.461 175.332 218.735 183.046 219.615C191.086 220.533 199.334 218.498 206.149 214.171C208.907 212.419 211.389 210.317 213.571 207.923C213.952 208.16 214.333 208.401 214.71 208.646C214.791 208.697 214.867 208.748 214.948 208.798C215.253 208.997 215.562 209.2 215.863 209.403C215.952 209.463 216.041 209.522 216.13 209.581C216.447 209.793 216.761 210.013 217.074 210.228C217.133 210.271 217.197 210.313 217.256 210.355C217.638 210.622 218.019 210.892 218.396 211.163C218.4 211.163 218.404 211.172 218.409 211.176C218.764 211.434 219.116 211.692 219.468 211.954C219.569 212.03 219.671 212.106 219.773 212.187C220.031 212.381 220.285 212.576 220.539 212.771C220.658 212.859 220.776 212.952 220.891 213.046C221.141 213.24 221.391 213.439 221.636 213.634C221.742 213.718 221.848 213.803 221.954 213.887C222.301 214.167 222.649 214.45 222.988 214.733C223.568 215.216 224.136 215.706 224.699 216.205C225.25 216.696 225.796 217.191 226.338 217.694C226.11 217.842 225.894 218.007 225.69 218.206C225.606 218.291 225.521 218.375 225.436 218.46C225.063 218.807 224.796 219.217 224.644 219.695C224.403 220.152 224.292 220.643 224.314 221.172C224.292 221.7 224.403 222.191 224.644 222.648C224.801 223.122 225.063 223.536 225.436 223.883C225.695 224.082 225.953 224.281 226.211 224.484C226.809 224.831 227.457 225.004 228.151 225.008L229.172 224.873C229.825 224.691 230.388 224.361 230.867 223.887L231.121 223.634C231.307 223.46 231.464 223.274 231.6 223.067C231.735 223.215 231.871 223.367 232.002 223.515C235.319 227.284 238.284 231.341 240.859 235.626C240.771 221.785 240.677 207.944 240.588 194.103C232.887 193.959 225.186 193.811 217.489 193.667C217.163 193.663 216.905 193.557 216.71 193.392C216.18 193.409 215.634 193.147 215.409 192.521C214.147 189.035 215.278 184.89 218.209 182.589C220.416 180.854 223.403 180.385 226.059 181.134C225.313 177.639 225.758 173.769 228.397 171.205C230.735 168.93 234.336 168.134 237.225 169.484C237.932 167.995 239.051 166.772 240.41 165.918C240.305 150.013 240.203 134.107 240.097 118.202C240.029 107.716 239.961 97.2249 239.889 86.7384C239.889 86.5481 239.889 86.3577 239.889 86.1674C239.889 85.9559 239.889 85.7444 239.889 85.5286C239.889 85.5202 239.889 85.5117 239.889 85.5032C239.889 85.3214 239.889 85.1352 239.885 84.9491C239.885 84.9237 239.885 84.8983 239.885 84.873C239.885 84.6826 239.881 84.488 239.877 84.2977C239.877 84.2765 239.877 84.2511 239.877 84.23C239.873 84.0396 239.868 83.8493 239.86 83.6547C239.86 83.6462 239.86 83.642 239.86 83.6335C239.851 83.4347 239.843 83.2401 239.834 83.0413C239.834 83.0159 239.834 82.9948 239.834 82.9694C239.813 82.5718 239.784 82.1741 239.741 81.7807C239.741 81.7596 239.737 81.7342 239.733 81.7131C239.69 81.3154 239.64 80.9178 239.572 80.5244C239.572 80.5075 239.568 80.4948 239.563 80.4779C239.529 80.2833 239.491 80.0887 239.453 79.8941C239.453 79.8814 239.449 79.8687 239.445 79.8518C239.402 79.6572 239.36 79.4669 239.309 79.2723C239.309 79.2723 239.309 79.2723 239.309 79.2681C239.258 79.0777 239.203 78.8873 239.144 78.7012C239.14 78.6801 239.131 78.6631 239.127 78.642C239.008 78.2697 238.873 77.906 238.716 77.5506C238.708 77.5295 238.699 77.5083 238.691 77.4914C238.623 77.3391 238.547 77.1868 238.47 77.0388C238.458 77.0134 238.445 76.988 238.428 76.9626C230.367 76.7427 222.301 76.5862 214.236 76.51C186.291 76.2477 158.342 76.878 130.435 78.3797C130.324 78.5785 130.219 78.7816 130.121 78.9889C130.117 79.0016 130.113 79.0142 130.104 79.0227C130.015 79.2173 129.931 79.4161 129.85 79.6192C129.842 79.6403 129.833 79.6657 129.825 79.6868C129.753 79.8772 129.685 80.0718 129.621 80.2706C129.613 80.3044 129.6 80.334 129.592 80.3679C129.537 80.554 129.482 80.7444 129.435 80.9347C129.422 80.977 129.414 81.0193 129.401 81.0616C129.359 81.2435 129.316 81.4254 129.282 81.6115C129.274 81.6623 129.261 81.7173 129.253 81.7681C129.219 81.9457 129.193 82.1234 129.164 82.301C129.155 82.3603 129.143 82.4195 129.138 82.4787C129.113 82.6564 129.096 82.8383 129.075 83.0202C129.071 83.0794 129.062 83.1386 129.054 83.1978C129.033 83.4347 129.016 83.6758 129.003 83.9127C128.816 87.4279 128.884 90.9813 128.999 94.5261C128.973 96.2689 129.024 97.9948 129.088 99.6361C129.905 120.461 130.803 141.282 131.663 162.102C131.955 169.222 132.252 176.341 132.544 183.46C133.692 182.678 135.09 182.263 136.53 182.411C139.102 182.678 141.139 184.661 141.77 187.068C144.477 186.497 147.4 187.318 149.221 189.543C150.696 191.341 151.115 193.638 150.653 195.787C153.089 195.093 155.703 195.131 158.066 196.222C161.091 197.623 163.183 200.736 163.145 204.078C163.141 204.611 162.756 205.199 162.205 205.309C152.775 207.233 143.211 208.452 133.599 208.947L133.993 218.549C134.289 218.485 134.59 218.426 134.891 218.388C138.653 217.872 142.423 219.649 144.68 222.648C145.561 223.815 146.112 225.097 146.396 226.425C146.735 225.952 147.086 225.482 147.438 225.017C147.544 224.877 147.65 224.738 147.756 224.598L147.752 224.59ZM204.485 95.9474C210.758 95.7655 217.032 95.5836 223.301 95.4017C224.953 95.3552 224.945 99.5642 223.301 99.6107C217.028 99.7926 210.754 99.9745 204.485 100.156C202.833 100.203 202.841 95.9939 204.485 95.9474ZM147.286 88.2782L193.615 87.4787C195.267 87.4491 195.263 91.7173 193.615 91.7469L147.286 92.5464C145.634 92.576 145.638 88.3078 147.286 88.2782ZM147.277 101.366C145.625 101.396 145.629 97.1276 147.277 97.098L193.607 96.2985C195.259 96.2689 195.254 100.537 193.607 100.567L147.277 101.366ZM159.252 187.542C155.567 185.309 153.267 181.324 152.293 177.216C151.25 172.809 151.479 168.151 152 163.684C152.496 159.395 153.39 155.148 154.834 151.074C157.533 143.473 162.112 136.62 168.694 131.857C168.97 131.658 169.249 131.463 169.529 131.273C169.457 126.121 172.833 121.489 177.361 119.035C182.868 116.049 189.506 116.586 195.407 117.897C196.97 118.244 198.554 118.629 200.13 119.073C200.227 118.519 200.435 117.995 200.816 117.529C201.515 116.679 202.659 116.197 203.739 116.54C204.832 116.882 205.493 117.986 205.506 119.099C205.51 119.691 205.345 120.224 205.086 120.719C207.844 121.793 210.479 123.139 212.817 124.894C217.074 128.088 220.484 132.834 220.823 138.282C221.081 142.474 219.349 146.827 216.049 149.429C219.645 162.572 215.922 176.988 206.217 186.81C205.539 187.5 204.366 186.793 204.612 185.88C204.845 185.013 204.866 184.171 204.692 183.359C203.358 185.702 201.63 187.792 199.562 189.551C199.27 189.801 198.936 189.839 198.643 189.75C198.872 192.343 199.274 194.915 199.846 197.462C199.846 197.462 200.909 197.639 200.63 199.217C202.244 200.237 203.811 201.32 205.336 202.466L211.339 206.573C207.183 210.994 201.82 214.272 195.983 215.964C188.655 218.088 180.75 217.538 173.731 214.577C170.317 213.134 167.174 211.142 164.412 208.689C164.543 208.6 164.674 208.511 164.806 208.422L172.863 202.259L173.765 201.396C174.434 199.463 175.608 199.742 175.608 199.742C175.963 195.385 176.04 191.011 175.836 186.65C174.155 186.806 172.494 186.548 170.973 185.939C171.499 186.341 171.355 187.153 170.838 187.508C167.407 189.852 162.747 189.67 159.248 187.551L159.252 187.542Z" fill="#F9F2F1"/>
<path d="M202.676 119.852C203.489 120.118 204.298 120.41 205.095 120.719C205.353 120.224 205.518 119.691 205.514 119.099C205.506 117.986 204.841 116.886 203.748 116.539C202.663 116.197 201.52 116.683 200.825 117.529C200.444 117.995 200.236 118.519 200.139 119.073C200.956 119.302 201.774 119.551 202.583 119.818C202.617 119.826 202.646 119.839 202.68 119.852H202.676Z" fill="#F9F2F1"/>
<path d="M128.918 220.643C129.71 220.169 130.528 219.75 131.358 219.391C132.214 219.027 133.086 218.731 133.98 218.541L133.586 208.938C133.552 208.088 133.514 207.238 133.48 206.387C133.214 199.941 132.951 193.494 132.684 187.043C132.633 185.846 132.587 184.645 132.536 183.447C132.243 176.328 131.947 169.209 131.655 162.09C130.795 141.269 129.897 120.444 129.079 99.6234C129.016 97.9821 128.961 96.2563 128.99 94.5134C128.876 90.9728 128.808 87.4153 128.994 83.9001C129.007 83.659 129.024 83.4221 129.045 83.1852C129.05 83.126 129.058 83.0667 129.066 83.0075C129.083 82.8256 129.105 82.648 129.13 82.4661C129.138 82.4068 129.147 82.3476 129.155 82.2884C129.181 82.1107 129.21 81.9288 129.244 81.7554C129.253 81.7046 129.266 81.6497 129.274 81.5989C129.312 81.4128 129.35 81.2309 129.393 81.049C129.401 81.0067 129.414 80.9644 129.427 80.9221C129.473 80.7317 129.528 80.5414 129.583 80.3552C129.592 80.3214 129.604 80.2918 129.613 80.2579C129.676 80.0591 129.74 79.8645 129.816 79.6742C129.825 79.653 129.833 79.6277 129.842 79.6065C129.918 79.4035 130.003 79.2046 130.096 79.0101C130.1 78.9974 130.104 78.9847 130.113 78.9762C130.21 78.7689 130.312 78.5659 130.426 78.3671C158.333 76.8654 186.283 76.2351 214.228 76.4974C222.293 76.5735 230.358 76.7258 238.42 76.95C238.432 76.9754 238.445 77.0008 238.462 77.0261C238.538 77.1742 238.614 77.3265 238.682 77.4788C238.691 77.4999 238.699 77.5211 238.708 77.538C238.864 77.8933 239.004 78.2571 239.119 78.6294C239.123 78.6505 239.131 78.6674 239.136 78.6886C239.195 78.8747 239.25 79.0651 239.301 79.2554C239.301 79.2554 239.301 79.2554 239.301 79.2596C239.352 79.45 239.394 79.6446 239.436 79.8392C239.436 79.8519 239.44 79.8645 239.445 79.8815C239.487 80.076 239.521 80.2706 239.555 80.4652C239.555 80.4821 239.559 80.4948 239.563 80.5118C239.631 80.9052 239.682 81.3028 239.724 81.7004C239.724 81.7216 239.729 81.7469 239.733 81.7681C239.771 82.1615 239.805 82.5591 239.826 82.9568C239.826 82.9821 239.826 83.0033 239.826 83.0287C239.834 83.2275 239.847 83.4221 239.851 83.6209C239.851 83.6293 239.851 83.6336 239.851 83.642C239.86 83.8324 239.864 84.027 239.868 84.2173C239.868 84.2385 239.868 84.2639 239.868 84.285C239.868 84.4796 239.877 84.67 239.877 84.8603C239.877 84.8857 239.877 84.9111 239.877 84.9365C239.877 85.1226 239.877 85.3045 239.881 85.4906C239.881 85.4991 239.881 85.5075 239.881 85.516C239.881 85.7317 239.881 85.9432 239.881 86.1547C239.881 86.3451 239.881 86.5397 239.881 86.7258C239.949 97.2123 240.017 107.703 240.089 118.189C240.195 134.095 240.296 150 240.402 165.905C240.411 167.013 240.415 168.118 240.423 169.226C240.449 173.105 240.474 176.988 240.499 180.867C240.521 184.425 240.546 187.978 240.567 191.535C240.572 192.386 240.58 193.24 240.584 194.09C240.673 207.931 240.766 221.772 240.855 235.613C240.868 237.343 240.876 239.078 240.889 240.808C240.889 240.812 240.889 240.821 240.889 240.825C240.898 241.793 240.902 242.762 240.906 243.731C240.906 244.031 240.906 244.332 240.91 244.632C240.919 245.651 240.923 246.671 240.932 247.686C240.949 250.03 240.961 252.369 240.978 254.712C241.025 261.514 241.067 268.316 241.109 275.118C241.118 276.112 241.126 277.107 241.135 278.101C241.148 279.45 241.165 280.804 241.177 282.153C241.181 282.597 241.186 283.041 241.19 283.486C241.19 284.006 241.198 284.526 241.198 285.046C241.198 285.499 241.198 285.952 241.203 286.409C241.203 286.903 241.203 287.394 241.203 287.889C241.203 288.016 241.203 288.139 241.203 288.266C241.004 288.904 240.766 289.53 240.474 290.14C239.563 292.056 238.263 293.422 236.649 294.446C235.692 295.051 234.624 295.541 233.463 295.947C233.086 296.079 232.714 296.214 232.337 296.345C231.752 296.552 231.172 296.764 230.591 296.98C230.371 297.06 230.151 297.14 229.931 297.225C229.837 297.259 229.748 297.297 229.655 297.331C229.143 297.53 228.634 297.733 228.13 297.944C227.83 298.071 227.525 298.194 227.224 298.329C226.385 298.701 225.555 299.103 224.741 299.552C224.686 299.581 224.627 299.611 224.572 299.64C223.208 300.398 221.882 301.235 220.628 302.161C219.493 303.003 218.421 304.002 218.265 305.486C218.18 306.299 218.383 307.094 218.858 307.707C220.035 307.618 221.213 307.534 222.39 307.445C222.416 307.53 222.45 307.614 222.496 307.699C222.7 308.088 222.911 308.473 223.128 308.854C227.334 316.265 233.756 322.322 241.431 326.057C242.906 326.777 244.206 324.573 242.723 323.849C236.742 320.939 231.617 316.616 227.749 311.286C227.126 310.427 226.529 309.543 225.974 308.629C225.695 308.173 225.423 307.707 225.161 307.238C225.707 307.195 226.254 307.157 226.8 307.115C227.029 306.992 227.313 306.963 227.639 307.064C227.664 307.073 227.686 307.077 227.711 307.085C227.931 307.166 228.151 307.238 228.372 307.305C228.668 306.815 228.982 306.328 229.295 305.846C230.875 303.426 232.646 301.138 234.582 299.006C234.938 298.612 235.298 298.223 235.666 297.843C235.971 297.525 236.289 297.212 236.602 296.903C238.034 295.486 239.538 294.141 241.118 292.889C241.728 292.407 242.346 291.942 242.978 291.485C244.545 287.035 247.057 282.927 250.314 279.505C250.314 279.205 250.314 278.909 250.314 278.608C250.043 275.271 249.836 271.933 249.687 268.591C249.488 264.095 249.399 259.59 249.425 255.089C249.471 246.929 249.882 238.773 250.666 230.647C254.915 235.689 260.976 239.23 267.699 239.323C269.347 239.344 269.347 236.789 267.699 236.768C261.256 236.683 255.453 232.927 251.695 227.847C251.361 228.304 250.878 228.955 250.721 229.099C250.607 228.896 250.492 228.693 250.378 228.486C250.043 227.872 249.73 227.242 249.442 226.603C246.671 220.431 245.121 213.274 245.422 206.362C245.511 204.289 245.769 202.238 246.21 200.241C246.667 198.168 247.48 195.914 248.599 193.777C249.005 193.003 249.45 192.25 249.937 191.523L249.84 186.819H249.98L249.45 164.848L247.311 76.4043C247.311 76.4043 247.455 61.9711 231.307 61.4297L190.942 62.1234L189.926 62.1403L178.027 62.3434V62.4068L137.666 63.3079C121.56 64.4881 122.365 78.9001 122.365 78.9001L124.644 182.893L125.487 223.206L128.889 220.639L128.918 220.643Z" fill="#273437"/>
<path d="M266.915 361.502C272.985 359.437 278.53 356.138 283.211 351.861C283.147 351.54 283.084 351.222 283.02 350.901C282.94 350.486 282.715 350.224 282.436 350.089C282.609 349.607 282.766 349.12 282.918 348.629C278.25 353.304 272.523 356.899 266.233 359.036C264.682 359.564 265.347 362.03 266.915 361.502Z" fill="#273437"/>
<path d="M218.819 389.547C213.375 391.925 207.564 393.304 201.667 393.693C202.633 394.137 203.607 394.539 204.59 394.894C204.446 395.144 204.378 395.448 204.446 395.795C204.459 395.863 204.471 395.931 204.484 395.998C209.855 395.368 215.116 393.934 220.106 391.751C221.61 391.091 220.31 388.892 218.814 389.543L218.819 389.547Z" fill="#273437"/>
<path d="M162.34 339.691C161.366 342.411 159.926 344.928 158.066 347.141C157.015 348.393 158.816 350.212 159.875 348.947C162.031 346.379 163.675 343.524 164.806 340.368C165.36 338.816 162.891 338.147 162.336 339.687L162.34 339.691Z" fill="#0A221E"/>
<path d="M264.453 184.746C264.195 184.399 263.805 184.158 263.242 184.103C262.496 184.036 262.03 184.357 261.734 184.843C261.399 185.398 261.289 186.168 261.268 186.819C261.238 187.712 261.268 188.596 261.357 189.475C261.336 190.508 261.463 191.548 261.747 192.593C261.768 192.661 261.789 192.728 261.819 192.788C261.861 193.046 261.912 193.3 261.963 193.558C262.657 196.942 264.106 200.165 266.241 202.923C266.686 203.498 267.33 203.621 267.834 203.418C268.338 203.215 268.698 202.678 268.579 201.937C268.113 199.061 267.554 196.206 266.902 193.371C266.275 190.647 265.563 187.94 264.767 185.254C264.708 185.059 264.597 184.886 264.453 184.746Z" fill="#FF6651"/>
<path d="M140.495 291.112C140.944 292.61 142.422 293.464 143.883 293.697C145.671 293.98 147.569 293.769 149.339 293.464C150.852 293.202 152.826 292.864 154.08 291.916C154.287 291.759 154.448 291.59 154.588 291.408C155.388 290.347 155.109 288.9 154.978 287.584C154.952 287.331 154.927 287.077 154.901 286.823C154.901 286.798 154.897 286.772 154.893 286.747C154.867 286.51 154.846 286.273 154.821 286.036C154.656 284.42 154.49 282.809 154.329 281.193C154.249 280.402 153.571 279.699 152.711 279.962C149.551 280.922 146.548 282.369 143.896 284.344C141.909 285.825 139.863 287.737 140.368 290.232C140.368 290.52 140.414 290.816 140.499 291.112H140.495Z" fill="#FF6651"/>
<path d="M128.587 234.319C129.659 233.816 130.896 233.388 131.908 232.733C132.057 232.635 132.201 232.534 132.341 232.428C133.357 231.637 133.582 230.647 133.505 229.412C133.383 227.424 133.594 225.525 134.196 223.71C134.522 222.724 134.963 221.764 135.53 220.829C136.094 219.899 135.153 218.608 134.086 218.951C134.06 218.959 134.031 218.968 134.001 218.981C133.196 219.243 132.302 219.586 131.383 220.004C129.053 221.066 126.567 222.606 124.919 224.552C124.847 224.573 124.775 224.598 124.707 224.632C124.707 224.683 124.69 224.734 124.661 224.789C122.551 228.147 122.632 232.293 124.868 235.512C126.114 235.833 127.528 234.818 128.587 234.319Z" fill="#FF6651"/>
<path d="M163.801 306.053C162.137 304.099 159.925 303.591 157.583 303.583C157.176 303.583 156.765 303.591 156.35 303.617C155.91 303.642 155.469 303.68 155.024 303.723C154.948 303.731 154.872 303.735 154.796 303.744C154.452 303.778 154.114 303.816 153.775 303.85C153.254 303.904 152.733 303.964 152.224 304.01C152.186 304.01 152.148 304.014 152.106 304.019C151.364 304.078 150.64 304.082 149.937 304.031C148.696 304.734 147.408 305.36 146.099 305.939C145.379 306.256 144.654 306.561 143.926 306.857C142.414 307.47 140.893 308.063 139.368 308.646C136.674 309.044 133.912 308.964 131.218 308.397C129.612 308.058 128.922 310.525 130.536 310.863C133.653 311.519 136.801 311.595 139.876 311.121C139.94 311.472 139.982 311.823 139.991 312.183C140.164 312.208 140.346 312.234 140.524 312.259C140.41 312.394 140.296 312.525 140.181 312.661C137.724 315.461 134.64 317.69 131.163 319.099C129.655 319.708 130.315 322.183 131.845 321.565C136.564 319.653 140.605 316.544 143.604 312.479C143.612 312.466 143.621 312.454 143.634 312.441L144.659 312.424C146.586 312.322 148.518 312.221 150.445 312.115C150.322 315.241 149.649 318.291 148.446 321.218C147.819 322.737 150.297 323.401 150.915 321.899C152.216 318.735 152.919 315.381 153.016 311.98C154.736 311.887 156.456 311.789 158.172 311.692C159.396 311.624 160.62 311.548 161.844 311.481C162.971 311.417 164.098 311.35 165.225 311.286C165.741 309.577 165.055 307.538 163.797 306.062L163.801 306.053Z" fill="#273437"/>
<path d="M134.107 285.22C134.264 285.152 134.421 285.089 134.573 285.021C135.115 284.788 135.657 284.564 136.208 284.348C136.365 284.285 136.526 284.226 136.687 284.166C136.585 282.601 136.509 281.032 136.45 279.458C136.352 276.903 136.284 274.348 136.183 271.802L135.704 260.215L135.535 256.091C135.446 253.887 135.352 251.683 135.264 249.479C135.23 248.697 135.2 247.91 135.166 247.127C134.378 247.766 133.569 248.38 132.739 248.959L132.599 249.374C132.548 249.526 132.497 249.678 132.447 249.83C130.515 251.138 128.422 252.195 126.198 252.973C124.652 253.515 125.317 255.985 126.88 255.44C128.38 254.915 129.82 254.285 131.205 253.545C131.155 253.693 131.104 253.845 131.057 253.993C130.502 255.651 129.706 257.394 129.519 259.141C129.494 259.378 129.469 259.615 129.447 259.843C127.457 261.015 125.317 261.933 123.068 262.58C121.488 263.037 122.161 265.503 123.75 265.046C125.499 264.543 127.19 263.883 128.804 263.088C128.736 263.261 128.664 263.439 128.579 263.616C128.486 263.811 128.388 263.997 128.287 264.187C128.469 264.416 128.583 264.708 128.617 265.004C129.342 271.886 129.706 278.798 129.727 285.719C128.672 286.26 127.622 286.819 126.588 287.394C125.343 288.088 124.089 288.798 122.873 289.56C123.314 290.042 123.767 290.512 124.237 290.964L129.731 287.36C131.159 286.573 132.629 285.863 134.124 285.211L134.107 285.22Z" fill="#273437"/>
<path d="M198.44 184.966C197.716 185.22 196.953 185.381 196.161 185.436C195.814 185.461 195.598 185.203 195.551 184.907C193.585 185.749 191.506 186.337 189.354 186.637C184.677 187.284 179.962 186.535 175.726 184.632C175.726 184.67 175.731 184.704 175.735 184.738C175.777 185.372 175.811 186.007 175.845 186.645C176.053 191.011 175.972 195.381 175.616 199.738C183.762 200.829 192.06 200.029 199.863 197.462C199.291 194.915 198.889 192.343 198.66 189.75C198.605 189.141 198.563 188.528 198.529 187.919C198.474 186.937 198.448 185.952 198.44 184.966Z" fill="#FF9783"/>
<path d="M189.01 184.12C192.784 183.583 196.381 182.035 199.409 179.738C199.918 179.01 200.401 178.266 200.862 177.504C201.324 176.747 201.76 175.973 202.176 175.186C202.451 174.661 202.714 174.128 202.968 173.595C201.934 174.877 200.172 175.546 198.545 175.144C197.613 175.042 196.703 174.628 196.008 173.866C193.826 171.476 195.203 167.572 198.228 166.743C199.409 166.417 200.583 166.603 201.553 167.136C201.693 167.212 201.824 167.297 201.955 167.386C202.019 167.432 202.082 167.479 202.146 167.525C202.396 167.72 202.625 167.936 202.828 168.177C202.93 168.295 203.027 168.422 203.116 168.553C203.251 168.748 203.37 168.959 203.468 169.175C203.671 169.611 203.802 170.084 203.853 170.584C204.01 169.928 204.15 169.272 204.264 168.617C204.289 168.477 204.31 168.337 204.332 168.198C204.399 167.779 204.467 167.364 204.527 166.946C204.539 166.954 204.552 166.967 204.565 166.975C204.577 166.984 204.59 166.996 204.603 167.005C205.031 167.326 205.475 167.534 205.92 167.635C206.098 167.678 206.276 167.703 206.458 167.711C206.636 167.72 206.814 167.716 206.988 167.699C207.161 167.682 207.335 167.648 207.504 167.601C207.589 167.58 207.674 167.555 207.759 167.525C207.924 167.466 208.089 167.398 208.246 167.318C208.326 167.276 208.402 167.233 208.479 167.187C208.631 167.094 208.779 166.992 208.919 166.882C209.97 166.04 210.652 164.666 210.478 163.215C210.296 161.688 209.313 160.262 207.843 159.716C207.615 159.632 207.377 159.573 207.144 159.539C207.026 159.522 206.911 159.513 206.793 159.509C206.674 159.509 206.56 159.509 206.445 159.518C206.212 159.535 205.988 159.577 205.768 159.64C205.547 159.704 205.336 159.793 205.132 159.903C205.221 156.692 205.073 153.473 204.721 150.283C204.671 149.826 204.615 149.374 204.556 148.917C204.133 148.959 203.709 149.002 203.285 149.044C202.862 149.086 202.438 149.128 202.015 149.175C197.287 149.653 192.56 150.135 187.832 150.613C187.616 150.634 187.413 150.55 187.248 150.41C187.205 149.217 187.167 148.02 187.125 146.827C187.112 146.493 186.71 146.417 186.528 146.667L183.135 151.282C182.796 151.366 182.444 151.43 182.08 151.468C179.322 151.751 176.45 151.527 173.68 151.518C172.028 151.518 170.376 151.51 168.724 151.51C167.872 151.51 167.021 151.51 166.173 151.506C166.157 154.408 166.203 157.449 166.457 160.495C164.835 159.86 162.899 160.304 161.853 161.878C160.518 163.883 161.192 166.781 163.124 168.151C164.543 169.158 166.432 169.103 167.605 168.041C167.885 169.23 168.219 170.397 168.618 171.531C168.863 169.843 170.071 168.282 171.858 167.792C174.832 166.975 177.768 169.378 177.488 172.466C177.255 175.063 174.569 176.781 172.172 176.193C171.536 176.125 170.914 175.905 170.363 175.537C170.837 176.421 171.367 177.276 171.951 178.092C173.294 179.691 174.857 181.091 176.62 182.25C180.47 184.01 184.808 184.708 189.01 184.112V184.12ZM205.492 165.013C205.514 164.894 205.556 164.78 205.615 164.674C205.768 164.416 206.035 164.222 206.42 164.217C207.166 164.205 207.568 163.354 207.064 162.787C206.861 162.555 206.793 162.301 206.818 162.06C206.839 161.878 206.911 161.705 207.017 161.561C207.339 161.125 207.975 160.926 208.436 161.447C210.063 163.278 208.852 166.095 206.382 166.138C205.687 166.15 205.395 165.55 205.492 165.017V165.013ZM166.813 166.857C164.42 167.386 162.543 164.958 163.704 162.783C164.288 161.692 165.945 162.665 165.36 163.752C165.009 164.408 165.559 165.173 166.301 165.008C167.508 164.742 168.016 166.59 166.809 166.857H166.813ZM177.547 162.369C177.416 163.206 177.141 164.268 176.459 164.831C175.764 165.406 174.751 165.296 174.188 164.59C173.464 163.676 173.379 162.301 173.595 161.049C173.599 161.019 173.603 160.985 173.608 160.956C173.68 159.738 174.103 158.562 175.361 158.371C177.467 158.054 177.772 160.926 177.543 162.369H177.547ZM177.746 155.334C177.56 155.266 177.374 155.216 177.187 155.169C175.438 154.742 173.599 155.165 172.1 156.353C172.045 156.396 171.994 156.43 171.939 156.455C171.159 156.836 170.376 155.617 171.151 155.004C172.621 153.841 174.307 153.257 176.014 153.291C176.683 153.304 177.352 153.414 178.013 153.612C178.128 153.646 178.242 153.68 178.356 153.722C179.305 154.061 178.691 155.672 177.742 155.334H177.746ZM196.957 162.369C196.825 163.206 196.55 164.268 195.872 164.831C195.178 165.406 194.165 165.296 193.602 164.59C192.877 163.676 192.793 162.301 193.009 161.049C193.013 161.019 193.017 160.985 193.021 160.956C193.093 159.738 193.517 158.562 194.775 158.371C196.88 158.054 197.185 160.926 196.957 162.369ZM193.064 153.27C193.178 153.227 193.293 153.194 193.407 153.16C194.068 152.957 194.741 152.851 195.406 152.838C197.113 152.809 198.799 153.388 200.269 154.551C201.045 155.165 200.265 156.387 199.481 156.002C199.426 155.977 199.375 155.943 199.32 155.901C197.821 154.712 195.978 154.289 194.233 154.716C194.047 154.763 193.856 154.814 193.674 154.881C192.729 155.22 192.111 153.608 193.06 153.27H193.064ZM181.711 166.201C182.516 164.573 183.317 162.94 184.122 161.311C184.668 160.203 186.324 161.176 185.778 162.28C185.109 163.638 184.439 164.996 183.77 166.353L185.896 167.762C186.922 168.443 185.96 170.101 184.926 169.416C183.969 168.782 183.012 168.147 182.054 167.513C181.597 167.208 181.47 166.688 181.711 166.201ZM185.346 173.041C187.777 173.532 190.264 172.838 192.102 171.176C193.017 170.347 194.377 171.7 193.458 172.529C191.086 174.674 187.968 175.52 184.833 174.886C183.622 174.64 184.138 172.792 185.342 173.037L185.346 173.041Z" fill="#FF9783"/>
<path d="M194.776 158.375C193.518 158.566 193.094 159.737 193.022 160.96C193.018 160.99 193.014 161.023 193.009 161.053C192.793 162.301 192.878 163.676 193.602 164.594C194.166 165.304 195.178 165.414 195.873 164.835C196.555 164.272 196.826 163.206 196.957 162.373C197.186 160.93 196.881 158.058 194.776 158.375Z" fill="#273437"/>
<path d="M175.362 158.375C174.104 158.566 173.68 159.737 173.608 160.96C173.604 160.99 173.6 161.023 173.595 161.053C173.379 162.301 173.464 163.676 174.188 164.594C174.752 165.304 175.764 165.414 176.459 164.835C177.141 164.272 177.412 163.206 177.548 162.373C177.776 160.93 177.471 158.058 175.366 158.375H175.362Z" fill="#273437"/>
<path d="M185.901 167.766L183.775 166.358C184.444 165 185.113 163.642 185.782 162.284C186.325 161.18 184.673 160.207 184.126 161.315C183.321 162.944 182.521 164.577 181.716 166.205C181.479 166.692 181.601 167.212 182.059 167.517C183.016 168.151 183.974 168.786 184.931 169.42C185.965 170.106 186.926 168.443 185.901 167.766Z" fill="#FF776E"/>
<path d="M193.458 172.538C194.377 171.709 193.013 170.355 192.102 171.184C190.264 172.847 187.777 173.541 185.346 173.05C184.139 172.805 183.622 174.653 184.838 174.898C187.972 175.533 191.09 174.687 193.462 172.542L193.458 172.538Z" fill="#273437"/>
<path d="M193.674 154.886C193.861 154.818 194.047 154.767 194.234 154.721C195.983 154.294 197.821 154.717 199.321 155.905C199.376 155.948 199.427 155.981 199.482 156.007C200.261 156.388 201.045 155.169 200.27 154.556C198.8 153.393 197.114 152.809 195.407 152.843C194.738 152.855 194.068 152.965 193.408 153.164C193.293 153.198 193.179 153.232 193.064 153.274C192.116 153.613 192.73 155.224 193.679 154.886H193.674Z" fill="#273437"/>
<path d="M178.357 153.723C178.242 153.68 178.128 153.646 178.013 153.613C177.353 153.41 176.679 153.304 176.014 153.291C174.307 153.262 172.621 153.841 171.151 155.004C170.376 155.618 171.155 156.84 171.939 156.455C171.994 156.43 172.045 156.396 172.1 156.354C173.6 155.165 175.442 154.742 177.187 155.169C177.374 155.216 177.564 155.267 177.747 155.334C178.691 155.673 179.31 154.061 178.361 153.723H178.357Z" fill="#273437"/>
<path d="M199.761 206.726C200.075 207.923 198.224 208.426 197.91 207.233C197.322 204.995 196.733 202.758 196.144 200.52C193.369 201.197 190.552 201.654 187.714 201.899C187.841 204.183 187.892 206.472 187.862 208.76C187.845 209.995 185.927 209.995 185.944 208.76C185.973 206.514 185.922 204.272 185.799 202.03C183.393 202.157 180.979 202.123 178.573 201.946C178.09 203.76 177.603 205.571 177.12 207.385C176.802 208.578 174.951 208.071 175.269 206.878C175.722 205.177 176.179 203.473 176.633 201.772C175.675 201.666 174.722 201.539 173.769 201.391L172.867 202.254L164.81 208.418C164.679 208.506 164.547 208.595 164.416 208.684C167.178 211.138 170.321 213.134 173.735 214.572C180.759 217.538 188.659 218.088 195.987 215.96C201.824 214.268 207.187 210.994 211.343 206.569L205.34 202.462C203.815 201.315 202.252 200.232 200.634 199.213C199.757 199.505 198.876 199.78 197.991 200.029C198.575 202.259 199.164 204.488 199.749 206.721L199.761 206.726Z" fill="#3D7A61"/>
<path d="M250.403 279.446C250.382 279.171 250.361 278.896 250.34 278.621C250.34 278.921 250.34 279.218 250.34 279.518C250.361 279.493 250.386 279.471 250.408 279.446H250.403Z" fill="#3D7A61"/>
<path d="M193.606 96.2941L147.277 97.0936C145.629 97.1232 145.624 101.391 147.277 101.362L193.606 100.562C195.254 100.533 195.258 96.2645 193.606 96.2941Z" fill="#87A2C7"/>
<path d="M147.285 92.5463L193.615 91.7469C195.263 91.7172 195.267 87.4491 193.615 87.4787L147.285 88.2782C145.637 88.3078 145.633 92.576 147.285 92.5463Z" fill="#87A2C7"/>
<path d="M204.485 100.156C210.758 99.9745 217.032 99.7926 223.301 99.6107C224.945 99.5642 224.953 95.3552 223.301 95.4018C217.028 95.5836 210.754 95.7655 204.485 95.9474C202.841 95.994 202.833 100.203 204.485 100.156Z" fill="#87A2C7"/>
<path d="M237.229 169.475C234.34 168.13 230.739 168.925 228.401 171.197C225.766 173.76 225.317 177.635 226.063 181.125C223.407 180.38 220.42 180.85 218.213 182.58C215.282 184.881 214.151 189.027 215.413 192.512C215.638 193.138 216.184 193.401 216.714 193.384C216.908 193.549 217.171 193.65 217.493 193.659C225.194 193.803 232.895 193.951 240.592 194.094C240.588 193.244 240.579 192.39 240.575 191.539C240.554 187.982 240.529 184.429 240.507 180.871C240.482 176.992 240.457 173.109 240.431 169.23C240.423 168.122 240.418 167.017 240.41 165.909C239.05 166.764 237.928 167.986 237.224 169.475H237.229Z" fill="#87A2C7"/>
<path d="M163.132 204.065C163.17 200.723 161.078 197.61 158.053 196.21C155.69 195.114 153.076 195.076 150.64 195.774C151.102 193.629 150.683 191.332 149.209 189.53C147.387 187.305 144.46 186.489 141.757 187.056C141.126 184.649 139.089 182.665 136.517 182.398C135.081 182.25 133.683 182.665 132.531 183.447C132.582 184.645 132.629 185.846 132.68 187.043C132.946 193.49 133.209 199.936 133.476 206.387C133.51 207.238 133.548 208.088 133.582 208.938C143.193 208.443 152.758 207.225 162.188 205.3C162.738 205.186 163.12 204.602 163.128 204.069L163.132 204.065Z" fill="#87A2C7"/>
<path d="M170.842 187.5C171.358 187.144 171.503 186.332 170.977 185.93C172.498 186.539 174.159 186.802 175.84 186.641C175.811 186.006 175.772 185.368 175.73 184.733C175.73 184.699 175.726 184.661 175.722 184.627C175.709 184.45 175.696 184.272 175.683 184.094C176.26 184.187 176.853 184.217 177.454 184.166C178.056 184.116 178.365 183.312 177.776 182.973C177.382 182.745 176.997 182.508 176.62 182.259C174.862 181.095 173.294 179.699 171.952 178.1C171.367 177.284 170.837 176.429 170.363 175.545C169.677 174.268 169.101 172.927 168.614 171.539C168.22 170.406 167.881 169.238 167.601 168.05C166.428 169.111 164.538 169.166 163.119 168.16C161.188 166.789 160.514 163.891 161.849 161.886C162.895 160.313 164.827 159.869 166.453 160.503C166.199 157.462 166.148 154.416 166.169 151.514C167.021 151.514 167.872 151.514 168.719 151.518C170.372 151.518 172.024 151.527 173.676 151.527C176.446 151.531 179.318 151.759 182.076 151.476C182.44 151.438 182.796 151.379 183.13 151.29L186.524 146.675C186.706 146.425 187.108 146.501 187.121 146.836C187.163 148.028 187.201 149.226 187.244 150.418C187.409 150.558 187.612 150.643 187.828 150.621C192.556 150.143 197.283 149.661 202.01 149.183C202.434 149.141 202.858 149.099 203.281 149.052C203.705 149.01 204.128 148.968 204.552 148.925C204.611 149.378 204.666 149.835 204.717 150.292C205.069 153.481 205.217 156.704 205.128 159.911C205.331 159.801 205.543 159.712 205.764 159.649C205.984 159.585 206.213 159.543 206.441 159.526C206.556 159.517 206.674 159.513 206.789 159.517C206.907 159.517 207.022 159.53 207.14 159.547C207.373 159.581 207.61 159.64 207.839 159.725C209.309 160.266 210.292 161.696 210.474 163.223C210.648 164.674 209.966 166.049 208.915 166.891C208.775 167.005 208.627 167.106 208.475 167.195C208.398 167.242 208.322 167.284 208.242 167.326C208.085 167.407 207.92 167.479 207.754 167.533C207.67 167.563 207.589 167.589 207.5 167.61C207.331 167.656 207.157 167.686 206.984 167.707C206.81 167.724 206.632 167.728 206.454 167.72C206.276 167.711 206.098 167.682 205.916 167.643C205.467 167.538 205.022 167.335 204.599 167.013C204.586 167.005 204.573 166.992 204.561 166.984C204.548 166.975 204.535 166.962 204.522 166.954C204.463 167.373 204.395 167.792 204.328 168.206C204.306 168.346 204.281 168.485 204.26 168.625C204.145 169.281 204.006 169.94 203.849 170.592C203.62 171.561 203.349 172.525 203.023 173.468C203.002 173.515 202.98 173.557 202.959 173.604C202.705 174.141 202.443 174.67 202.167 175.194C201.756 175.981 201.316 176.755 200.854 177.512C200.392 178.27 199.909 179.014 199.401 179.746C198.278 181.358 197.042 182.897 195.699 184.348C195.559 184.501 195.512 184.712 195.542 184.911C195.589 185.203 195.805 185.461 196.152 185.44C196.944 185.385 197.711 185.224 198.431 184.97C198.435 185.956 198.465 186.941 198.52 187.923C198.554 188.536 198.596 189.145 198.651 189.754C198.944 189.843 199.278 189.801 199.57 189.555C201.638 187.796 203.366 185.706 204.7 183.363C204.874 184.175 204.849 185.017 204.62 185.884C204.374 186.802 205.543 187.504 206.225 186.814C215.926 176.992 219.649 162.576 216.057 149.433C215.811 148.536 215.532 147.643 215.218 146.759C215.015 146.184 214.799 145.609 214.566 145.038C212.948 141.108 210.715 137.504 207.941 134.285C207.793 134.116 207.627 134.023 207.458 133.989C206.306 132.707 204.912 131.611 203.417 130.727C199.668 128.502 195.245 127.017 190.954 126.328C184.405 125.275 177.874 126.561 172.151 129.687C171.257 130.173 170.384 130.706 169.533 131.281C169.253 131.472 168.974 131.666 168.698 131.865C162.115 136.628 157.536 143.481 154.838 151.083C153.393 155.156 152.5 159.403 152.004 163.693C151.487 168.16 151.254 172.813 152.296 177.225C153.271 181.336 155.567 185.321 159.256 187.55C162.755 189.67 167.415 189.856 170.846 187.508L170.842 187.5Z" fill="#763E47"/>
<path d="M189.349 186.637C191.501 186.341 193.581 185.748 195.547 184.907C195.517 184.708 195.564 184.496 195.703 184.344C197.046 182.893 198.283 181.358 199.406 179.742C196.377 182.039 192.776 183.587 189.006 184.124C184.808 184.721 180.466 184.023 176.616 182.263C176.993 182.512 177.378 182.754 177.772 182.978C178.357 183.316 178.052 184.116 177.45 184.171C176.849 184.221 176.256 184.192 175.68 184.099C175.692 184.276 175.705 184.454 175.718 184.632C179.95 186.535 184.669 187.284 189.345 186.637H189.349Z" fill="#FF776E"/>
<path d="M166.297 165.013C165.555 165.178 165.005 164.412 165.356 163.756C165.936 162.669 164.28 161.7 163.7 162.788C162.539 164.962 164.412 167.39 166.809 166.861C168.016 166.595 167.504 164.746 166.301 165.013H166.297Z" fill="#FF776E"/>
<path d="M206.378 166.138C208.843 166.095 210.059 163.278 208.432 161.446C207.97 160.926 207.335 161.125 207.013 161.561C206.907 161.705 206.835 161.878 206.814 162.06C206.789 162.301 206.856 162.559 207.06 162.787C207.564 163.354 207.161 164.205 206.416 164.217C206.03 164.226 205.759 164.416 205.611 164.674C205.552 164.78 205.509 164.894 205.488 165.012C205.391 165.545 205.679 166.146 206.378 166.133V166.138Z" fill="#FF776E"/>
<path d="M210.037 248.363C209.69 247.991 209.279 247.724 208.801 247.572C208.343 247.331 207.852 247.221 207.322 247.242C206.983 247.288 206.64 247.335 206.301 247.377C205.649 247.559 205.086 247.889 204.607 248.363C204.408 248.621 204.209 248.879 204.005 249.137C203.658 249.733 203.484 250.381 203.48 251.07V251.324C203.459 251.853 203.569 252.343 203.811 252.8C203.967 253.274 204.23 253.689 204.603 254.035C204.95 254.408 205.361 254.674 205.84 254.826C206.297 255.068 206.788 255.178 207.318 255.156C207.657 255.11 208 255.063 208.339 255.021C208.991 254.839 209.555 254.509 210.033 254.035C210.232 253.777 210.431 253.519 210.635 253.261C210.982 252.665 211.156 252.018 211.16 251.328V251.074C211.181 250.546 211.071 250.055 210.83 249.598C210.673 249.124 210.41 248.71 210.037 248.363Z" fill="#F9F2F1"/>
<path d="M226.474 266.565C226.732 266.764 226.991 266.963 227.249 267.166C227.847 267.513 228.495 267.686 229.185 267.69H229.439C229.969 267.711 230.46 267.601 230.918 267.36C231.392 267.204 231.807 266.942 232.155 266.569C232.527 266.222 232.794 265.812 232.947 265.334C233.188 264.877 233.298 264.387 233.277 263.858C233.231 263.519 233.184 263.177 233.142 262.838C232.959 262.187 232.629 261.624 232.155 261.146C231.896 260.947 231.638 260.749 231.379 260.546C230.782 260.199 230.134 260.025 229.439 260.021H229.185C228.656 260 228.164 260.11 227.707 260.351C227.232 260.508 226.817 260.77 226.47 261.142C226.097 261.489 225.83 261.899 225.678 262.377C225.436 262.834 225.326 263.325 225.347 263.854C225.394 264.192 225.44 264.535 225.483 264.873C225.665 265.524 225.995 266.087 226.47 266.565H226.474Z" fill="#F9F2F1"/>
<path d="M173.129 236.501C171.121 236.501 169.198 238.265 169.291 240.334C169.385 242.411 170.977 244.166 173.129 244.166C175.137 244.166 177.06 242.402 176.967 240.334C176.874 238.257 175.281 236.501 173.129 236.501Z" fill="#F9F2F1"/>
<path d="M147.175 256.286C146.917 256.087 146.658 255.888 146.4 255.685C145.802 255.338 145.154 255.165 144.46 255.161H143.693C143.163 255.14 142.672 255.25 142.215 255.491C141.74 255.647 141.325 255.909 140.978 256.282C140.605 256.629 140.338 257.039 140.186 257.517C139.944 257.974 139.834 258.464 139.855 258.993C139.902 259.332 139.948 259.674 139.991 260.013C140.173 260.664 140.503 261.227 140.978 261.705C141.236 261.904 141.494 262.102 141.753 262.305C142.35 262.652 142.998 262.826 143.689 262.83H144.455C144.985 262.851 145.476 262.741 145.934 262.5C146.408 262.343 146.823 262.081 147.171 261.709C147.543 261.362 147.81 260.952 147.963 260.474C148.204 260.017 148.314 259.526 148.293 258.997C148.247 258.659 148.2 258.316 148.158 257.978C147.976 257.327 147.645 256.764 147.171 256.286H147.175Z" fill="#F9F2F1"/>
<path d="M205.641 229.429C207.649 229.429 209.572 227.665 209.479 225.596C209.386 223.519 207.793 221.764 205.641 221.764C203.633 221.764 201.71 223.528 201.803 225.596C201.896 227.673 203.489 229.429 205.641 229.429Z" fill="#F9F2F1"/>
<path d="M239.44 249.137C239.093 249.734 238.919 250.381 238.915 251.07V251.324C238.893 251.853 239.004 252.344 239.245 252.8C239.402 253.274 239.664 253.689 240.037 254.036C240.317 254.336 240.634 254.56 240.995 254.717C240.978 252.373 240.965 250.034 240.948 247.69C240.618 247.868 240.313 248.084 240.037 248.359C239.838 248.617 239.639 248.875 239.436 249.133L239.44 249.137Z" fill="#F9F2F1"/>
<path d="M201.799 284.306C199.791 284.306 197.868 286.07 197.961 288.139C198.054 290.216 199.647 291.971 201.799 291.971C203.807 291.971 205.73 290.207 205.637 288.139C205.544 286.062 203.951 284.306 201.799 284.306Z" fill="#F9F2F1"/>
<path d="M173.282 272.902C172.934 272.53 172.523 272.263 172.045 272.111C171.587 271.87 171.096 271.76 170.566 271.781C170.227 271.827 169.884 271.874 169.545 271.916C168.893 272.098 168.33 272.428 167.851 272.902C167.652 273.16 167.453 273.418 167.25 273.676C166.902 274.272 166.728 274.92 166.724 275.613V275.867C166.703 276.396 166.813 276.887 167.055 277.343C167.211 277.817 167.474 278.232 167.847 278.579C168.194 278.951 168.605 279.217 169.084 279.37C169.541 279.611 170.033 279.721 170.562 279.7C170.901 279.653 171.244 279.607 171.583 279.564C172.235 279.382 172.799 279.052 173.277 278.579C173.476 278.321 173.676 278.063 173.879 277.805C174.226 277.208 174.4 276.561 174.404 275.871V275.618C174.425 275.089 174.315 274.598 174.074 274.141C173.917 273.668 173.654 273.253 173.282 272.906V272.902Z" fill="#F9F2F1"/>
<path d="M184.567 308.312C184.546 307.8 184.393 307.326 184.109 306.886C183.91 306.628 183.711 306.37 183.508 306.112C183.029 305.638 182.466 305.308 181.813 305.127C181.475 305.08 181.131 305.034 180.792 304.991C180.098 304.991 179.454 305.169 178.857 305.516C178.687 305.6 178.518 305.689 178.348 305.774C177.899 306.015 177.543 306.345 177.272 306.759C176.933 307.132 176.705 307.563 176.586 308.062C176.425 308.57 176.404 309.082 176.518 309.589C176.535 309.936 176.616 310.266 176.747 310.579C179.306 310.418 181.864 310.258 184.427 310.093C184.452 310.012 184.482 309.928 184.503 309.843C184.664 309.336 184.685 308.824 184.571 308.316L184.567 308.312Z" fill="#F9F2F1"/>
<path d="M233.027 291.717C231.019 291.717 229.096 293.481 229.189 295.55C229.218 296.193 229.392 296.802 229.676 297.339C229.769 297.305 229.858 297.267 229.951 297.233C230.172 297.149 230.392 297.068 230.612 296.988C231.192 296.772 231.773 296.561 232.357 296.354C232.73 296.222 233.107 296.087 233.484 295.956C234.645 295.546 235.712 295.059 236.67 294.454C236.17 292.893 234.785 291.717 233.027 291.717Z" fill="#F9F2F1"/>
<path d="M137.801 279.192C137.335 279.192 136.877 279.289 136.445 279.463C136.505 281.032 136.581 282.601 136.683 284.171C138.292 283.553 139.927 282.999 141.575 282.483C141.253 280.651 139.762 279.192 137.801 279.192Z" fill="#F9F2F1"/>
<path d="M263.484 120.592C264.81 121.278 266.457 121.324 267.915 121.392C269.253 121.455 270.588 121.43 271.922 121.337C271.896 123.41 271.431 125.461 270.562 127.407C270.228 128.156 271.303 128.701 271.96 128.384C275.251 126.789 277.818 124.184 279.246 121.083C283.109 120.918 286.977 120.753 290.84 120.588C293.776 120.461 298.52 121.075 300.532 118.342C301.608 116.883 301.477 114.941 301.536 113.219C301.612 110.977 301.688 108.731 301.761 106.489C301.905 102.132 302.044 97.7708 301.811 93.4138C301.769 92.5932 301.727 91.7345 301.612 90.8927C301.616 88.9976 301.388 87.039 299.604 85.7996C297.961 84.6532 295.767 84.539 293.771 84.5052C290.882 84.4587 287.989 84.4333 285.1 84.3994C279.407 84.3318 273.684 84.0949 267.991 84.2006C265.835 84.2387 263.717 84.7971 262.607 86.6202C261.552 88.3631 261.616 90.4696 261.59 92.3986C261.578 93.435 261.561 94.4713 261.548 95.512C261.332 101.409 261.116 107.306 260.9 113.198C260.802 115.897 260.709 119.158 263.488 120.597L263.484 120.592ZM286.977 100.419C287.239 99.2048 288.315 98.1812 289.756 98.2954C290.827 98.38 291.793 99.0272 292.14 100.072C292.454 101.02 292.162 102.111 291.492 102.83C290.717 103.668 289.671 103.799 288.773 103.465C288.315 103.342 287.888 103.088 287.54 102.682C287.239 102.331 287.057 101.933 286.973 101.531C286.917 101.337 286.888 101.13 286.879 100.918C286.871 100.74 286.909 100.571 286.977 100.419ZM278.805 100.419C279.068 99.2048 280.144 98.1812 281.584 98.2954C282.656 98.38 283.622 99.0272 283.969 100.072C284.283 101.02 283.99 102.111 283.321 102.83C282.546 103.668 281.5 103.799 280.602 103.465C280.144 103.342 279.716 103.088 279.369 102.682C279.068 102.331 278.886 101.933 278.801 101.531C278.746 101.337 278.717 101.13 278.708 100.918C278.7 100.74 278.738 100.571 278.805 100.419ZM270.113 100.419C270.376 99.2048 271.452 98.1812 272.892 98.2954C273.964 98.38 274.929 99.0272 275.277 100.072C275.59 101.02 275.298 102.111 274.629 102.83C273.854 103.668 272.807 103.799 271.909 103.465C271.452 103.342 271.024 103.088 270.677 102.682C270.376 102.331 270.194 101.933 270.109 101.531C270.054 101.337 270.024 101.13 270.016 100.918C270.007 100.74 270.045 100.571 270.113 100.419Z" fill="#FFC460"/>
<path d="M302.773 275.025C302.709 275.14 302.659 275.254 302.612 275.368C301.917 276.303 301.769 277.58 302.468 278.608C303.37 279.932 305.205 280.41 306.598 279.59C306.687 279.535 306.763 279.471 306.835 279.408C306.865 279.387 306.89 279.37 306.92 279.349C307.276 279.057 307.534 278.68 307.695 278.266C308.602 277.242 308.737 275.541 307.877 274.404C306.543 272.64 303.769 273.206 302.773 275.025Z" fill="#FFC460"/>
<path d="M74.8026 288.837C74.6756 288.82 74.5485 288.811 74.4256 288.811C73.3073 288.494 72.0577 288.811 71.3418 289.831C70.4226 291.142 70.6302 293.024 71.8925 294.035C71.973 294.103 72.0619 294.15 72.1467 294.192C72.1763 294.209 72.2017 294.23 72.2314 294.251C72.6338 294.48 73.0744 294.585 73.5234 294.59C74.8027 295.072 76.442 294.59 77.2002 293.384C78.3736 291.51 76.8571 289.124 74.8026 288.841V288.837Z" fill="#FFC460"/>
<path d="M71.0067 164.01C69.8884 163.693 68.6388 164.01 67.9229 165.029C67.0037 166.341 67.2112 168.223 68.4736 169.234C68.554 169.302 68.643 169.348 68.7277 169.391C68.7574 169.408 68.7828 169.429 68.8124 169.45C69.2149 169.678 69.6554 169.784 70.1044 169.788C71.3837 170.271 73.023 169.788 73.7813 168.583C74.9547 166.709 73.4382 164.323 71.3837 164.04C71.2566 164.023 71.1295 164.014 71.0067 164.014V164.01Z" fill="#273437"/>
<path d="M102.578 69.2132C102.637 69.67 102.815 70.0888 103.078 70.4484C103.455 71.7597 104.823 72.7876 106.246 72.6692C108.453 72.4873 109.457 69.8477 108.457 68.033C108.394 67.9188 108.326 67.813 108.254 67.7157C107.839 66.6328 106.835 65.8206 105.59 65.8587C103.984 65.9095 102.603 67.1997 102.544 68.8156C102.544 68.9213 102.552 69.0186 102.574 69.1117C102.574 69.1455 102.574 69.1793 102.578 69.2132Z" fill="#FFC460"/>
<path d="M292.158 146.015C290.553 146.066 289.172 147.356 289.112 148.972C289.112 149.078 289.121 149.175 289.142 149.268C289.142 149.302 289.142 149.336 289.146 149.369C289.206 149.826 289.383 150.245 289.646 150.605C290.023 151.916 291.391 152.944 292.815 152.825C295.022 152.644 296.026 150.004 295.026 148.189C294.962 148.075 294.894 147.969 294.822 147.872C294.407 146.789 293.403 145.977 292.158 146.015Z" fill="#FFC460"/>
<path d="M250.119 59.3358C250.415 60.461 251.322 61.3747 252.563 61.472C254.164 61.5989 255.681 60.4652 255.914 58.8662C255.931 58.7605 255.927 58.6632 255.918 58.5659C255.918 58.532 255.927 58.4982 255.922 58.4644C255.914 58.0033 255.783 57.5676 255.562 57.1826C255.329 55.8375 254.084 54.6699 252.656 54.6276C250.445 54.5642 249.153 57.0811 249.949 58.9974C250 59.1158 250.055 59.23 250.119 59.3358Z" fill="#FFC460"/>
<path d="M45.6805 116.337C45.7356 117.331 45.7991 118.325 45.8584 119.319C45.9516 123.19 46.1126 127.056 46.3498 130.918C46.4811 133.029 46.6336 135.14 46.8115 137.246C46.981 139.285 47.036 141.409 47.4215 143.422C48.1882 147.475 52.8097 146.819 55.9359 146.823C60.2863 146.823 64.6367 146.832 68.9872 146.832C70.8722 146.832 72.7615 146.832 74.6465 146.836C76.3621 152.191 80.1194 156.747 85.1095 159.404C85.9906 159.873 87.4393 159.065 86.9903 157.961C85.5627 154.459 84.9443 150.728 85.2196 146.997L85.5331 147.005C88.6085 147.086 92.0693 147.521 94.9667 146.227C97.6312 145.038 98.8978 142.492 99.2663 139.717C99.7153 136.345 99.3976 132.843 99.3553 129.454C99.2578 121.709 99.1604 113.964 99.063 106.218C99.0291 103.367 99.118 100.258 97.6947 97.6778C96.2079 94.979 93.3571 94.1583 90.4511 94.1033C82.7924 93.9511 75.087 94.2937 67.4283 94.3995C63.5396 94.4502 59.6467 94.4883 55.758 94.556C53.0766 94.6025 50.1241 94.7759 47.9087 96.468C45.312 98.4519 45.1595 101.679 45.2103 104.687C45.2781 108.575 45.4645 112.458 45.6847 116.341L45.6805 116.337ZM78.2514 118.879C78.5521 117.483 79.789 116.311 81.4453 116.438C82.678 116.536 83.7878 117.28 84.186 118.477C84.5461 119.564 84.2115 120.817 83.4447 121.646C82.5552 122.61 81.3521 122.758 80.3228 122.373C79.7975 122.234 79.3061 121.942 78.9079 121.472C78.5648 121.066 78.353 120.614 78.2556 120.152C78.1921 119.928 78.1582 119.691 78.1455 119.446C78.137 119.243 78.1793 119.048 78.2598 118.871L78.2514 118.879ZM68.8643 118.879C69.1651 117.483 70.402 116.311 72.0583 116.438C73.291 116.536 74.4008 117.28 74.799 118.477C75.1591 119.564 74.8244 120.817 74.0577 121.646C73.1681 122.61 71.9651 122.758 70.9357 122.373C70.4105 122.234 69.9191 121.942 69.5209 121.472C69.1778 121.066 68.966 120.614 68.8685 120.152C68.805 119.928 68.7711 119.691 68.7584 119.446C68.7499 119.243 68.7923 119.048 68.8728 118.871L68.8643 118.879ZM58.88 118.879C59.1807 117.483 60.4177 116.311 62.0739 116.438C63.3066 116.536 64.4165 117.28 64.8147 118.477C65.1747 119.564 64.8401 120.817 64.0734 121.646C63.1838 122.61 61.9808 122.758 60.9514 122.373C60.4261 122.234 59.9348 121.942 59.5366 121.472C59.1934 121.066 58.9816 120.614 58.8842 120.152C58.8207 119.928 58.7868 119.691 58.7741 119.446C58.7656 119.243 58.808 119.048 58.8885 118.871L58.88 118.879Z" fill="#3D7A61"/>
<path d="M59.5369 121.476C59.9351 121.946 60.4307 122.238 60.9517 122.377C61.9853 122.758 63.1841 122.614 64.0737 121.65C64.8404 120.821 65.1793 119.569 64.815 118.481C64.4168 117.284 63.3112 116.536 62.0743 116.443C60.418 116.316 59.1811 117.487 58.8803 118.883C58.804 119.061 58.7617 119.256 58.7659 119.459C58.7744 119.704 58.8125 119.937 58.8761 120.165C58.9735 120.626 59.1853 121.079 59.5284 121.485L59.5369 121.476Z" fill="#F9F2F1"/>
<path d="M69.5213 121.476C69.9194 121.946 70.4151 122.238 70.9361 122.377C71.9697 122.758 73.1685 122.614 74.058 121.65C74.8248 120.821 75.1636 119.569 74.7993 118.481C74.4012 117.284 73.2956 116.536 72.0586 116.443C70.4023 116.316 69.1654 117.487 68.8647 118.883C68.7884 119.061 68.7461 119.256 68.7503 119.459C68.7588 119.704 68.7969 119.937 68.8604 120.165C68.9579 120.626 69.1697 121.079 69.5128 121.485L69.5213 121.476Z" fill="#F9F2F1"/>
<path d="M78.9041 121.476C79.3023 121.946 79.7979 122.238 80.3189 122.377C81.3525 122.758 82.5513 122.614 83.4408 121.65C84.2076 120.821 84.5465 119.569 84.1822 118.481C83.784 117.284 82.6784 116.536 81.4414 116.443C79.7852 116.316 78.5482 117.487 78.2475 118.883C78.1712 119.061 78.1289 119.256 78.1331 119.459C78.1416 119.704 78.1797 119.937 78.2432 120.165C78.3407 120.626 78.5525 121.079 78.8956 121.485L78.9041 121.476Z" fill="#F9F2F1"/>
<path d="M270.677 102.686C271.024 103.092 271.452 103.346 271.909 103.468C272.807 103.803 273.854 103.671 274.629 102.834C275.298 102.111 275.59 101.019 275.277 100.076C274.93 99.0353 273.968 98.3839 272.892 98.2992C271.452 98.185 270.372 99.2087 270.113 100.423C270.045 100.575 270.007 100.744 270.016 100.922C270.024 101.133 270.058 101.341 270.109 101.535C270.194 101.937 270.38 102.331 270.677 102.686Z" fill="#273437"/>
<path d="M279.369 102.686C279.716 103.092 280.144 103.346 280.602 103.468C281.5 103.803 282.546 103.671 283.321 102.834C283.991 102.111 284.283 101.019 283.969 100.076C283.622 99.0353 282.66 98.3839 281.584 98.2992C280.144 98.185 279.064 99.2087 278.806 100.423C278.738 100.575 278.7 100.744 278.708 100.922C278.717 101.133 278.751 101.341 278.801 101.535C278.886 101.937 279.072 102.331 279.369 102.686Z" fill="#273437"/>
<path d="M287.54 102.686C287.887 103.092 288.315 103.346 288.773 103.468C289.671 103.803 290.717 103.671 291.492 102.834C292.161 102.111 292.454 101.019 292.14 100.076C291.793 99.0353 290.831 98.3839 289.755 98.2992C288.315 98.185 287.235 99.2087 286.977 100.423C286.909 100.575 286.871 100.744 286.879 100.922C286.888 101.133 286.921 101.341 286.972 101.535C287.057 101.937 287.243 102.331 287.54 102.686Z" fill="#273437"/>
<path d="M175.611 199.738C175.611 199.738 174.438 199.459 173.769 201.392C174.722 201.544 175.675 201.671 176.632 201.772C176.179 203.473 175.721 205.178 175.268 206.878C174.95 208.071 176.802 208.579 177.119 207.386C177.602 205.571 178.089 203.761 178.572 201.946C180.983 202.124 183.393 202.157 185.799 202.03C185.922 204.272 185.968 206.514 185.943 208.761C185.926 209.996 187.849 209.996 187.862 208.761C187.891 206.472 187.841 204.184 187.714 201.899C190.552 201.654 193.369 201.193 196.143 200.52C196.732 202.758 197.321 204.996 197.91 207.233C198.223 208.426 200.074 207.919 199.761 206.726C199.176 204.497 198.587 202.267 198.003 200.034C198.888 199.784 199.769 199.509 200.646 199.217C200.926 197.64 199.863 197.462 199.863 197.462C192.06 200.03 183.761 200.829 175.615 199.738H175.611Z" fill="#273437"/>
<path d="M177.488 172.474C177.764 169.386 174.832 166.984 171.859 167.8C170.071 168.291 168.86 169.852 168.618 171.539C169.101 172.927 169.681 174.268 170.368 175.545C170.923 175.913 171.545 176.133 172.176 176.201C174.57 176.789 177.26 175.067 177.493 172.474H177.488Z" fill="#FF776E"/>
<path d="M203.121 168.557C203.032 168.426 202.934 168.299 202.833 168.181C202.629 167.94 202.4 167.72 202.151 167.529C202.087 167.483 202.023 167.436 201.96 167.39C201.829 167.301 201.697 167.216 201.558 167.14C200.587 166.607 199.414 166.425 198.232 166.747C195.203 167.576 193.827 171.48 196.013 173.87C196.707 174.632 197.618 175.046 198.55 175.148C200.177 175.545 201.939 174.881 202.972 173.6C202.994 173.553 203.015 173.511 203.036 173.464C203.362 172.521 203.629 171.556 203.862 170.588C203.811 170.089 203.68 169.615 203.476 169.179C203.375 168.963 203.256 168.752 203.125 168.557H203.121Z" fill="#FF776E"/>
</g>
<defs>
<clipPath id="clip0_1343_32554">
<rect width="500" height="490" fill="white" transform="translate(-48)"/>
</clipPath>
</defs>
</svg>
