<svg width="14" height="19" viewBox="0 0 14 19" fill="none" xmlns="http://www.w3.org/2000/svg">
<path d="M6.25703 18.3822C4.10448 16.1978 2.54841 14.2147 1.52824 12.3686C0.488319 10.487 0 8.74284 0 7.06963C0 5.24875 0.738313 3.6 1.93173 2.40659C3.12515 1.21317 4.7739 0.474854 6.59477 0.474854C8.41564 0.474854 10.0644 1.21317 11.2578 2.40659C12.4512 3.6 13.1895 5.24875 13.1895 7.06963C13.1895 8.74284 12.7012 10.487 11.6613 12.3686C10.6411 14.2147 9.08506 16.1978 6.93251 18.3822C6.74917 18.5687 6.44913 18.5711 6.26264 18.3878L6.25703 18.3822ZM6.59477 4.53782C5.89483 4.53782 5.26132 4.8208 4.8033 5.27815C4.34595 5.73617 4.06296 6.36969 4.06296 7.06963C4.06296 7.76979 4.34595 8.40308 4.8033 8.8611C5.26132 9.31845 5.89483 9.60143 6.59477 9.60143C7.29471 9.60143 7.92822 9.31845 8.38625 8.8611C8.8436 8.40308 9.12658 7.76979 9.12658 7.06963C9.12658 6.36969 8.8436 5.73617 8.38625 5.27815C7.92822 4.8208 7.29471 4.53782 6.59477 4.53782ZM4.13455 4.60761C4.7647 3.97769 5.63474 3.58766 6.59477 3.58766C7.5548 3.58766 8.42484 3.97769 9.05499 4.60761C9.7105 5.26312 10.0767 6.14191 10.0767 7.06963C10.0767 8.02966 9.68671 8.8997 9.05679 9.52985C8.40128 10.1854 7.52249 10.5516 6.59477 10.5516C5.63474 10.5516 4.7647 10.1616 4.13455 9.53164C3.47905 8.87614 3.11281 7.99734 3.11281 7.06963C3.11281 6.14191 3.47905 5.26312 4.13455 4.60761ZM2.35946 11.9122C3.28426 13.5856 4.67965 15.3879 6.59477 17.3717C8.5099 15.3879 9.90529 13.5856 10.8301 11.9122C11.789 10.1773 12.2394 8.58373 12.2394 7.06963C12.2394 5.51064 11.6074 4.0991 10.5864 3.07802C9.5653 2.05695 8.15376 1.42501 6.59477 1.42501C5.03579 1.42501 3.62424 2.05695 2.60317 3.07802C1.5821 4.0991 0.950157 5.51064 0.950157 7.06963C0.950157 8.58373 1.40055 10.1773 2.35946 11.9122Z" fill="black"/>
</svg>
