<svg width="258" height="310" viewBox="0 0 258 310" fill="none" xmlns="http://www.w3.org/2000/svg">
<g clip-path="url(#clip0_1353_27312)">
<path d="M69.9977 60.7985C70.1565 60.5265 70.3153 60.2545 70.474 59.9825C66.2015 54.9804 60.5177 49.618 53.6555 50.9357C52.0185 51.2501 50.4696 52.0979 49.5065 53.4861C48.3528 55.15 48.3034 57.2412 48.5786 59.177C49.1748 63.4019 50.639 67.5844 52.4101 71.449C54.1883 75.3383 56.4745 78.9698 59.1594 82.2868C61.5408 77.479 65.3477 69.87 69.7825 61.3177C69.8284 61.1482 69.8989 60.9716 70.0013 60.7985H69.9977Z" fill="#FF9881"/>
<path d="M104.34 120.13C104.185 120.123 104.03 120.116 103.871 120.102C103.829 120.162 103.783 120.219 103.733 120.272C104.118 120.254 104.506 120.208 104.891 120.137C104.735 120.137 104.58 120.137 104.428 120.13C104.4 120.13 104.368 120.13 104.34 120.13Z" fill="#F9F2F1"/>
<path d="M178.974 64.5287C180.635 61.4695 182.272 58.3998 183.885 55.3194C185.091 53.0127 186.482 50.6953 187.519 48.272C186.111 48.3074 184.71 48.3286 183.32 48.3427C176.151 48.4133 168.682 47.9364 161.665 49.6921C158.525 50.4763 155.462 51.7692 152.954 53.857C150.572 55.8352 148.699 58.2797 147.136 60.9397C143.784 66.6517 141.766 73.0315 139.099 79.0686C136.03 86.0135 132.403 92.7112 128.271 99.0803C128 99.5007 127.724 99.9175 127.449 100.334C127.407 100.398 127.361 100.462 127.319 100.529C127.075 100.892 126.832 101.253 126.588 101.613C126.564 101.648 126.539 101.684 126.514 101.719C126.246 102.115 125.974 102.507 125.699 102.899C125.696 102.902 125.692 102.91 125.689 102.913C125.399 103.33 125.107 103.747 124.81 104.16C123.953 105.714 123.004 107.223 121.967 108.671C119.832 111.653 117.366 114.397 114.596 116.803C111.827 119.212 108.63 121.632 104.898 122.162C101.472 122.649 98.1377 121.187 95.9397 118.548C95.8585 118.449 95.7809 118.347 95.7033 118.244C95.5551 118.089 95.414 117.93 95.2728 117.764C95.2623 117.753 95.2552 117.743 95.2446 117.732C95.107 117.566 94.973 117.396 94.8424 117.223C93.0678 114.832 92.2351 111.691 92.6162 108.738C93.0819 105.096 94.8212 101.85 96.7582 98.7906C98.7304 95.6785 100.688 92.6016 102.315 89.2881C103.906 86.0453 105.25 82.6929 106.485 79.2982C107.494 76.5251 108.436 73.7168 109.371 70.9049C107.914 68.2732 106.743 65.4931 105.924 62.6211C105.014 59.4171 104.675 55.927 105.801 52.7336C105.875 52.4899 105.952 52.2461 106.041 52.0059C107.103 49.1587 109.092 46.7001 111.657 45.0645C111.724 45.0221 111.791 44.9833 111.858 44.9409C112.183 44.6901 112.518 44.4534 112.864 44.2344C115.528 42.5352 118.671 41.8111 121.688 42.1325C122.03 41.6097 122.379 41.0904 122.739 40.5782C126.444 35.3077 131.037 30.5776 136.686 27.3984C141.678 24.59 147.189 23.2971 152.806 22.7248C148.424 20.5523 144.042 18.3798 139.66 16.2073C137.744 15.2571 135.825 14.2715 133.881 13.3283C129.873 11.3819 125.766 9.61918 121.395 8.74665C121.219 8.71133 121.042 8.67953 120.866 8.64774C120.802 8.63714 120.742 8.62655 120.679 8.61595C120.566 8.59475 120.449 8.57709 120.333 8.55943C120.259 8.54883 120.185 8.53823 120.107 8.52763C120.005 8.5135 119.903 8.49584 119.8 8.48171C119.719 8.47111 119.634 8.46052 119.553 8.44992C119.458 8.43932 119.363 8.42519 119.268 8.41459C119.179 8.404 119.091 8.39693 119.006 8.38633C118.915 8.37574 118.826 8.36867 118.735 8.35807C118.643 8.35101 118.551 8.34394 118.463 8.33688C118.375 8.32981 118.29 8.32275 118.202 8.31568C118.107 8.30862 118.011 8.30509 117.916 8.29802C117.835 8.29449 117.75 8.28742 117.669 8.28389C117.57 8.28036 117.472 8.27683 117.373 8.27329C117.295 8.27329 117.214 8.26976 117.137 8.26623C117.034 8.26623 116.935 8.26623 116.833 8.2627C116.759 8.2627 116.681 8.2627 116.607 8.2627C116.505 8.2627 116.399 8.2627 116.297 8.2627C116.223 8.2627 116.152 8.2627 116.078 8.26623C115.972 8.26623 115.866 8.27329 115.757 8.27683C115.686 8.27683 115.619 8.28389 115.549 8.28742C115.44 8.29449 115.33 8.29802 115.221 8.30509C115.157 8.30862 115.09 8.31215 115.027 8.31922C114.914 8.32628 114.801 8.33688 114.688 8.34748C114.628 8.35454 114.568 8.35807 114.508 8.36514C114.392 8.37574 114.275 8.38987 114.159 8.404C114.102 8.41106 114.049 8.41813 113.993 8.42519C113.873 8.43932 113.753 8.45698 113.633 8.47465C113.584 8.48171 113.531 8.48878 113.481 8.49584C113.358 8.5135 113.234 8.5347 113.111 8.55589C113.065 8.56296 113.019 8.57003 112.977 8.58062C112.846 8.60535 112.719 8.62655 112.592 8.65127C112.554 8.65834 112.515 8.6654 112.479 8.676C112.345 8.70426 112.211 8.73252 112.077 8.76431C112.045 8.77138 112.017 8.77844 111.985 8.78551C111.844 8.8173 111.703 8.85263 111.562 8.88795C111.541 8.89148 111.52 8.89855 111.502 8.90561C111.354 8.94447 111.202 8.98686 111.054 9.02925C111.047 9.02925 111.04 9.03279 111.033 9.03632C109.054 9.61212 107.173 10.5235 105.48 11.8199C103.634 13.4873 101.997 15.4019 100.547 17.3943C97.6861 21.3366 95.3363 25.6427 92.8808 29.8464C95.3222 35.7916 97.1886 41.97 98.427 48.272C98.4693 48.484 98.5116 48.6995 98.554 48.915C98.8856 50.5858 99.242 52.345 99.4607 54.1184C99.496 54.355 99.5348 54.5917 99.5665 54.8319C99.7641 56.2909 99.8982 57.7569 99.9617 59.2264C99.9652 59.2864 99.9723 59.3465 99.9793 59.4065C100.442 65.1328 100.367 72.9114 95.6221 77.0232C93.6182 78.7577 90.9086 79.7503 88.2625 79.2311C85.7328 78.7365 83.8559 76.7654 82.8292 74.4834C81.6932 71.9611 81.3686 69.2093 81.0228 66.4928C80.8288 64.9597 80.6347 63.423 80.4407 61.8899C80.049 60.3568 79.8233 58.7566 79.5975 57.2658C79.5692 57.0786 79.541 56.8879 79.5093 56.7042C79.3434 55.6621 79.1776 54.6164 79.0118 53.5744C77.2583 56.5699 75.5084 59.569 73.7549 62.5646C73.7408 62.6141 73.7232 62.66 73.702 62.7095C73.6773 62.773 73.6526 62.8331 73.6173 62.8967C73.6067 62.9143 73.5961 62.9355 73.5891 62.9532C73.3245 63.4689 73.0599 63.9847 72.7953 64.5004C71.9979 66.0547 71.2006 67.6091 70.3997 69.1634C68.8685 72.1448 67.3408 75.1263 65.8096 78.1042C63.3858 82.8272 60.9585 87.5537 58.5346 92.2767C58.9545 94.5233 58.7499 96.9043 57.9208 98.9779C56.6506 102.157 54.2233 104.612 51.3232 106.322C49.1005 110.649 46.8813 114.977 44.6586 119.304C42.7781 122.971 40.8941 126.634 39.0136 130.301C39.2429 131.844 39.1089 133.431 38.5373 134.904C37.6906 137.076 36.0606 138.821 34.0743 139.923C29.022 149.765 23.9698 159.607 18.921 169.445C17.1076 172.977 14.585 176.87 14.5038 180.971C14.4298 184.769 17.2911 186.92 20.2758 188.658C21.807 189.548 23.3453 190.431 24.8835 191.307C26.577 188.231 28.6233 185.359 30.9836 182.755C33.3404 180.159 36.0676 177.615 39.0877 175.807C42.0584 174.026 46.0557 173.705 48.1726 176.926C49.6015 179.103 49.4815 181.699 48.8712 184.168C48.8641 184.355 48.85 184.543 48.8323 184.73C48.8253 184.8 48.8147 184.868 48.8076 184.935C48.7935 185.051 48.783 185.171 48.7653 185.288C48.7547 185.366 48.7406 185.447 48.7265 185.525C48.7089 185.631 48.6912 185.737 48.6736 185.843C48.6595 185.924 48.6383 186.009 48.6207 186.09C48.5995 186.192 48.5783 186.291 48.5536 186.394C48.5325 186.478 48.5113 186.56 48.4901 186.644C48.4654 186.743 48.4407 186.842 48.4125 186.938C48.3878 187.022 48.3631 187.104 48.3384 187.188C48.3102 187.284 48.282 187.383 48.2502 187.478C48.222 187.563 48.1973 187.644 48.1691 187.729C48.1373 187.824 48.1056 187.92 48.0703 188.015C48.042 188.096 48.0103 188.181 47.9785 188.262C47.9433 188.358 47.908 188.45 47.8692 188.545C47.8374 188.626 47.8057 188.707 47.7704 188.789C47.7316 188.884 47.6928 188.976 47.654 189.071C47.6187 189.153 47.5869 189.23 47.5516 189.311C47.5093 189.407 47.467 189.499 47.4246 189.594C47.3893 189.672 47.3541 189.75 47.3188 189.827C47.2764 189.923 47.2306 190.018 47.1847 190.113C47.1494 190.188 47.1142 190.265 47.0753 190.339C47.0295 190.438 46.9801 190.534 46.9307 190.633C46.8954 190.703 46.8601 190.777 46.8249 190.848C46.7719 190.951 46.7225 191.053 46.6696 191.155C46.6343 191.223 46.6026 191.286 46.5673 191.353C46.5073 191.466 46.4509 191.579 46.3909 191.692C46.3627 191.745 46.3344 191.798 46.3097 191.851C46.2215 192.017 46.1369 192.18 46.0487 192.346C44.5986 195.059 43.3356 197.811 42.4077 200.746C42.3724 200.859 42.3406 200.969 42.3053 201.082C43.0815 201.516 43.8577 201.951 44.6304 202.385C52.8015 206.988 60.9761 211.591 69.1472 216.194C73.2151 218.487 77.276 220.793 81.3545 223.065C82.1165 223.489 82.9104 223.927 83.7289 224.333C84.0005 224.156 84.3322 224.047 84.7238 224.026C92.849 223.641 96.9522 214.657 100.339 208.532C108.38 193.992 116.417 179.452 124.457 164.912C132.466 150.429 140.471 135.946 148.48 121.462C148.635 121.183 148.826 120.971 149.034 120.816C147.125 109.159 151.673 97.0632 161.086 89.6661C162.854 88.2743 164.745 87.0768 166.749 86.0736C167.409 84.9537 168.072 83.8339 168.725 82.7106C172.228 76.6982 175.64 70.6329 178.96 64.5181L178.974 64.5287ZM108.775 18.5777C108.902 17.9277 109.149 17.3024 109.533 16.7407C109.682 16.5253 109.858 16.3416 110.056 16.1897C110.92 15.2182 112.112 14.5365 113.457 14.4163C116.879 14.102 119.952 17.5426 119.172 20.9127C118.438 24.0919 114.667 25.9748 111.707 24.6147C110.701 24.152 109.914 23.3572 109.396 22.4104C109.181 22.1844 109.008 21.9053 108.895 21.5944C108.531 20.6018 108.521 19.5526 108.775 18.5741V18.5777ZM35.9018 168.989C34.3883 170.759 31.6363 171.324 29.6641 169.982C29.0714 169.579 28.5669 169.049 28.1788 168.445C28.1576 168.413 28.1329 168.378 28.1118 168.339C28.1047 168.325 28.0977 168.314 28.0906 168.3C28.08 168.282 28.0694 168.265 28.0588 168.247C28.0588 168.247 28.0588 168.24 28.0553 168.236C27.3426 167.011 27.1133 165.516 27.6002 164.142C27.7272 163.786 27.9459 163.478 28.2211 163.259C28.5916 162.641 29.0961 162.1 29.7241 161.684C31.6681 160.394 34.3248 160.945 35.856 162.627C37.5318 164.471 37.5071 167.11 35.9018 168.985V168.989ZM88.9046 131.802C90.8415 133.932 90.8133 136.984 88.9575 139.153C87.2076 141.199 84.0288 141.852 81.7496 140.301C81.0616 139.835 80.4795 139.224 80.0349 138.524C80.0067 138.486 79.982 138.447 79.9573 138.404C79.9467 138.39 79.9397 138.376 79.9291 138.358C79.9185 138.337 79.9044 138.32 79.8938 138.295C79.8938 138.295 79.8938 138.288 79.8903 138.284C79.0682 136.868 78.8001 135.14 79.3646 133.551C79.5128 133.137 79.7633 132.784 80.0843 132.53C80.5148 131.816 81.0969 131.187 81.8237 130.707C84.0711 129.22 87.1441 129.856 88.9081 131.799L88.9046 131.802ZM105.589 186.846C102.668 190.329 98.3882 192.501 93.8016 192.318C93.3677 192.3 92.9372 192.265 92.5068 192.212C91.7835 193.554 91.0532 194.896 90.3053 196.225C89.6949 197.313 89.0775 198.394 88.453 199.471C87.9661 200.312 87.5004 201.241 86.7701 201.901C85.8563 202.721 84.371 202.936 83.4113 202.233C83.3337 202.198 83.2561 202.166 83.175 202.131C82.4729 201.827 81.7743 201.52 81.0757 201.209C77.8722 199.778 74.7146 198.249 71.6063 196.617C68.0993 194.769 64.6594 192.798 61.2936 190.7C59.6107 189.651 57.949 188.573 56.3049 187.464C55.6451 187.019 54.9148 186.574 54.2304 186.079C53.6447 185.659 53.0908 185.196 52.6427 184.663C52.5016 184.493 52.3675 184.317 52.2476 184.133C51.242 182.582 51.7395 180.901 52.4345 179.336C53.2778 177.435 54.1845 175.559 55.123 173.705C55.9344 172.101 56.7776 170.515 57.6526 168.947C57.5397 168.833 57.4233 168.72 57.3069 168.604C55.8498 168.017 54.4703 167.261 53.2072 166.318C46.4756 161.288 43.1627 152.443 43.6425 144.184C44.2564 133.635 49.6473 124.211 55.1829 115.499C58.0795 110.943 61.1207 106.477 64.3031 102.118C65.919 99.9034 67.5772 97.7132 69.2601 95.5478C70.8089 93.5554 72.2872 91.5172 74.4006 90.0794C76.3234 88.7689 78.9271 88.2001 80.9699 89.5955C82.935 90.9378 83.5454 93.3187 83.5066 95.5831C83.429 100.546 81.7496 105.4 79.8515 109.922C76.3587 118.251 71.4934 126.648 72.5518 136.03C72.9787 139.817 74.6616 143.417 77.6923 145.794C80.6559 148.119 84.4274 149.143 88.0191 150.026C95.8691 151.966 104.626 153.69 108.687 161.592C112.772 169.54 111.283 180.056 105.593 186.842L105.589 186.846ZM142.147 118.47C142.147 118.534 142.14 118.601 142.137 118.665C142.13 118.795 142.123 118.926 142.112 119.053C142.105 119.131 142.098 119.205 142.091 119.283C142.077 119.399 142.063 119.516 142.049 119.633C142.038 119.714 142.027 119.791 142.013 119.873C141.996 119.986 141.974 120.099 141.953 120.208C141.939 120.29 141.921 120.367 141.907 120.449C141.883 120.565 141.854 120.678 141.823 120.795C141.791 120.915 141.759 121.038 141.724 121.159C141.689 121.282 141.653 121.402 141.615 121.522C141.583 121.625 141.544 121.727 141.509 121.83C141.484 121.904 141.456 121.978 141.428 122.052C141.385 122.162 141.343 122.271 141.301 122.377C141.276 122.441 141.248 122.504 141.223 122.568C141.174 122.681 141.124 122.798 141.071 122.911C141.047 122.96 141.025 123.01 141.001 123.059C140.941 123.183 140.881 123.31 140.817 123.434C140.81 123.448 140.8 123.465 140.792 123.479C140.475 124.091 140.112 124.684 139.706 125.26C139.706 125.263 139.702 125.267 139.699 125.27C139.596 125.415 139.491 125.56 139.385 125.701C139.505 126.005 139.452 126.355 139.113 126.637C138.471 127.167 137.818 127.683 137.159 128.185C137.159 128.185 137.151 128.192 137.148 128.195C136.361 128.944 135.521 129.637 134.65 130.272C134.632 130.287 134.615 130.297 134.597 130.311C134.47 130.403 134.34 130.495 134.209 130.587C134.181 130.608 134.149 130.629 134.121 130.65C133.997 130.739 133.87 130.824 133.747 130.908C133.719 130.93 133.687 130.947 133.659 130.965C133.288 131.212 132.914 131.445 132.54 131.671C132.473 131.71 132.406 131.753 132.339 131.791C132.254 131.841 132.166 131.89 132.082 131.94C131.997 131.989 131.912 132.035 131.831 132.085C131.753 132.127 131.676 132.173 131.598 132.215C131.503 132.268 131.411 132.318 131.316 132.367C131.245 132.406 131.175 132.441 131.104 132.48C130.998 132.537 130.889 132.59 130.783 132.646C130.727 132.675 130.67 132.706 130.61 132.735C130.448 132.816 130.282 132.897 130.12 132.971C129.802 133.123 129.478 133.265 129.153 133.402C129.111 133.42 129.065 133.438 129.023 133.455C128.733 133.575 128.444 133.695 128.151 133.809C128.134 133.816 128.112 133.823 128.095 133.83C127.442 134.081 126.782 134.303 126.112 134.504C121.977 136.066 117.461 136.808 113.055 136.306C109.66 135.921 104.707 134.9 103.257 131.29C102.569 129.577 103.091 127.757 104.294 126.415C105.709 124.832 107.843 124.26 109.826 123.776C113.838 122.798 117.853 121.83 121.868 120.858C124.239 119.088 125.533 116.489 127.223 114.146C127.23 114.136 127.238 114.125 127.248 114.115C127.35 113.973 127.456 113.836 127.559 113.698C127.583 113.666 127.604 113.634 127.629 113.603C127.756 113.436 127.89 113.27 128.024 113.108C130.212 110.462 133.729 108.759 137.088 110.172C140.108 111.441 142.049 114.655 142.147 117.884C142.154 118.082 142.151 118.28 142.147 118.474V118.47ZM166.255 64.6735C165.577 67.6479 163.03 71.1345 160.003 72C156.891 72.8902 154.041 70.5022 153.476 67.4925C152.926 64.557 154.369 62.0701 156.129 59.8764C156.99 57.4954 159.968 55.8634 162.476 56.7925C165.652 57.9653 166.971 61.5367 166.255 64.6735Z" fill="#F9F2F1"/>
<path d="M79.7138 186.715C79.6962 186.369 79.6786 186.019 79.6644 185.673C79.2693 185.751 78.8741 185.832 78.4755 185.91C75.9247 186.418 73.3809 186.966 70.8477 187.559C70.3114 187.686 69.8175 187.393 69.6446 186.874L67.4007 180.099C63.7103 181.773 60.0235 183.447 56.3331 185.122C55.6274 185.44 54.9253 185.761 54.2197 186.079C54.9042 186.574 55.6345 187.015 56.2943 187.464C57.9384 188.573 59.6001 189.651 61.283 190.7C64.6488 192.795 68.0887 194.769 71.5957 196.617C74.7004 198.252 77.8616 199.778 81.0651 201.209C80.9593 200.45 80.8569 199.69 80.7582 198.931C80.2431 194.875 79.8938 190.802 79.7068 186.719L79.7138 186.715Z" fill="#FFC460"/>
<path d="M66.7906 178.237C66.6424 177.788 66.4942 177.339 66.346 176.894C65.0124 172.867 63.6788 168.837 62.3452 164.81C62.1123 164.11 61.883 163.414 61.6501 162.715C61.4208 162.764 61.2056 162.902 61.0503 163.153C59.8684 165.057 58.7324 166.989 57.6457 168.946C56.7707 170.515 55.9275 172.101 55.1161 173.705C54.1776 175.559 53.2709 177.435 52.4276 179.335C51.7361 180.897 51.2351 182.578 52.2407 184.133C52.3606 184.316 52.4947 184.493 52.6358 184.662C53.2638 184.376 53.8918 184.094 54.5198 183.808C58.6089 181.953 62.698 180.095 66.787 178.24L66.7906 178.237Z" fill="#FFC460"/>
<path d="M149.645 127.482C149.662 127.457 149.683 127.432 149.701 127.404C149.697 127.404 149.694 127.404 149.69 127.4C149.676 127.429 149.662 127.453 149.645 127.482Z" fill="#F4EFEA"/>
<path d="M29.015 141.241C30.7862 141.259 32.5396 140.789 34.0779 139.934C36.0642 138.832 37.6942 137.087 38.5409 134.914C39.116 133.441 39.2466 131.855 39.0172 130.311C38.7667 128.612 38.0788 126.966 37.0521 125.581C36.1453 124.356 34.974 123.331 33.6086 122.66C33.4746 122.593 33.3405 122.533 33.2064 122.476C33.5275 123.239 33.2876 123.907 32.8395 124.465C32.6102 124.748 32.3279 125.006 32.0316 125.228C29.7736 126.945 27.3745 128.482 24.9013 129.866C23.8993 130.534 22.6362 131.166 21.7436 130.018C21.3732 129.538 21.2779 128.965 21.3661 128.361C21.5919 126.751 23.0843 124.921 23.9663 124.055C24.7848 123.25 25.7339 122.586 26.7641 122.095C24.3015 122.759 22.0294 124.271 20.4488 126.288C16.8713 130.845 17.1994 137.26 19.6797 142.244C20.8933 144.685 22.9573 147.462 25.9491 147.229C26.8382 145.501 27.7238 143.77 28.6128 142.043C28.7504 141.778 28.8845 141.513 29.0221 141.248L29.015 141.241Z" fill="#FF9881"/>
<path d="M169.885 176.743C170.577 172.959 171.628 169.289 172.821 165.636C173.988 162.058 175.22 158.49 175.989 154.799C176.733 151.241 176.963 147.62 176.85 143.993C176.818 142.979 176.762 141.965 176.687 140.951C176.229 134.543 175.096 128.185 175.029 121.748C174.99 118.089 175.336 114.45 176.331 110.918C176.74 109.459 177.238 108.028 177.764 106.611C177.033 107.124 176.236 107.452 175.371 107.495C174.623 107.533 173.826 107.353 172.986 106.891C169.098 104.746 169.744 98.9565 170.714 95.3709C171.519 92.3895 173.001 89.6059 175.008 87.2744C175.079 87.1932 175.149 87.1084 175.22 87.0271C175.534 86.5926 175.876 86.1899 176.264 85.8367C176.292 85.8084 176.324 85.7837 176.356 85.759C176.779 85.2609 177.277 84.7098 177.827 84.3036C176.698 83.8443 175.506 83.6924 174.306 83.7454C173.72 83.7737 173.131 83.8479 172.549 83.9644C171.325 84.2046 170.125 84.6038 169.01 85.0595C168.245 85.3739 167.497 85.7166 166.759 86.0839C164.759 87.0836 162.868 88.2847 161.097 89.6765C151.687 97.0772 147.14 109.169 149.045 120.826C149.267 122.193 149.581 123.557 149.983 124.903C150.047 125.111 150.11 125.32 150.181 125.528C152.76 126.365 155.54 126.277 158.108 125.341C159.294 124.91 159.802 126.8 158.627 127.231C155.716 128.291 152.601 128.312 149.694 127.4C149.676 127.425 149.655 127.45 149.637 127.478C148.381 129.749 147.125 132.017 145.873 134.289C145.069 136.274 144.462 138.341 144.074 140.457C143.985 140.93 143.908 141.403 143.841 141.88C143.633 143.389 143.541 144.9 143.537 146.423C143.537 147.43 143.562 148.451 143.488 149.461C143.446 150.03 143.375 150.595 143.245 151.153C142.786 153.145 141.509 154.459 140.023 155.604C139.187 156.247 138.284 156.837 137.42 157.462C135.317 158.985 133.369 160.705 131.595 162.588C129.958 164.322 128.469 166.194 127.139 168.173C125.897 170.419 124.655 172.663 123.413 174.909C122.527 176.895 121.783 178.94 121.19 181.031C120.926 181.971 120.689 182.914 120.488 183.868C120.068 185.846 119.783 187.849 119.638 189.859C119.567 189.884 119.5 189.922 119.437 189.968C119.109 196.069 120.128 202.219 122.464 207.935C122.94 209.101 121.049 209.606 120.58 208.454C118.639 203.706 117.592 198.634 117.436 193.533C115.422 197.33 113.404 201.124 111.389 204.922C108.944 209.524 106.587 214.187 104.012 218.716C102.946 220.588 101.786 222.464 100.438 224.184C100.304 224.357 100.17 224.527 100.032 224.697C100.025 224.707 100.018 224.714 100.011 224.725C99.7076 225.096 99.3936 225.456 99.062 225.806C96.1831 228.872 92.3339 230.483 88.1249 229.882C85.5247 229.511 83.0973 228.466 80.7582 227.229C80.2431 226.957 79.735 226.678 79.2305 226.392C78.3061 225.869 77.3924 225.336 76.4892 224.817C76.281 224.697 76.0728 224.58 75.8682 224.463C73.6314 223.202 71.391 221.945 69.1542 220.684C68.565 220.352 67.9758 220.02 67.3866 219.687C66.6246 220.846 67.5454 222.605 68.3075 223.732C73.6949 231.68 73.3985 241.826 76.3057 250.692C77.8369 255.359 80.2501 259.725 84.2263 262.717C84.3004 262.774 84.3745 262.827 84.4521 262.883C90.2805 265.642 97.2627 265.713 103.112 262.883C104.241 262.336 105.233 264.028 104.1 264.575C100.135 266.493 95.7068 267.232 91.3919 266.804C93.6887 270.52 96.0314 274.226 98.5152 277.833C102.269 277.391 105.931 276.356 109.364 274.745C110.497 274.212 111.488 275.9 110.352 276.437C106.983 278.02 103.43 279.094 99.7747 279.634C104.054 285.668 108.768 291.362 114.353 296.251C119.229 300.519 124.683 304.122 130.681 306.591C137.074 309.226 143.957 310.272 150.851 309.933C158.211 309.573 165.454 307.82 172.415 305.471C177.831 303.645 183.271 301.268 187.565 297.403C192.172 293.256 194.582 287.459 193.943 281.242C193.22 274.184 189.35 268.164 184.989 262.781C176.455 252.24 166.385 242.868 159.477 231.076C159.174 230.557 158.881 230.034 158.592 229.508C154.556 233.602 149.549 236.668 144.01 238.371C142.803 238.742 142.292 236.852 143.491 236.485C148.875 234.831 153.772 231.783 157.639 227.71C157.463 227.367 157.29 227.025 157.121 226.678C157.11 226.657 157.099 226.636 157.085 226.615C159.184 224.107 160.85 221.383 162.183 218.511C166.477 209.288 167.377 198.542 168.361 188.478C168.746 184.546 169.169 180.618 169.882 176.728L169.885 176.743Z" fill="#FFA995"/>
<path d="M41.0462 87.1898C40.8874 87.3452 40.7322 87.5042 40.584 87.6667C41.8435 86.5116 43.2618 85.5118 44.8001 84.77C43.41 85.3246 42.1222 86.1442 41.0462 87.1863V87.1898Z" fill="#FF9881"/>
<path d="M183.885 55.3191C182.273 58.403 180.632 61.4727 178.974 64.5284C175.654 70.6432 172.242 76.7085 168.739 82.7209C168.086 83.8442 167.423 84.964 166.763 86.0838C167.501 85.7164 168.249 85.3738 169.014 85.0594C170.125 84.6037 171.329 84.201 172.553 83.9643C173.135 83.8513 173.724 83.7736 174.31 83.7453C175.509 83.6888 176.702 83.8442 177.831 84.3034C178.148 84.0667 178.484 83.876 178.833 83.77C178.91 83.6358 178.992 83.498 179.069 83.3638C179.083 83.0317 179.281 82.7209 179.549 82.5372C180.064 81.6434 180.576 80.7462 181.084 79.8454C183.705 75.1825 186.189 70.4418 188.532 65.6305C189.089 64.4824 189.639 63.3273 190.183 62.1722C191.291 59.8125 192.37 57.4351 193.411 55.0436C194.427 52.7086 195.454 50.3347 195.824 47.8584C193.055 48.0845 190.274 48.2046 187.519 48.2717C186.485 50.6915 185.095 53.0124 183.885 55.3191Z" fill="#273437"/>
<path d="M65.8096 78.1144C67.3408 75.133 68.8684 72.1515 70.3996 69.1736C71.197 67.6193 71.9944 66.065 72.7952 64.5107C73.0598 63.9949 73.3244 63.4792 73.5891 62.9634C73.5996 62.9458 73.6102 62.9246 73.6173 62.9069C73.649 62.8433 73.6773 62.7798 73.702 62.7197C73.7231 62.6702 73.7372 62.6243 73.7549 62.5749C75.5083 59.5793 77.2583 56.5802 79.0118 53.5846C78.6166 51.0977 78.225 48.6143 77.8298 46.1274C75.3002 50.7939 72.8164 55.4922 70.4878 59.9679C70.4843 59.9749 70.4808 59.982 70.4773 59.9855C70.3185 60.2575 70.1597 60.5295 70.001 60.8015C69.8987 60.9782 69.8281 61.1513 69.7822 61.3208C65.3474 69.8695 61.5406 77.4786 59.1591 82.2899C57.5009 85.6422 56.5342 87.6346 56.5342 87.6346C57.5538 88.9875 58.2206 90.6019 58.5381 92.2904C60.962 87.5675 63.3893 82.8409 65.8131 78.118L65.8096 78.1144Z" fill="#273437"/>
<path d="M100.544 17.4012C101.991 15.4053 103.628 13.4907 105.477 11.8269C107.174 10.5269 109.051 9.61549 111.03 9.04322C111.037 9.04322 111.044 9.03969 111.051 9.03616C111.199 8.99377 111.347 8.95138 111.499 8.91252C111.52 8.90546 111.541 8.90192 111.559 8.89486C111.7 8.85953 111.841 8.82421 111.982 8.79241C112.014 8.78535 112.042 8.77828 112.074 8.77122C112.208 8.73943 112.342 8.71117 112.476 8.68291C112.515 8.67584 112.554 8.66524 112.589 8.65818C112.716 8.63345 112.847 8.60872 112.974 8.58753C113.02 8.58046 113.062 8.56987 113.108 8.5628C113.231 8.54161 113.355 8.52041 113.478 8.50275C113.528 8.49568 113.581 8.48862 113.63 8.48155C113.75 8.46389 113.87 8.44976 113.99 8.4321C114.046 8.42503 114.099 8.41797 114.156 8.4109C114.272 8.39677 114.389 8.38617 114.505 8.37205C114.565 8.36498 114.625 8.36145 114.685 8.35438C114.798 8.34378 114.911 8.33319 115.024 8.32612C115.087 8.32259 115.154 8.31552 115.218 8.31199C115.327 8.30493 115.436 8.29786 115.546 8.29433C115.616 8.29433 115.683 8.28726 115.754 8.28373C115.86 8.2802 115.966 8.27667 116.075 8.27313C116.149 8.27313 116.22 8.27313 116.294 8.2696C116.396 8.2696 116.502 8.2696 116.604 8.2696C116.678 8.2696 116.756 8.2696 116.83 8.2696C116.932 8.2696 117.031 8.2696 117.133 8.27313C117.211 8.27313 117.292 8.27667 117.37 8.2802C117.469 8.2802 117.567 8.28726 117.666 8.2908C117.747 8.29433 117.832 8.29786 117.913 8.30493C118.008 8.30846 118.104 8.31552 118.199 8.32259C118.287 8.32965 118.372 8.33672 118.46 8.34378C118.552 8.35085 118.643 8.35791 118.732 8.36498C118.823 8.37204 118.912 8.38264 119.003 8.39324C119.092 8.40384 119.18 8.4109 119.264 8.4215C119.36 8.4321 119.455 8.4427 119.55 8.45683C119.631 8.46742 119.716 8.47802 119.797 8.48862C119.899 8.50275 120.002 8.51688 120.104 8.53454C120.178 8.54514 120.252 8.55574 120.33 8.56633C120.446 8.584 120.559 8.60519 120.676 8.62285C120.739 8.63345 120.799 8.64405 120.863 8.65465C121.039 8.68644 121.215 8.71823 121.392 8.75356C125.767 9.62609 129.87 11.3888 133.878 13.3352C135.818 14.2784 137.738 15.264 139.657 16.2142C144.039 18.3867 148.421 20.5592 152.803 22.7317C154.493 22.5587 156.193 22.4527 157.89 22.3926C159.979 22.3149 162.067 22.2972 164.16 22.2796C163.041 21.7391 161.923 21.1986 160.797 20.6617C157.435 19.0579 154.059 17.4789 150.672 15.9246C145.454 13.0844 140.059 10.5728 134.52 8.4109C129.694 6.52454 124.708 4.69116 119.617 3.67379C114.837 2.71648 109.721 2.70235 105.431 5.31641C102.855 6.88485 100.837 9.11741 99.1295 11.5831C96.6739 14.4374 93.6503 18.8813 90.3516 24.226C91.2477 26.077 92.0909 27.9563 92.8742 29.8604C95.3262 25.6567 97.6794 21.3505 100.541 17.4082L100.544 17.4012Z" fill="#273437"/>
<path d="M23.9556 193.381C23.9486 193.222 23.9803 193.056 24.0685 192.883C24.3331 192.357 24.6048 191.834 24.8906 191.322C23.3523 190.445 21.8141 189.562 20.2829 188.672C17.2946 186.931 14.4368 184.783 14.5109 180.985C14.5885 176.884 17.1146 172.991 18.9281 169.459C23.9803 159.617 29.0326 149.776 34.0813 139.938C32.5431 140.792 30.7896 141.262 29.0185 141.245C28.8809 141.509 28.7468 141.774 28.6092 142.039C27.7201 143.767 26.8346 145.498 25.9455 147.225C22.8972 153.163 19.8489 159.105 16.7971 165.043C13.149 172.151 6.59382 182.155 14.1228 189.089C15.5305 190.385 17.1676 191.406 18.8222 192.35C20.2582 193.169 21.6977 193.978 23.1406 194.787C23.2747 194.547 23.4123 194.307 23.5499 194.066C23.684 193.837 23.818 193.611 23.9521 193.381H23.9556Z" fill="#273437"/>
<path d="M75.8717 224.474C76.0799 224.591 76.2845 224.707 76.4927 224.827C77.3994 225.347 78.3097 225.88 79.234 226.403C79.7385 226.689 80.2466 226.968 80.7617 227.24C83.0973 228.476 85.5282 229.522 88.1284 229.893C92.3374 230.493 96.1866 228.883 99.0655 225.816C99.3936 225.467 99.7112 225.106 100.015 224.735C100.022 224.725 100.029 224.718 100.036 224.707C100.173 224.538 100.307 224.368 100.441 224.195C101.786 222.475 102.95 220.595 104.015 218.727C106.591 214.198 108.948 209.531 111.393 204.932C113.407 201.135 115.425 197.341 117.44 193.543C117.595 198.644 118.643 203.717 120.583 208.465C121.053 209.616 122.947 209.111 122.467 207.945C120.132 202.233 119.112 196.083 119.44 189.979C119.504 189.933 119.571 189.894 119.641 189.869C119.786 187.859 120.068 185.857 120.492 183.878C120.696 182.925 120.929 181.978 121.194 181.042C121.783 178.95 122.531 176.902 123.417 174.92C124.658 172.673 125.9 170.43 127.142 168.183C128.472 166.202 129.961 164.333 131.598 162.598C133.373 160.716 135.32 158.995 137.423 157.473C138.288 156.847 139.191 156.258 140.027 155.615C141.512 154.47 142.789 153.152 143.248 151.164C143.375 150.605 143.449 150.04 143.491 149.472C143.566 148.461 143.541 147.44 143.541 146.434C143.541 144.911 143.636 143.399 143.844 141.891C143.911 141.414 143.989 140.941 144.077 140.467C144.469 138.348 145.072 136.285 145.876 134.299C147.132 132.028 148.385 129.76 149.641 127.489C149.655 127.46 149.669 127.436 149.687 127.407C149.69 127.407 149.694 127.407 149.697 127.411C152.605 128.319 155.72 128.301 158.631 127.241C159.805 126.814 159.297 124.921 158.112 125.351C155.543 126.288 152.763 126.376 150.184 125.539C150.117 125.33 150.05 125.122 149.987 124.913C149.581 123.568 149.271 122.204 149.048 120.837C148.837 120.989 148.65 121.201 148.494 121.483C140.486 135.967 132.48 150.45 124.471 164.933C116.431 179.473 108.394 194.013 100.353 208.553C96.9663 214.682 92.8631 223.662 84.7379 224.047C84.3463 224.064 84.0146 224.177 83.743 224.354C82.9244 223.948 82.1306 223.51 81.3685 223.086C77.29 220.811 73.2327 218.504 69.1613 216.215C60.9902 211.612 52.8156 207.009 44.6445 202.406C43.8683 201.972 43.0956 201.537 42.3194 201.103C41.9208 202.396 41.5821 203.699 41.2998 205.017C48.6242 209.143 55.9485 213.265 63.2729 217.391L67.3902 219.712C67.9794 220.044 68.5686 220.376 69.1578 220.708C71.3946 221.969 73.6349 223.227 75.8717 224.488V224.474Z" fill="#273437"/>
<path d="M44.6624 119.315C46.8851 114.987 49.1043 110.66 51.327 106.333C51.334 106.315 51.3446 106.301 51.3517 106.283C49.6899 107.368 47.82 108.117 45.8267 108.487C45.0893 109.925 44.3519 111.363 43.611 112.801C43.5792 112.864 43.5475 112.924 43.5157 112.988C41.3601 117.185 39.2044 121.385 37.0522 125.581C38.0789 126.966 38.7669 128.612 39.0174 130.311C40.8979 126.645 42.7819 122.981 44.6624 119.315Z" fill="#273437"/>
<path d="M176.36 85.7624C176.331 85.7906 176.296 85.8118 176.268 85.8401C175.883 86.1969 175.537 86.5996 175.223 87.0305C175.153 87.1118 175.082 87.1966 175.012 87.2778C173.004 89.6128 171.522 92.3964 170.718 95.3743C169.751 98.9599 169.102 104.75 172.99 106.894C173.83 107.357 174.627 107.533 175.375 107.498C176.236 107.456 177.037 107.127 177.767 106.615C177.866 106.548 177.958 106.474 178.053 106.399C178.536 105.082 179.313 103.849 179.866 102.567C180.791 100.422 181.609 98.2145 182.17 95.9466C182.555 94.3888 182.777 92.7744 182.728 91.1742C182.767 90.3688 182.731 89.5563 182.615 88.7509C182.386 87.1789 181.853 84.5542 180.18 83.8407C179.715 83.6428 179.263 83.6428 178.833 83.7735C178.483 83.8795 178.148 84.0703 177.831 84.307C177.28 84.7167 176.783 85.2643 176.36 85.7624Z" fill="#FFBB9A"/>
<path d="M21.3627 128.354C21.278 128.958 21.3698 129.534 21.7402 130.011C22.6328 131.159 23.8959 130.526 24.8979 129.859C27.3746 128.474 29.7737 126.941 32.0282 125.221C32.321 124.998 32.6068 124.74 32.8361 124.458C33.2877 123.899 33.5241 123.232 33.203 122.469C33.1995 122.455 33.196 122.444 33.1889 122.43C32.6738 121.261 31.3578 121.024 30.2112 121.126C29.0081 121.232 27.8368 121.564 26.7572 122.084C25.727 122.578 24.7814 123.239 23.9594 124.044C23.0774 124.91 21.5885 126.74 21.3592 128.35L21.3627 128.354Z" fill="#FFBB9A"/>
<path d="M51.3514 106.279C51.3514 106.279 51.3338 106.311 51.3267 106.329C54.2233 104.622 56.6542 102.164 57.9243 98.9846C58.7534 96.911 58.958 94.5336 58.5382 92.2834C58.2242 90.5948 57.5574 88.9805 56.5342 87.6275C56.0897 87.0376 55.5781 86.5006 55.003 86.0237C54.5232 85.6281 54.0152 85.296 53.486 85.0205C53.7223 85.7482 53.4718 86.4335 53.0202 86.9881C52.7874 87.2743 52.5051 87.5286 52.2052 87.737C51.6443 88.1256 51.048 88.4788 50.4412 88.8074C48.6983 89.9802 46.8425 90.9728 44.8633 91.704C44.835 91.7464 44.7927 91.7782 44.7362 91.7994C44.3623 91.9231 43.9883 92.0326 43.6108 92.1385C42.764 92.407 41.8926 92.6296 41.0211 92.7426C40.8024 92.7709 40.5872 92.7779 40.379 92.7673C40.0439 92.7815 39.7157 92.7497 39.4088 92.619C38.7349 92.3328 38.435 91.7323 38.4633 91.1176C38.4527 91.0223 38.4456 90.9234 38.4527 90.828C36.671 94.523 36.5475 98.9952 37.6095 102.941C38.0611 104.615 38.7102 106.24 39.4794 107.791C40.185 109.215 40.9753 110.992 42.1431 112.097C42.5806 112.511 43.0957 112.74 43.6214 112.797C44.3587 111.359 45.0961 109.921 45.837 108.484C47.8304 108.113 49.7003 107.364 51.362 106.279H51.3514Z" fill="#FF9881"/>
<path d="M143.492 236.495C142.292 236.863 142.804 238.756 144.01 238.382C149.553 236.679 154.559 233.609 158.592 229.519C158.264 228.925 157.946 228.325 157.636 227.721C153.773 231.79 148.876 234.839 143.488 236.495H143.492Z" fill="#273437"/>
<path d="M104.104 264.586C105.237 264.038 104.245 262.35 103.116 262.894C97.2666 265.723 90.2845 265.653 84.4561 262.894C86.326 264.254 88.4781 265.26 90.722 265.727C90.9442 266.091 91.17 266.451 91.3923 266.815C95.7072 267.242 100.135 266.504 104.101 264.586H104.104Z" fill="#273437"/>
<path d="M109.365 274.753C105.932 276.363 102.27 277.402 98.5156 277.84C98.9319 278.444 99.3483 279.041 99.7716 279.638C103.427 279.098 106.98 278.024 110.349 276.441C111.488 275.908 110.497 274.219 109.361 274.749L109.365 274.753Z" fill="#273437"/>
<path d="M152.802 22.7318C147.182 23.3005 141.671 24.5969 136.682 27.4053C131.034 30.5846 126.44 35.3146 122.736 40.5851C122.376 41.0973 122.027 41.6166 121.684 42.1394C122.753 42.2525 123.805 42.4997 124.814 42.8813C125.237 43.0402 125.657 43.2239 126.063 43.4359C127.097 43.9657 128.07 44.6511 128.945 45.4953C131.757 48.2189 133.161 51.8256 133.44 55.5736C133.465 55.888 133.479 56.2024 133.486 56.5203C133.539 58.6116 133.253 60.7276 132.671 62.7411C130.653 69.7461 125.692 75.278 120.894 80.5521C120.873 80.5768 120.848 80.5909 120.827 80.6121C120.697 80.757 120.552 80.8806 120.383 80.9548C120.093 81.2727 119.804 81.5906 119.515 81.9086C119.391 82.0463 119.25 82.1205 119.109 82.1452C118.823 82.3395 118.491 82.3643 118.121 82.0817C117.458 81.58 116.862 80.9018 116.304 80.2377C113.612 77.4647 111.252 74.3136 109.368 70.9118C108.433 73.7237 107.491 76.5321 106.482 79.3051C105.247 82.6999 103.899 86.0487 102.312 89.2951C100.685 92.6121 98.727 95.6854 96.7548 98.7975C94.8179 101.857 93.0821 105.107 92.6128 108.745C92.2353 111.702 93.0679 114.839 94.8391 117.23C94.9661 117.403 95.1001 117.573 95.2413 117.739C95.2518 117.75 95.2589 117.76 95.2695 117.771C95.4071 117.937 95.5517 118.096 95.6999 118.251C95.7775 118.354 95.8552 118.456 95.9363 118.555C98.1343 121.197 101.468 122.656 104.894 122.169C108.627 121.639 111.82 119.219 114.593 116.81C117.362 114.404 119.825 111.659 121.963 108.678C123 107.23 123.949 105.721 124.807 104.167C125.103 103.754 125.396 103.337 125.685 102.92C125.689 102.913 125.692 102.909 125.696 102.906C125.968 102.514 126.239 102.122 126.511 101.726C126.536 101.691 126.56 101.655 126.585 101.62C126.832 101.26 127.075 100.896 127.315 100.536C127.358 100.472 127.404 100.408 127.446 100.341C127.721 99.9244 127.996 99.5076 128.268 99.0872C132.403 92.7181 136.026 86.0204 139.096 79.0755C141.763 73.0419 143.781 66.6587 147.133 60.9466C148.696 58.2866 150.569 55.8421 152.951 53.8639C155.459 51.7761 158.521 50.4832 161.661 49.699C168.679 47.9434 176.148 48.4203 183.317 48.3496C184.707 48.3355 186.108 48.3143 187.515 48.279C190.271 48.2118 193.051 48.0882 195.821 47.8657C206.243 47.0214 216.545 44.7182 225.044 38.3066C230.04 34.5374 234.203 29.7367 236.595 23.9046C238.906 18.2737 239.463 11.3747 236.461 5.88163C234.954 3.12626 232.368 0.911367 229.249 0.25785C225.446 -0.536967 221.572 0.614635 218.316 2.58931C215.141 4.51454 212.431 7.11094 209.428 9.27991C206.546 11.3641 203.498 13.2187 200.33 14.8366C193.993 18.0688 187.138 20.2661 180.117 21.3859C174.835 22.2301 169.497 22.2407 164.163 22.2831C162.071 22.2973 159.979 22.3185 157.893 22.3962C156.196 22.4598 154.496 22.5657 152.806 22.7353L152.802 22.7318ZM103.73 120.275C103.779 120.222 103.825 120.166 103.867 120.106C104.023 120.116 104.178 120.127 104.337 120.134C104.365 120.134 104.397 120.134 104.425 120.134C104.58 120.141 104.735 120.141 104.887 120.141C104.503 120.212 104.114 120.258 103.73 120.275Z" fill="#87A2C7"/>
<path d="M79.5026 56.7148C79.5308 56.8985 79.5626 57.0893 79.5908 57.2765C79.8201 58.7637 80.0459 60.3604 80.434 61.8935C80.434 61.8935 80.434 61.8935 80.434 61.897C80.628 63.4302 80.8221 64.9668 81.0161 66.4999C81.3619 69.2164 81.6865 71.9683 82.8225 74.4905C83.8492 76.7725 85.7262 78.7436 88.2558 79.2382C90.9019 79.7575 93.615 78.7648 95.6155 77.0304C100.357 72.9185 100.431 65.1399 99.9727 59.4137C99.9691 59.3536 99.9621 59.2936 99.955 59.2335C99.895 57.764 99.761 56.298 99.5599 54.8391C99.5281 54.5988 99.4893 54.3622 99.454 54.1255C99.2353 52.3522 98.879 50.593 98.5473 48.9221C98.505 48.7066 98.4626 48.4911 98.4203 48.2792C97.1855 41.9771 95.3156 35.7952 92.8741 29.8535C92.0909 27.9495 91.2477 26.0702 90.3515 24.2192C89.9775 23.4455 89.5965 22.6754 89.2013 21.9159C87.4232 18.4717 84.4172 14.4482 79.9612 15.9389C75.3147 17.4932 74.2845 22.6366 74.8102 26.9357C75.417 31.8847 76.3414 36.8091 77.1211 41.7334C77.354 43.1959 77.5833 44.6619 77.8161 46.1243C78.2113 48.6112 78.6029 51.0946 78.9981 53.5815C79.1639 54.6236 79.3297 55.6692 79.4955 56.7113L79.5026 56.7148Z" fill="#FFC460"/>
<path d="M183.169 14.5926C186.146 14.8364 189.121 12.7946 191.125 10.774C192.254 9.63651 193.245 8.18817 193.203 6.51729C193.164 4.99477 192.342 3.63122 191.061 2.81874C188.567 1.2397 185.995 1.9886 183.698 3.30623C181.01 4.30946 178.399 5.84258 177.972 8.98299C177.552 12.081 180.304 14.356 183.165 14.5891L183.169 14.5926Z" fill="#FF6651"/>
<path d="M109.396 22.414C109.915 23.3607 110.702 24.1556 111.707 24.6183C114.664 25.9783 118.435 24.099 119.173 20.9162C119.952 17.5462 116.879 14.1055 113.457 14.4199C112.113 14.5436 110.924 15.2218 110.056 16.1933C109.858 16.3416 109.678 16.5289 109.534 16.7443C109.149 17.306 108.902 17.9313 108.775 18.5812C108.521 19.5598 108.532 20.6054 108.895 21.6016C109.008 21.9124 109.181 22.188 109.396 22.4176V22.414Z" fill="#FF9881"/>
<path d="M221.798 55.0048C221.784 51.0272 217.014 49.971 213.895 50.0098C210.286 50.0557 206.081 51.2815 203.523 53.9627C202.14 55.4146 201.335 57.474 202.09 59.4275C202.845 61.3739 204.952 62.8435 207.054 62.1582C209.482 62.5361 211.997 62.3772 214.35 61.6989C217.385 60.8229 221.812 58.721 221.798 55.0048Z" fill="#763E47"/>
<path d="M181.083 79.8456C181.849 81.1279 182.876 82.2336 183.931 83.2933C185.204 84.5686 186.418 85.8014 187.286 87.4016C188.147 88.9913 188.627 90.7575 188.937 92.5309C189.607 96.3707 189.128 100.235 189.332 104.096C189.551 108.282 191.181 112.543 195.372 114.146C199.44 115.704 203.24 112.776 204.584 109.021C205.318 106.968 205.357 104.697 205.322 102.542C205.29 100.528 205.156 98.5185 204.926 96.5155C204.461 92.4991 203.66 88.532 202.46 84.671C199.906 76.4332 195.718 68.7711 190.182 62.1724C189.639 63.3275 189.092 64.4826 188.531 65.6307C186.189 70.442 183.705 75.1791 181.083 79.8456Z" fill="#763E47"/>
<path d="M193.856 132.385C187.491 133.183 181.366 136.475 176.691 140.955C176.762 141.965 176.822 142.979 176.854 143.996C176.967 147.624 176.734 151.245 175.993 154.802C175.22 158.49 173.992 162.062 172.825 165.64C171.632 169.293 170.584 172.963 169.889 176.746C169.177 180.632 168.753 184.564 168.369 188.495C167.384 198.556 166.481 209.305 162.191 218.529C162.819 220.232 163.719 221.814 165.003 223.139C167.458 225.675 171.191 227.109 174.698 226.424C178.53 225.675 180.788 222.224 181.218 218.543C181.708 214.382 179.817 210.591 178.043 206.967C176.328 203.47 175.139 199.821 174.892 195.907C174.419 188.389 176.984 181.264 182.171 175.817C187.029 170.716 193.136 167.056 198.365 162.376C203.554 157.731 208.018 151.722 207.989 144.455C207.979 141.184 206.956 137.825 204.588 135.483C201.766 132.689 197.687 131.908 193.859 132.388L193.856 132.385Z" fill="#87A2C7"/>
<path d="M193.101 175.602C191.016 175.556 189.121 176.856 187.971 178.52C187.11 179.767 186.718 181.225 186.468 182.706C185.783 184.422 185.427 186.266 185.515 188.121C185.603 190.043 186.242 192.021 187.946 193.102C189.463 194.063 191.379 193.957 192.963 193.247C194.66 192.484 195.838 190.958 196.579 189.287C197.341 187.563 198.012 185.669 198.326 183.808C198.643 181.921 198.548 179.975 197.539 178.293C196.59 176.718 194.963 175.641 193.104 175.598L193.101 175.602Z" fill="#FFC460"/>
<path d="M69.1614 179.184L71.2395 185.461C72.8906 185.083 74.5418 184.719 76.2 184.376C81.7144 183.235 87.2677 182.292 92.8491 181.55C93.6394 181.444 94.4297 181.345 95.22 181.247C95.22 181.024 95.1248 180.798 94.8848 180.604C89.6562 176.425 84.1629 172.592 78.4403 169.123C75.5896 167.396 72.686 165.753 69.7365 164.199C67.8419 163.199 65.6721 162.001 63.5376 162.206L64.3949 164.799L69.1543 179.18L69.1614 179.184Z" fill="#FFC460"/>
<path d="M88.0159 150.03C84.4278 149.143 80.6528 148.119 77.6891 145.798C74.655 143.421 72.9721 139.821 72.5487 136.034C71.4938 126.652 76.3555 118.255 79.8484 109.925C81.7465 105.4 83.4223 100.546 83.5035 95.5868C83.5387 93.3189 82.9284 90.938 80.9668 89.5991C78.924 88.2038 76.3202 88.7725 74.3974 90.0831C72.2841 91.5208 70.8058 93.5591 69.257 95.5514C67.5741 97.7169 65.9158 99.9035 64.3 102.122C61.1176 106.485 58.0764 110.946 55.1798 115.503C49.6407 124.214 44.2533 133.636 43.6394 144.187C43.1595 152.446 46.4724 161.292 53.2041 166.322C54.4671 167.265 55.8466 168.021 57.3037 168.608C57.4166 168.721 57.5331 168.834 57.6495 168.95C58.7397 166.993 59.8757 165.061 61.0541 163.157C61.2129 162.902 61.4281 162.765 61.6539 162.719C61.7245 162.705 61.795 162.698 61.8691 162.698C62.423 162.419 62.984 162.267 63.545 162.214C65.6795 162.009 67.8493 163.206 69.7438 164.206C72.6933 165.76 75.597 167.403 78.4477 169.13C84.1703 172.599 89.6635 176.432 94.8922 180.611C95.1321 180.802 95.2309 181.031 95.2274 181.254C95.2274 181.296 95.2274 181.335 95.2168 181.378C95.5555 181.907 95.8025 182.49 95.9224 183.13C95.9683 183.384 95.9965 183.649 96 183.921C96.0177 186.097 94.6841 188.135 93.7068 189.993C93.3151 190.739 92.9165 191.477 92.5178 192.219C92.9447 192.268 93.3751 192.307 93.8126 192.325C98.4027 192.509 102.682 190.336 105.6 186.853C111.291 180.067 112.776 169.554 108.694 161.603C104.633 153.7 95.8801 151.976 88.0265 150.037L88.0159 150.03Z" fill="#FF6651"/>
<path d="M137.092 110.165C133.737 108.756 130.215 110.455 128.028 113.101C127.894 113.263 127.763 113.429 127.633 113.595C127.608 113.627 127.587 113.659 127.562 113.691C127.456 113.829 127.354 113.97 127.252 114.108C127.245 114.118 127.238 114.129 127.227 114.139C125.534 116.481 124.242 119.081 121.871 120.851C117.856 121.823 113.842 122.791 109.83 123.769C107.847 124.253 105.713 124.825 104.298 126.408C103.098 127.75 102.573 129.566 103.261 131.283C104.711 134.893 109.664 135.914 113.058 136.299C117.461 136.8 121.981 136.059 126.116 134.497C126.783 134.296 127.446 134.07 128.099 133.823C128.116 133.816 128.137 133.808 128.155 133.801C128.448 133.688 128.737 133.572 129.026 133.448C129.069 133.43 129.115 133.413 129.157 133.395C129.482 133.257 129.803 133.113 130.124 132.964C130.286 132.886 130.448 132.809 130.614 132.727C130.671 132.699 130.727 132.671 130.787 132.639C130.893 132.586 131.002 132.53 131.108 132.473C131.179 132.438 131.249 132.399 131.32 132.36C131.415 132.311 131.507 132.261 131.602 132.208C131.68 132.166 131.757 132.123 131.835 132.078C131.92 132.032 132.004 131.982 132.085 131.933C132.17 131.883 132.258 131.834 132.343 131.784C132.41 131.745 132.477 131.703 132.544 131.664C132.918 131.438 133.292 131.205 133.662 130.958C133.691 130.937 133.722 130.919 133.751 130.901C133.878 130.816 134.001 130.732 134.125 130.643C134.153 130.622 134.185 130.601 134.213 130.58C134.343 130.488 134.47 130.396 134.601 130.304C134.619 130.29 134.636 130.279 134.654 130.265C135.522 129.629 136.365 128.937 137.152 128.188C137.155 128.185 137.159 128.181 137.162 128.178C137.822 127.676 138.475 127.16 139.117 126.63C139.459 126.351 139.508 125.998 139.389 125.694C139.494 125.553 139.6 125.408 139.703 125.263C139.703 125.26 139.706 125.256 139.71 125.253C140.115 124.68 140.479 124.087 140.796 123.472C140.803 123.458 140.814 123.44 140.821 123.426C140.884 123.303 140.944 123.179 141.004 123.052C141.029 123.002 141.05 122.953 141.075 122.904C141.128 122.791 141.177 122.674 141.227 122.561C141.255 122.497 141.28 122.434 141.304 122.37C141.347 122.261 141.393 122.155 141.431 122.045C141.46 121.971 141.484 121.897 141.512 121.823C141.548 121.72 141.587 121.618 141.618 121.515C141.657 121.395 141.692 121.272 141.728 121.151C141.763 121.031 141.795 120.911 141.826 120.788C141.855 120.671 141.883 120.558 141.911 120.441C141.929 120.364 141.943 120.282 141.957 120.201C141.978 120.088 141.999 119.979 142.017 119.866C142.031 119.784 142.042 119.707 142.052 119.625C142.07 119.509 142.084 119.392 142.095 119.276C142.102 119.198 142.112 119.124 142.116 119.046C142.126 118.915 142.133 118.785 142.14 118.657C142.14 118.594 142.148 118.527 142.151 118.463C142.155 118.269 142.158 118.071 142.151 117.873C142.052 114.645 140.112 111.43 137.092 110.162V110.165Z" fill="#3D7A61"/>
<path d="M80.0812 132.529C79.7601 132.784 79.5096 133.137 79.3614 133.55C78.7969 135.136 79.0651 136.867 79.8871 138.284C79.8871 138.284 79.8871 138.291 79.8907 138.294C79.9012 138.316 79.9153 138.337 79.9259 138.358C79.9365 138.372 79.9436 138.386 79.9542 138.404C79.9789 138.446 80.0035 138.485 80.0318 138.524C80.4798 139.22 81.062 139.831 81.7464 140.301C84.0256 141.852 87.2044 141.198 88.9544 139.153C90.8101 136.984 90.8419 133.932 88.9014 131.802C87.1339 129.859 84.0644 129.223 81.817 130.71C81.0902 131.191 80.5081 131.819 80.0776 132.533L80.0812 132.529Z" fill="#FFC460"/>
<path d="M42.4183 200.753C43.3462 197.818 44.6092 195.063 46.0593 192.353C46.1475 192.191 46.2357 192.025 46.3204 191.859C46.3486 191.806 46.3768 191.753 46.4015 191.7C46.4615 191.587 46.5215 191.474 46.5779 191.36C46.6132 191.293 46.645 191.23 46.6802 191.163C46.7332 191.06 46.7825 190.958 46.8355 190.855C46.8708 190.785 46.906 190.71 46.9413 190.64C46.9907 190.541 47.0366 190.446 47.086 190.347C47.1212 190.272 47.1565 190.195 47.1953 190.121C47.2412 190.025 47.2871 189.93 47.3294 189.834C47.3647 189.757 47.4 189.679 47.4352 189.601C47.4776 189.506 47.5199 189.414 47.5623 189.319C47.5975 189.237 47.6293 189.16 47.6646 189.078C47.7034 188.983 47.7422 188.891 47.781 188.796C47.8128 188.715 47.8445 188.633 47.8798 188.552C47.9151 188.457 47.9539 188.365 47.9892 188.27C48.0209 188.188 48.0491 188.103 48.0809 188.022C48.1162 187.927 48.1479 187.831 48.1797 187.736C48.2079 187.651 48.2361 187.57 48.2608 187.485C48.2926 187.39 48.3208 187.295 48.349 187.196C48.3737 187.111 48.3984 187.03 48.4231 186.945C48.4513 186.846 48.476 186.751 48.5007 186.652C48.5219 186.567 48.5431 186.486 48.5642 186.401C48.5889 186.302 48.6101 186.199 48.6313 186.097C48.6489 186.016 48.6666 185.931 48.6842 185.85C48.7054 185.744 48.7195 185.638 48.7371 185.532C48.7512 185.454 48.7653 185.373 48.7759 185.295C48.7936 185.179 48.8042 185.058 48.8183 184.942C48.8253 184.875 48.8359 184.804 48.843 184.737C48.8606 184.55 48.8712 184.363 48.8818 184.175C49.4921 181.703 49.6121 179.106 48.1832 176.934C46.0663 173.712 42.0655 174.037 39.0983 175.814C36.0783 177.622 33.351 180.166 30.9943 182.762C28.634 185.362 26.5841 188.238 24.8942 191.315C24.6119 191.83 24.3367 192.35 24.0721 192.876C23.9874 193.049 23.9522 193.215 23.9592 193.374C23.8251 193.6 23.6875 193.83 23.557 194.059C23.4194 194.3 23.2818 194.536 23.1477 194.78C21.8988 197.023 20.8157 199.362 19.9195 201.785C16.1903 211.884 16.2185 223.432 20.7169 233.277C22.7844 237.806 26.3407 242.801 31.7246 243.296C36.798 243.762 40.6789 239.339 41.7303 234.733C43.0533 228.939 40.6824 223.012 40.3543 217.229C40.1215 213.121 40.4425 209.009 41.3034 205C41.5856 203.682 41.9279 202.378 42.323 201.085C42.3583 200.972 42.3901 200.859 42.4253 200.75L42.4183 200.753Z" fill="#3D7A61"/>
<path d="M54.3999 224.4C52.2619 224.697 50.7589 226.541 50.6319 228.48C50.6107 228.575 50.5931 228.674 50.579 228.773C50.2262 231.74 50.1803 234.874 52.3184 237.216C54.3435 239.434 57.7516 239.777 59.9461 237.597C64.0458 233.528 60.7435 223.52 54.3999 224.396V224.4Z" fill="#FF9881"/>
<path d="M162.476 56.7887C159.968 55.8597 156.99 57.4917 156.129 59.8726C154.369 62.0628 152.926 64.5532 153.476 67.4887C154.041 70.4984 156.891 72.8864 160.003 71.9962C163.03 71.1307 165.578 67.6441 166.255 64.6698C166.971 61.5329 165.652 57.9615 162.476 56.7887Z" fill="#FFC460"/>
<path d="M95.993 183.91C95.993 183.638 95.9612 183.373 95.9154 183.119C95.245 183.2 94.5747 183.285 93.9043 183.369C89.7906 183.903 85.6874 184.546 81.6089 185.302C81.6406 186.192 81.683 187.082 81.7324 187.972C81.9476 191.946 82.318 195.913 82.8508 199.856C82.9531 200.612 83.0625 201.368 83.1754 202.124C83.253 202.159 83.3306 202.191 83.4118 202.226C84.3714 202.929 85.8603 202.717 86.7705 201.894C87.5044 201.233 87.9665 200.304 88.4534 199.464C89.0779 198.386 89.6953 197.305 90.3057 196.217C91.0536 194.885 91.784 193.547 92.5072 192.204C92.9059 191.462 93.3046 190.724 93.6962 189.979C94.6735 188.121 96.0071 186.082 95.9895 183.906L95.993 183.91Z" fill="#FFC460"/>
<path d="M81.7284 187.976C81.679 187.086 81.6367 186.196 81.6049 185.306C85.6834 184.55 89.7831 183.907 93.9004 183.373C94.5707 183.285 95.2411 183.204 95.9114 183.122C95.795 182.483 95.548 181.904 95.2058 181.37C95.2128 181.331 95.2164 181.289 95.2164 181.247C94.4261 181.346 93.6358 181.445 92.8455 181.551C87.264 182.292 81.7108 183.236 76.1963 184.377C74.5381 184.719 72.887 185.08 71.2358 185.461L69.1578 179.184L64.3983 164.803L63.541 162.21C62.9765 162.263 62.4156 162.415 61.8652 162.694C61.7946 162.694 61.7205 162.701 61.65 162.715C61.8828 163.415 62.1121 164.11 62.345 164.81C63.6786 168.837 65.0122 172.868 66.3459 176.895C66.494 177.343 66.6422 177.792 66.7904 178.237C62.7013 180.092 58.6122 181.95 54.5232 183.804C53.8952 184.09 53.2672 184.373 52.6392 184.659C53.0908 185.196 53.6447 185.655 54.2268 186.076C54.9324 185.758 55.6345 185.436 56.3401 185.118C60.0305 183.444 63.7174 181.77 67.4078 180.095L69.6517 186.87C69.821 187.386 70.315 187.679 70.8548 187.556C73.388 186.962 75.9317 186.415 78.4826 185.906C78.8777 185.828 79.2729 185.747 79.6715 185.669C79.6856 186.016 79.7033 186.365 79.7209 186.712C79.9079 190.795 80.2572 194.868 80.7723 198.923C80.8676 199.683 80.9699 200.442 81.0792 201.202C81.7778 201.513 82.4764 201.82 83.1785 202.124C83.0656 201.368 82.9562 200.612 82.8539 199.856C82.3211 195.91 81.9507 191.947 81.7355 187.973L81.7284 187.976Z" fill="#273437"/>
<path d="M29.7279 161.687C29.0999 162.104 28.5953 162.648 28.2249 163.263C27.9462 163.482 27.7309 163.789 27.6039 164.146C27.1171 165.52 27.3464 167.014 28.0591 168.24C28.0591 168.24 28.0591 168.247 28.0626 168.25C28.0732 168.268 28.0838 168.286 28.0943 168.303C28.1014 168.318 28.1085 168.328 28.1155 168.342C28.1367 168.378 28.1579 168.413 28.1825 168.448C28.5671 169.052 29.0716 169.579 29.6679 169.985C31.6401 171.327 34.3885 170.759 35.9056 168.992C37.5109 167.117 37.5356 164.478 35.8597 162.634C34.332 160.952 31.6754 160.401 29.7279 161.691V161.687Z" fill="#FF6651"/>
<path d="M39.4018 92.6192C39.7087 92.7499 40.0404 92.7817 40.372 92.7676C40.5802 92.7817 40.7954 92.7711 41.0141 92.7429C41.882 92.6298 42.7535 92.4073 43.6038 92.1388C43.9813 92.0328 44.3552 91.9233 44.7292 91.7997C44.7892 91.782 44.828 91.7467 44.8562 91.7043C46.832 90.9731 48.6913 89.984 50.4342 88.8076C51.041 88.4791 51.6373 88.1294 52.1982 87.7373C52.4981 87.5288 52.7804 87.278 53.0132 86.9884C53.4648 86.4302 53.7153 85.7449 53.4789 85.0208C53.4578 84.9607 53.4366 84.8971 53.4119 84.8335C52.9144 83.6925 51.5738 83.5194 50.4765 83.4806C49.0053 83.4276 47.4953 83.7031 46.1193 84.2083C45.6712 84.3708 45.2302 84.5615 44.7998 84.7664C43.2615 85.5047 41.8432 86.508 40.5837 87.6631C40.185 88.0269 39.804 88.4085 39.4371 88.8006C38.929 89.3481 38.4774 90.0899 38.4457 90.8212C38.4421 90.9201 38.4457 91.0155 38.4562 91.1108C38.428 91.722 38.7279 92.3225 39.4018 92.6122V92.6192Z" fill="#FFBB9A"/>
<path d="M23.3418 112.854C23.0878 112.454 22.7879 112.158 22.3928 111.896C22.3504 111.868 22.3081 111.847 22.2622 111.822C22.0576 111.72 21.8283 111.614 21.6025 111.557C21.1262 111.437 20.6605 111.444 20.1806 111.55C20.0395 111.582 19.9443 111.631 19.7926 111.695C19.6408 111.758 19.5244 111.797 19.3974 111.882C18.6001 112.423 18.1343 113.242 18.1202 114.214C18.1167 114.553 18.1943 114.924 18.3319 115.252C18.3637 115.351 18.399 115.446 18.4378 115.545C18.5789 115.881 18.7553 116.174 19.0234 116.432C19.1716 116.573 19.3762 116.732 19.5562 116.835C19.5773 116.845 19.5985 116.852 19.6161 116.863C19.7855 116.944 20.0148 117.061 20.1983 117.107C20.9533 117.29 21.7048 117.195 22.3857 116.821C22.4739 116.771 22.6327 116.633 22.6539 116.619C22.6539 116.619 22.8514 116.481 22.9185 116.414C23.0737 116.259 23.2183 116.065 23.3383 115.884C23.3665 115.842 23.3877 115.8 23.4124 115.754C23.5112 115.545 23.6241 115.319 23.6735 115.09C23.7828 114.563 23.7828 114.178 23.6735 113.655C23.6629 113.606 23.6488 113.556 23.6311 113.507C23.5535 113.288 23.4688 113.051 23.3418 112.854Z" fill="#273437"/>
<path d="M15.0087 112.391C15.2168 110.66 16.5187 109.039 18.124 108.403C19.8951 107.703 22.0085 108.152 23.3915 109.441C24.8133 110.762 26.9513 108.632 25.526 107.304C23.3139 105.245 19.9727 104.439 17.1185 105.57C14.229 106.714 12.3591 109.335 11.9922 112.391C11.8934 113.203 12.7542 113.903 13.5022 113.903C14.3983 113.903 14.9134 113.207 15.0122 112.391H15.0087Z" fill="#273437"/>
<path d="M23.9381 102.21C24.6825 102.535 25.5575 102.429 26.0021 101.669C26.376 101.03 26.2102 99.9314 25.4623 99.6029C21.7154 97.9602 17.3511 97.3173 13.4667 98.914C10.1538 100.278 7.39834 103.072 6.61863 106.643C6.20584 108.537 9.113 109.349 9.52932 107.445C10.0973 104.845 12.0307 102.754 14.4722 101.744C17.4817 100.493 21.0168 100.928 23.9416 102.21H23.9381Z" fill="#273437"/>
<path d="M24.8274 95.5549C25.5895 95.841 26.4821 95.237 26.6832 94.4987C26.916 93.6509 26.3939 92.9302 25.6283 92.6406C20.4349 90.6871 14.5394 90.4469 9.39191 92.6759C5.04881 94.5552 1.52423 98.2326 0.0777026 102.768C-0.51502 104.623 2.39567 105.418 2.98839 103.57C4.18795 99.8151 7.23976 96.8231 10.8384 95.3182C15.3085 93.4495 20.3749 93.8805 24.8274 95.5549Z" fill="#273437"/>
<path d="M255.636 117.562C253.519 115.895 250.566 115.213 248.043 114.422C245.105 113.5 242.127 112.694 239.128 111.995C233.038 110.575 226.847 109.575 220.634 108.883C218.069 108.597 215.25 108.431 212.956 109.837C210.723 111.207 209.513 113.69 208.522 116.018C207.343 118.791 206.496 121.706 206.077 124.691C205.752 127.001 205.706 129.626 207.121 131.615C207.509 132.159 207.971 132.604 208.486 132.982C208.582 133.084 208.702 133.169 208.85 133.229C210.42 134.239 212.381 134.702 214.131 135.239C216.174 135.864 218.224 136.468 220.284 137.044C218.249 139.206 215.818 140.905 213.066 142.088C212.254 142.435 212.561 143.667 213.299 143.879C219.737 145.72 226.833 144.148 231.938 139.852C234.284 140.315 236.641 140.711 239.012 141.018C241.054 141.424 243.122 141.792 245.182 141.862C247.853 141.954 250.376 141.262 252.443 139.527C254.429 137.856 255.721 135.479 256.493 133.035C257.361 130.29 257.714 127.312 257.947 124.451C258.155 121.882 257.774 119.244 255.636 117.559V117.562ZM224.049 125.62C223.209 125.973 222.278 125.811 221.569 125.26C221.547 125.249 221.526 125.238 221.505 125.228C220.108 124.398 219.935 122.388 220.976 121.215C222.087 119.964 224.144 120.286 225.104 121.529C226.13 122.861 225.601 124.963 224.045 125.62H224.049ZM232.248 127.344C231.408 127.697 230.477 127.534 229.768 126.983C229.747 126.973 229.726 126.962 229.704 126.952C228.307 126.121 228.134 124.111 229.175 122.939C230.287 121.688 232.343 122.01 233.303 123.253C234.33 124.585 233.801 126.687 232.245 127.344H232.248ZM240.447 129.17C239.608 129.523 238.676 129.361 237.967 128.81C237.946 128.799 237.925 128.788 237.904 128.778C236.507 127.948 236.334 125.938 237.374 124.765C238.486 123.514 240.543 123.836 241.502 125.079C242.529 126.411 242 128.513 240.444 129.17H240.447Z" fill="#FFC460"/>
<path d="M220.98 121.218C219.939 122.391 220.108 124.401 221.509 125.231C221.53 125.245 221.551 125.253 221.572 125.263C222.282 125.811 223.213 125.977 224.053 125.623C225.609 124.966 226.138 122.865 225.111 121.533C224.151 120.289 222.095 119.971 220.983 121.218H220.98Z" fill="#F9F2F1"/>
<path d="M229.179 122.942C228.138 124.115 228.308 126.125 229.708 126.955C229.729 126.97 229.751 126.977 229.772 126.987C230.481 127.535 231.412 127.701 232.252 127.348C233.808 126.69 234.337 124.589 233.31 123.257C232.351 122.013 230.294 121.696 229.182 122.942H229.179Z" fill="#F9F2F1"/>
<path d="M237.382 124.765C236.341 125.938 236.51 127.948 237.911 128.778C237.932 128.792 237.953 128.799 237.974 128.81C238.683 129.358 239.615 129.524 240.455 129.17C242.01 128.513 242.54 126.411 241.513 125.08C240.553 123.836 238.496 123.518 237.385 124.765H237.382Z" fill="#F9F2F1"/>
<path d="M28.574 38.5643C29.1984 43.4321 31.9151 47.8337 36.0359 50.536C36.798 51.0341 37.5318 50.0839 37.1931 49.3774C35.9477 46.7986 35.7819 43.8772 36.6075 41.1643C37.0097 41.2314 37.4154 41.2879 37.8247 41.3267C40.1109 41.5493 42.4253 41.4327 44.708 41.2384C46.712 41.0689 48.723 40.8075 50.6705 40.2953C54.495 39.2885 57.9384 37.2043 59.9988 33.746C61.9957 30.3936 62.6026 26.3065 62.3203 22.4595C62.0275 18.4148 60.7785 14.2853 57.3386 11.8373C53.6941 9.24438 48.7371 9.08895 44.4363 9.0289C43.2862 9.01124 42.129 9.0395 40.9788 9.13135C40.8659 9.07836 40.7248 9.05363 40.5554 9.07836C39.9556 9.15607 39.3594 9.26558 38.7737 9.39275C36.3111 9.79193 33.9367 10.562 31.8304 11.915C29.2761 13.2397 27.071 15.2179 25.4763 17.6694C22.7244 21.9014 22.2904 27.3097 24.0756 32.0044C25.0318 34.5196 26.5488 36.791 28.5775 38.5608L28.574 38.5643ZM34.3354 18.9765C35.5279 18.2276 36.9321 18.5914 38.0928 19.1955C39.8075 20.0857 41.194 21.4563 42.2031 23.0777C42.9792 21.1525 44.0624 19.3509 46.0593 18.4961C48.4408 17.4787 51.0057 18.4042 51.9195 20.8876C52.9144 23.5864 51.3903 26.582 49.9296 28.804C48.409 31.1142 46.4333 33.0642 44.1294 34.5867C43.7166 34.8587 43.3179 34.7068 43.0886 34.4065C42.9545 34.4065 42.8099 34.3712 42.6652 34.2864C40.2802 32.9158 38.1351 31.1284 36.3958 28.9912C35.5596 27.9668 34.8046 26.8752 34.159 25.7201C33.5027 24.5437 32.8183 23.2084 32.8571 21.8237C32.8888 20.7286 33.3828 19.5735 34.3354 18.9765Z" fill="#FF6651"/>
<path d="M118.826 80.1247C118.368 79.6231 117.909 79.125 117.447 78.6234C112.79 73.7485 109.149 67.7468 107.304 61.2646C106.372 57.9935 106.037 54.4221 107.247 51.1757C107.851 49.5578 108.754 48.0671 109.893 46.7812C110.486 46.1101 111.146 45.4954 111.858 44.9443C111.791 44.9867 111.724 45.0256 111.657 45.068C109.096 46.7035 107.106 49.1586 106.041 52.0094C105.952 52.2496 105.871 52.4933 105.801 52.7371C104.675 55.9305 105.014 59.4206 105.924 62.6246C106.743 65.5001 107.914 68.2802 109.371 70.9084C111.255 74.3102 113.615 77.4577 116.307 80.2342C116.868 80.8983 117.461 81.5766 118.124 82.0782C118.498 82.3608 118.826 82.3361 119.112 82.1418C119.253 82.1171 119.391 82.0429 119.518 81.9051C119.807 81.5872 120.097 81.2693 120.386 80.9513C120.336 80.9725 120.284 80.9902 120.231 81.0043C119.599 81.135 119.2 80.5345 118.826 80.1283V80.1247Z" fill="#273437"/>
<path d="M112.864 44.2379C112.518 44.4604 112.183 44.6971 111.859 44.9444C111.146 45.4919 110.486 46.1101 109.893 46.7813C108.757 48.0671 107.851 49.5578 107.247 51.1757C106.037 54.4221 106.372 57.9935 107.304 61.2646C109.149 67.7468 112.79 73.7486 117.447 78.6234C117.906 79.1251 118.364 79.6231 118.827 80.1248C119.201 80.531 119.599 81.1351 120.231 81.0008C120.287 80.9902 120.337 80.9726 120.386 80.9478C120.555 80.8737 120.704 80.75 120.831 80.6052C120.852 80.584 120.876 80.5699 120.898 80.5451C125.696 75.2711 130.653 69.7427 132.674 62.7342C133.257 60.7206 133.539 58.6046 133.489 56.5134C133.482 56.1955 133.468 55.8811 133.444 55.5667C133.165 51.8187 131.757 48.212 128.949 45.4884C128.074 44.6406 127.104 43.9588 126.066 43.4289C125.661 43.2205 125.241 43.0368 124.817 42.8743C123.808 42.4928 122.757 42.2491 121.688 42.1325C118.671 41.811 115.528 42.5352 112.864 44.2343V44.2379ZM124.083 52.4121C126.55 54.4221 126.998 58.0112 125.054 60.5299C123.138 63.0168 119.589 63.5078 117.034 61.6921C114.483 59.8799 113.947 56.2767 115.616 53.6909C115.679 53.592 115.757 53.5178 115.838 53.4613C115.87 53.3694 115.923 53.2776 115.997 53.1893C118.033 50.8825 121.66 50.4374 124.083 52.4086V52.4121Z" fill="#FF6651"/>
<path d="M115.997 53.1893C115.919 53.2741 115.87 53.3659 115.838 53.4613C115.757 53.5178 115.68 53.592 115.616 53.6909C113.947 56.2767 114.483 59.8799 117.034 61.6921C119.592 63.5078 123.138 63.0132 125.054 60.5299C126.998 58.0077 126.55 54.4186 124.083 52.4121C121.66 50.4375 118.036 50.8861 115.997 53.1928V53.1893Z" fill="#F9F2F1"/>
</g>
<defs>
<clipPath id="clip0_1353_27312">
<rect width="258" height="310" fill="white"/>
</clipPath>
</defs>
</svg>
