<svg width="353" height="305" viewBox="0 0 353 305" fill="none" xmlns="http://www.w3.org/2000/svg"><path fill-rule="evenodd" clip-rule="evenodd" d="M25 117.892c0 5.391 3.594 8.984 8.984 8.984 5.391 0 8.985-3.593 8.985-8.984V81.954c0-5.391 3.594-8.985 8.985-8.985h35.938c5.39 0 8.984-3.594 8.984-8.984 0-5.391-3.593-8.985-8.984-8.985H51.954C37.578 55 25 67.578 25 81.954v35.938Zm26.954 186.593h35.938c5.39 0 8.984-3.594 8.984-8.984 0-5.391-3.593-8.985-8.984-8.985H51.954c-5.391 0-8.985-3.594-8.985-8.984v-35.939c0-5.39-3.594-8.984-8.985-8.984-5.39 0-8.984 3.594-8.984 8.984v35.939c0 14.375 12.578 26.953 26.954 26.953Zm233.092 0h-35.938c-5.39 0-8.984-3.594-8.984-8.984 0-5.391 3.594-8.985 8.984-8.985h35.938c5.391 0 8.985-3.594 8.985-8.984v-35.939c0-5.39 3.594-8.984 8.985-8.984 5.39 0 8.984 3.594 8.984 8.984v35.939c0 14.375-12.578 26.953-26.954 26.953Zm8.985-186.593c0 5.391 3.594 8.984 8.985 8.984 5.39 0 8.984-3.593 8.984-8.984V81.954C312 67.578 299.422 55 285.046 55h-35.938c-5.39 0-8.984 3.594-8.984 8.984 0 5.391 3.594 8.985 8.984 8.985h35.938c5.391 0 8.985 3.594 8.985 8.985v35.938Z" fill="#B0DAEE"/><path d="M317 180h-21v21h21v-21Zm-3.502 17.501h-13.999v-13.999h13.999v13.999Z" fill="#CBE3EE"/><path d="M312 186h-11v10h11v-10Zm-207-65h23V98h-23v23Zm3.832-19.165h15.333v15.333h-15.333v-15.333ZM190 153h30v-30h-30v30Zm4.999-24.997h19.998v19.998h-19.998v-19.998ZM256 265h17v-17h-17v17Zm2.833-14.165h11.332v11.332h-11.332v-11.332Z" fill="#CBE3EE"/><path d="M122 104h-11v12h11v-12Zm90.174 26.826h-14.348v15.652h14.348v-15.652ZM269 252h-9v9h9v-9ZM212.5 3v39.5H252V3h-39.5Zm32.913 32.918h-26.331V9.587h26.331v26.331ZM17 159v49h49v-49H17Zm40.83 40.835H25.163v-32.664H57.83v32.664ZM114 260v16.5h16.5V260H114Zm13.749 13.751h-11v-11h11v11Z" fill="#CBE3EE"/><path d="M242.443 13.194h-19.75v19.75h19.75v-19.75ZM54.145 171.646h-24.5v24.5h24.5v-24.5Zm72.363 92.612h-8.25v8.25h8.25v-8.25ZM72.582 112.293a3.29 3.29 0 1 0-6.582 0 3.291 3.291 0 0 0 6.582 0Zm-66 41a3.29 3.29 0 1 0-6.582 0 3.291 3.291 0 0 0 6.582 0ZM144.727 3.439c-.47-1.803-2.277-2.874-4.033-2.39-1.756.482-2.795 2.336-2.324 4.139.471 1.803 2.271 2.87 4.027 2.387 1.756-.483 2.801-2.333 2.33-4.136Zm114.936 208.768a3.29 3.29 0 1 0-6.582 0 3.29 3.29 0 1 0 6.582 0Zm-66 41a3.29 3.29 0 1 0-6.582 0 3.29 3.29 0 1 0 6.582 0Zm157.63-200.398c-.471-1.803-2.273-2.876-4.029-2.393-1.756.483-2.799 2.339-2.329 4.141.471 1.803 2.278 2.874 4.034 2.39 1.756-.482 2.794-2.336 2.324-4.139ZM131.288 202.332a3.29 3.29 0 1 0 0-6.582 3.286 3.286 0 0 0-3.288 3.288 3.287 3.287 0 0 0 3.288 3.294Zm-66 41a3.292 3.292 0 1 0 .003-6.584 3.292 3.292 0 0 0-.003 6.584ZM224.737 77.126c1.756-.483 2.801-2.333 2.329-4.14-.471-1.803-2.276-2.87-4.032-2.386-1.756.483-2.796 2.332-2.325 4.134.471 1.808 2.272 2.876 4.028 2.392Zm-1.281 105.456a3.29 3.29 0 1 0 0-6.582 3.29 3.29 0 1 0 0 6.582Zm-66 41a3.29 3.29 0 1 0 0-6.582 3.29 3.29 0 1 0 0 6.582ZM308.653 33.051c1.756-.483 2.8-2.334 2.329-4.14-.471-1.804-2.277-2.87-4.033-2.387-1.755.483-2.8 2.334-2.329 4.136.471 1.808 2.278 2.874 4.033 2.391Z" fill="#CBE3EE"/></svg>