<svg width="302" height="229" viewBox="0 0 302 229" fill="none" xmlns="http://www.w3.org/2000/svg"><circle cx="158.298" cy="107.233" r="73.756" fill="#FBB76C" stroke="#FB8500" stroke-width="5.68"/><path d="M216.003 88.477c-34.985-49.159-82.12-31.162-101.314-16.018l-1.926-9.71c57.965-36.18 92.979 2.077 103.24 25.728Z" fill="#fff"/><path d="M103.586 39.392 129.118 0l5.836 10.213c97.458-27.429 126.2 44.498 128.388 83.89l-19.696-5.106C230.807 14.88 171.184 17.264 142.978 27.72l7.295 14.59-46.687-2.918Zm96.665 150.221-30.968 35.279-4.296-10.951C64.584 226.965 46.563 151.634 50.103 112.34l18.749 7.906c1.969 75.193 61.308 81.471 90.732 75.21l-5.105-15.492 45.772 9.649Z" fill="#219EBC"/><circle cx="59.088" cy="79.513" r="56.721" fill="#CBE3EE" stroke="#219EBC" stroke-width="4.733"/><path d="m72.877 79.209.008-.004.007-.005a2.719 2.719 0 0 0-2.717-4.706l-.008.004-.007.004-15.981 9.227-3.934-6.814-.005-.007-.004-.007a2.72 2.72 0 0 0-4.706 2.717l.004.007.004.007L50.83 88.8a2.719 2.719 0 0 0 3.711.995l18.335-10.586Z" fill="#219EBC" stroke="#83BEDA" stroke-width=".947"/><path d="m50.32 108.914.276-.384C37.34 99.014 31.08 85.029 35.252 69.46l3.893-14.53a.27.27 0 0 1 .193-.192c5.266 1.456 9.37 2.18 13.375 2.003 4.006-.177 7.877-1.256 12.682-3.353a.264.264 0 0 1 .035.009c2.734 3.879 5.432 6.536 8.844 8.67 3.413 2.135 7.52 3.733 13.042 5.521a.275.275 0 0 1 .079.272l-3.893 14.528C79.33 97.96 66.917 106.94 50.679 108.552a.132.132 0 0 1-.084-.023l-.275.385Zm0 0a.602.602 0 0 0 .405.109l14.58-56.113c-9.64 4.226-15.35 4.281-25.933 1.346a.745.745 0 0 0-.684.552l-3.893 14.53c-4.231 15.79 2.137 29.966 15.525 39.576Zm18.234-59.957-.045-.052-.057-.038a5.713 5.713 0 0 0-3.406-.912l-.07.004-.067.024c-5.222 1.904-9.257 2.995-13.164 3.236-3.899.241-7.703-.364-12.461-1.899l-.083-.026-.087.004a5.713 5.713 0 0 0-5.221 4.225l-3.894 14.53c-4.856 18.123 2.658 34.293 17.427 44.896v.001a5.578 5.578 0 0 0 3.787 1.014c18.091-1.802 32.685-12.044 37.541-30.168l3.894-14.53a5.715 5.715 0 0 0-2.41-6.27l-.069-.044-.08-.02c-4.348-1.018-7.682-2.13-10.945-4.164-3.267-2.037-6.492-5.016-10.59-9.811Z" fill="#219EBC" stroke="#83BEDA" stroke-width=".947"/><path fill-rule="evenodd" clip-rule="evenodd" d="M130.12 98.17a16.477 16.477 0 0 1 7.989-14.108 16.527 16.527 0 0 1 16.228-.45 16.457 16.457 0 0 1 7.081 21.853 16.484 16.484 0 0 1-5.508 6.323 27.004 27.004 0 0 1 12.609 9.543 26.933 26.933 0 0 1 5.093 14.955 2.241 2.241 0 0 1-.611 1.608 2.256 2.256 0 0 1-3.183.095 2.246 2.246 0 0 1-.707-1.568 22.439 22.439 0 0 0-6.825-15.438 22.525 22.525 0 0 0-15.666-6.338 22.525 22.525 0 0 0-15.666 6.338 22.439 22.439 0 0 0-6.825 15.438 2.247 2.247 0 0 1-2.313 2.13 2.251 2.251 0 0 1-2.185-2.262 26.94 26.94 0 0 1 5.092-14.957 27.015 27.015 0 0 1 12.61-9.544 16.46 16.46 0 0 1-7.213-13.618Zm16.502-11.98a12.01 12.01 0 0 0-8.486 3.509 11.967 11.967 0 0 0 0 16.942 12.013 12.013 0 0 0 16.972 0 11.973 11.973 0 0 0 3.515-8.471c0-3.177-1.265-6.224-3.515-8.471a12.014 12.014 0 0 0-8.486-3.509Z" fill="#219EBC"/><path d="M171.614 97.9c-.431 0-.851.03-1.265.09a2.116 2.116 0 0 1-.872-.021 2.158 2.158 0 0 1-.795-.372 2.221 2.221 0 0 1-.59-.663 2.334 2.334 0 0 1 .145-2.558c.181-.24.406-.44.662-.587.257-.148.54-.24.832-.273a12.84 12.84 0 0 1 8.405 1.637c2.549 1.494 4.545 3.823 5.673 6.619a14.09 14.09 0 0 1 .562 8.826c-.765 2.925-2.448 5.504-4.785 7.331 3.435 1.591 6.353 4.176 8.399 7.443a20.666 20.666 0 0 1 3.135 10.97c0 .599-.23 1.175-.641 1.599a2.15 2.15 0 0 1-1.546.662 2.15 2.15 0 0 1-1.546-.662c-.41-.424-.641-1-.641-1.599 0-3.365-1.048-6.639-2.989-9.339-1.941-2.701-4.671-4.682-7.787-5.652l-1.557-.483v-5.053l1.196-.63a9.006 9.006 0 0 0 4.024-4.311 9.416 9.416 0 0 0 .576-5.962 9.18 9.18 0 0 0-3.12-5.049 8.653 8.653 0 0 0-5.475-1.963Z" fill="#219EBC"/><circle cx="242.91" cy="147.355" r="56.721" fill="#CBE3EE" stroke="#219EBC" stroke-width="4.733"/><path d="m259.608 143.504.006-.006.006-.006a3.062 3.062 0 0 0-2.112-5.175 3.062 3.062 0 0 0-2.151.79l-.006.006-.006.006-15.291 14.864-6.366-6.549-.006-.006-.006-.006a3.06 3.06 0 0 0-4.385 4.263l.006.006.006.006 8.498 8.742a3.057 3.057 0 0 0 4.324.061l17.483-16.996Z" fill="#219EBC" stroke="#83BEDA" stroke-width=".947"/><path d="m246.239 111.058-.056-.039-.065-.022a6.507 6.507 0 0 0-4.016-.057l-.068.021-.059.04c-5.295 3.601-9.498 5.964-13.802 7.339-4.297 1.373-8.724 1.772-14.477 1.401l-.087-.006-.083.026a6.512 6.512 0 0 0-4.587 6.124l-.244 17.323c-.305 21.572 12.626 37.481 32.089 45.142a6.348 6.348 0 0 0 4.464.063h.001c19.667-7.111 33.046-22.645 33.351-44.218l.245-17.322a6.508 6.508 0 0 0-4.412-6.251l-.078-.027-.083.002c-5.145.089-9.19-.211-13.419-1.564-4.233-1.355-8.682-3.776-14.614-7.975Zm-15.469 13.037c4.417-1.327 8.431-3.623 13.206-7.326a.365.365 0 0 1 .099.001c4.149 3.563 7.908 5.767 12.315 7.185 4.409 1.418 9.443 2.042 16.119 2.48a.388.388 0 0 1 .217.353l-.244 17.321c-.263 18.599-11.611 32.153-29.309 38.546a.212.212 0 0 1-.151-.002c-17.511-6.891-28.472-20.763-28.209-39.359l.245-17.322a.383.383 0 0 1 .216-.341c6.297.14 11.081-.209 15.496-1.536Z" fill="#219EBC" stroke="#83BEDA" stroke-width=".947"/></svg>