<svg width="22" height="22" viewBox="0 0 22 22" fill="none" xmlns="http://www.w3.org/2000/svg">
<path d="M15.464 14.4929L11.5767 12.2686V7.23056C11.5767 6.7857 11.2076 6.42981 10.7462 6.42981H10.677C10.2156 6.42981 9.84652 6.7857 9.84652 7.23056V12.4799C9.84652 12.8692 10.0541 13.2362 10.4117 13.4364L14.6219 15.872C15.0141 16.0944 15.5216 15.9832 15.7523 15.6051C15.9946 15.2158 15.8677 14.7154 15.464 14.4929ZM21.5889 3.10446L18.0362 0.257342C17.5518 -0.131912 16.8251 -0.0763047 16.4098 0.401923C16.0061 0.869028 16.0753 1.56969 16.5598 1.97006L20.1009 4.81718C20.5854 5.20644 21.3121 5.15083 21.7273 4.6726C22.1426 4.2055 22.0734 3.50484 21.5889 3.10446ZM1.88753 4.81718L5.42871 1.97006C5.9247 1.56969 5.99391 0.869028 5.57866 0.401923C5.17494 -0.0763047 4.44825 -0.131912 3.96379 0.257342L0.411079 3.10446C-0.0733811 3.50484 -0.14259 4.2055 0.272662 4.6726C0.676379 5.15083 1.40307 5.20644 1.88753 4.81718ZM11 1.98118C5.26722 1.98118 0.618705 6.46317 0.618705 11.9906C0.618705 17.518 5.26722 22 11 22C16.7328 22 21.3813 17.518 21.3813 11.9906C21.3813 6.46317 16.7328 1.98118 11 1.98118ZM11 19.7757C6.54758 19.7757 2.92566 16.2835 2.92566 11.9906C2.92566 7.69767 6.54758 4.2055 11 4.2055C15.4524 4.2055 19.0743 7.69767 19.0743 11.9906C19.0743 16.2835 15.4524 19.7757 11 19.7757Z" fill="#898989"/>
</svg>
