<svg width="343" height="52" viewBox="0 0 343 52" fill="none" xmlns="http://www.w3.org/2000/svg"><path stroke="#00A9FF" d="M.5.5h336v45H.5z"/><path stroke="#00A9FF" d="M6.5 6.5h336v45H6.5z"/><path d="M88.85 29.66c.065.256.097.576.097.96 0 .368-.032.688-.096.96h-.96c.064.256.096.576.096.96 0 .368-.032.688-.096.96h-4.8a4.23 4.23 0 0 1-.096-.96c0-.384.032-.704.096-.96h-.96a4.23 4.23 0 0 1-.096-.96c0-.384.032-.704.096-.96h-.96a4.23 4.23 0 0 1-.096-.96c0-.384.032-.704.096-.96a4.23 4.23 0 0 1-.096-.96c0-.384.032-.704.096-.96a4.23 4.23 0 0 1-.096-.96c0-.384.032-.704.096-.96h.96a4.23 4.23 0 0 1-.096-.96c0-.384.032-.704.096-.96h.96a4.23 4.23 0 0 1-.096-.96c0-.384.032-.704.096-.96h4.8c.064.256.096.576.096.96 0 .368-.032.688-.096.96h.96c.064.256.096.576.096.96 0 .368-.032.688-.096.96h-1.92a4.23 4.23 0 0 1-.096-.96c0-.384.032-.704.096-.96h-2.88c.064.256.096.576.096.96 0 .368-.032.688-.096.96h-.96c.064.256.096.576.096.96 0 .368-.032.688-.096.96.064.256.096.576.096.96 0 .368-.032.688-.096.96.064.256.096.576.096.96 0 .368-.032.688-.096.96h.96c.064.256.096.576.096.96 0 .368-.032.688-.096.96h2.88a4.23 4.23 0 0 1-.096-.96c0-.384.032-.704.096-.96h1.92Zm9.706-.96c0 .368-.032.688-.096.96h-.72c.064.256.096.576.096.96 0 .368-.032.688-.096.96h-1.2c.064.256.096.576.096.96 0 .368-.032.688-.096.96H92.7a4.23 4.23 0 0 1-.096-.96c0-.384.032-.704.096-.96h-1.2a4.23 4.23 0 0 1-.096-.96c0-.384.032-.704.096-.96h-.72a4.23 4.23 0 0 1-.096-.96c0-.384.032-.704.096-.96h.72a4.23 4.23 0 0 1-.096-.96c0-.384.032-.704.096-.96h1.2a4.23 4.23 0 0 1-.096-.96c0-.384.032-.704.096-.96h3.84c.064.256.096.576.096.96 0 .368-.032.688-.096.96h1.2c.064.256.096.576.096.96 0 .368-.032.688-.096.96h.72c.064.256.096.576.096.96Zm-2.016.96a4.23 4.23 0 0 1-.096-.96c0-.384.032-.704.096-.96h-.72a4.23 4.23 0 0 1-.096-.96c0-.384.032-.704.096-.96h-2.4c.064.256.096.576.096.96 0 .368-.032.688-.096.96h-.72c.064.256.096.576.096.96 0 .368-.032.688-.096.96h.72c.064.256.096.576.096.96 0 .368-.032.688-.096.96h2.4a4.23 4.23 0 0 1-.096-.96c0-.384.032-.704.096-.96h.72Zm5.626-4.8c0 .368-.032.688-.096.96h.96c.064.256.096.576.096.96 0 .368-.032.688-.096.96h-.72c.064.256.096.576.096.96 0 .368-.032.688-.096.96.064.256.096.576.096.96 0 .368-.032.688-.096.96.064.256.096.576.096.96 0 .368-.032.688-.096.96h-1.92a4.23 4.23 0 0 1-.096-.96c0-.384.032-.704.096-.96a4.23 4.23 0 0 1-.096-.96c0-.384.032-.704.096-.96a4.23 4.23 0 0 1-.096-.96c0-.384.032-.704.096-.96a4.23 4.23 0 0 1-.096-.96c0-.384.032-.704.096-.96a4.23 4.23 0 0 1-.096-.96c0-.384.032-.704.096-.96h1.68c.064.256.096.576.096.96Zm5.904 2.88c.064.256.096.576.096.96 0 .368-.032.688-.096.96.064.256.096.576.096.96 0 .368-.032.688-.096.96.064.256.096.576.096.96 0 .368-.032.688-.096.96h-1.92a4.23 4.23 0 0 1-.096-.96c0-.384.032-.704.096-.96a4.23 4.23 0 0 1-.096-.96c0-.384.032-.704.096-.96a4.23 4.23 0 0 1-.096-.96c0-.384.032-.704.096-.96a4.23 4.23 0 0 1-.096-.96c0-.384.032-.704.096-.96h-3.12a4.23 4.23 0 0 1-.096-.96c0-.384.032-.704.096-.96h3.84c.064.256.096.576.096.96 0 .368-.032.688-.096.96h1.2c.064.256.096.576.096.96 0 .368-.032.688-.096.96Zm3.705-2.88c0 .368-.032.688-.096.96h.96c.064.256.096.576.096.96 0 .368-.032.688-.096.96h-.72c.064.256.096.576.096.96 0 .368-.032.688-.096.96.064.256.096.576.096.96 0 .368-.032.688-.096.96.064.256.096.576.096.96 0 .368-.032.688-.096.96h-1.92a4.23 4.23 0 0 1-.096-.96c0-.384.032-.704.096-.96a4.23 4.23 0 0 1-.096-.96c0-.384.032-.704.096-.96a4.23 4.23 0 0 1-.096-.96c0-.384.032-.704.096-.96a4.23 4.23 0 0 1-.096-.96c0-.384.032-.704.096-.96a4.23 4.23 0 0 1-.096-.96c0-.384.032-.704.096-.96h1.68c.064.256.096.576.096.96Zm5.904 2.88c.064.256.096.576.096.96 0 .368-.032.688-.096.96.064.256.096.576.096.96 0 .368-.032.688-.096.96.064.256.096.576.096.96 0 .368-.032.688-.096.96h-1.92a4.23 4.23 0 0 1-.096-.96c0-.384.032-.704.096-.96a4.23 4.23 0 0 1-.096-.96c0-.384.032-.704.096-.96a4.23 4.23 0 0 1-.096-.96c0-.384.032-.704.096-.96a4.23 4.23 0 0 1-.096-.96c0-.384.032-.704.096-.96h-3.12a4.23 4.23 0 0 1-.096-.96c0-.384.032-.704.096-.96h3.84c.064.256.096.576.096.96 0 .368-.032.688-.096.96h1.2c.064.256.096.576.096.96 0 .368-.032.688-.096.96Zm9.705-.96c0 .368-.032.688-.096.96.064.256.096.576.096.96 0 .368-.032.688-.096.96h-5.04c.064.256.096.576.096.96 0 .368-.032.688-.096.96h4.08c.064.256.096.576.096.96 0 .368-.032.688-.096.96h-4.8a4.23 4.23 0 0 1-.096-.96c0-.384.032-.704.096-.96h-1.2a4.23 4.23 0 0 1-.096-.96c0-.384.032-.704.096-.96h-.72a4.23 4.23 0 0 1-.096-.96c0-.384.032-.704.096-.96h.72a4.23 4.23 0 0 1-.096-.96c0-.384.032-.704.096-.96h1.2a4.23 4.23 0 0 1-.096-.96c0-.384.032-.704.096-.96h4.8c.064.256.096.576.096.96 0 .368-.032.688-.096.96h.96c.064.256.096.576.096.96Zm-2.016.96a4.23 4.23 0 0 1-.096-.96c0-.384.032-.704.096-.96h-3.12c.064.256.096.576.096.96 0 .368-.032.688-.096.96h3.12Zm11.53 1.92c.064.256.096.576.096.96 0 .368-.032.688-.096.96h-.96c.064.256.096.576.096.96 0 .368-.032.688-.096.96h-4.8a4.23 4.23 0 0 1-.096-.96c0-.384.032-.704.096-.96h-.96a4.23 4.23 0 0 1-.096-.96c0-.384.032-.704.096-.96h-.96a4.23 4.23 0 0 1-.096-.96c0-.384.032-.704.096-.96h.96a4.23 4.23 0 0 1-.096-.96c0-.384.032-.704.096-.96h.96a4.23 4.23 0 0 1-.096-.96c0-.384.032-.704.096-.96h4.8c.064.256.096.576.096.96 0 .368-.032.688-.096.96h.96c.064.256.096.576.096.96 0 .368-.032.688-.096.96h-1.92a4.23 4.23 0 0 1-.096-.96c0-.384.032-.704.096-.96h-2.88c.064.256.096.576.096.96 0 .368-.032.688-.096.96h-.96c.064.256.096.576.096.96 0 .368-.032.688-.096.96h.96c.064.256.096.576.096.96 0 .368-.032.688-.096.96h2.88a4.23 4.23 0 0 1-.096-.96c0-.384.032-.704.096-.96h1.92Zm8.649 1.92c.064.256.096.576.096.96 0 .368-.032.688-.096.96h-3.84a4.23 4.23 0 0 1-.096-.96c0-.384.032-.704.096-.96h-.96a4.23 4.23 0 0 1-.096-.96c0-.384.032-.704.096-.96a4.23 4.23 0 0 1-.096-.96c0-.384.032-.704.096-.96a4.23 4.23 0 0 1-.096-.96c0-.384.032-.704.096-.96h-1.92a4.23 4.23 0 0 1-.096-.96c0-.384.032-.704.096-.96h1.92a4.23 4.23 0 0 1-.096-.96c0-.384.032-.704.096-.96a4.23 4.23 0 0 1-.096-.96c0-.384.032-.704.096-.96h1.92c.064.256.096.576.096.96 0 .368-.032.688-.096.96.064.256.096.576.096.96 0 .368-.032.688-.096.96h2.88c.064.256.096.576.096.96 0 .368-.032.688-.096.96h-2.88c.064.256.096.576.096.96 0 .368-.032.688-.096.96.064.256.096.576.096.96 0 .368-.032.688-.096.96.064.256.096.576.096.96 0 .368-.032.688-.096.96h2.88Zm20.275-6.72c0 .368-.032.688-.096.96h-.72c.064.256.096.576.096.96 0 .368-.032.688-.096.96h-.72c.064.256.096.576.096.96 0 .368-.032.688-.096.96h-.48c.064.256.096.576.096.96 0 .368-.032.688-.096.96h-.72c.064.256.096.576.096.96 0 .368-.032.688-.096.96h-.48c.064.256.096.576.096.96 0 .368-.032.688-.096.96h-.96c.064.256.096.576.096.96 0 .368-.032.688-.096.96h-2.88a4.23 4.23 0 0 1-.096-.96c0-.384.032-.704.096-.96h1.92a4.23 4.23 0 0 1-.096-.96c0-.384.032-.704.096-.96a4.23 4.23 0 0 1-.096-.96c0-.384.032-.704.096-.96h-.96a4.23 4.23 0 0 1-.096-.96c0-.384.032-.704.096-.96h-.48a4.23 4.23 0 0 1-.096-.96c0-.384.032-.704.096-.96h-.72a4.23 4.23 0 0 1-.096-.96c0-.384.032-.704.096-.96h-.72a4.23 4.23 0 0 1-.096-.96c0-.384.032-.704.096-.96h1.92c.064.256.096.576.096.96 0 .368-.032.688-.096.96h.72c.064.256.096.576.096.96 0 .368-.032.688-.096.96h.72c.064.256.096.576.096.96 0 .368-.032.688-.096.96.064.256.096.576.096.96 0 .368-.032.688-.096.96h.72a4.23 4.23 0 0 1-.096-.96c0-.384.032-.704.096-.96h.48a4.23 4.23 0 0 1-.096-.96c0-.384.032-.704.096-.96h.72a4.23 4.23 0 0 1-.096-.96c0-.384.032-.704.096-.96h.72a4.23 4.23 0 0 1-.096-.96c0-.384.032-.704.096-.96h1.92c.064.256.096.576.096.96Zm9.609 3.84c0 .368-.032.688-.096.96h-.72c.064.256.096.576.096.96 0 .368-.032.688-.096.96h-1.2c.064.256.096.576.096.96 0 .368-.032.688-.096.96h-3.84a4.23 4.23 0 0 1-.096-.96c0-.384.032-.704.096-.96h-1.2a4.23 4.23 0 0 1-.096-.96c0-.384.032-.704.096-.96h-.72a4.23 4.23 0 0 1-.096-.96c0-.384.032-.704.096-.96h.72a4.23 4.23 0 0 1-.096-.96c0-.384.032-.704.096-.96h1.2a4.23 4.23 0 0 1-.096-.96c0-.384.032-.704.096-.96h3.84c.064.256.096.576.096.96 0 .368-.032.688-.096.96h1.2c.064.256.096.576.096.96 0 .368-.032.688-.096.96h.72c.064.256.096.576.096.96Zm-2.016.96a4.23 4.23 0 0 1-.096-.96c0-.384.032-.704.096-.96h-.72a4.23 4.23 0 0 1-.096-.96c0-.384.032-.704.096-.96h-2.4c.064.256.096.576.096.96 0 .368-.032.688-.096.96h-.72c.064.256.096.576.096.96 0 .368-.032.688-.096.96h.72c.064.256.096.576.096.96 0 .368-.032.688-.096.96h2.4a4.23 4.23 0 0 1-.096-.96c0-.384.032-.704.096-.96h.72Zm6.586.96c0 .368-.032.688-.096.96h2.4c.064.256.096.576.096.96 0 .368-.032.688-.096.96h-3.84a4.23 4.23 0 0 1-.096-.96c0-.384.032-.704.096-.96h-1.2a4.23 4.23 0 0 1-.096-.96c0-.384.032-.704.096-.96a4.23 4.23 0 0 1-.096-.96c0-.384.032-.704.096-.96a4.23 4.23 0 0 1-.096-.96c0-.384.032-.704.096-.96a4.23 4.23 0 0 1-.096-.96c0-.384.032-.704.096-.96h1.92c.064.256.096.576.096.96 0 .368-.032.688-.096.96.064.256.096.576.096.96 0 .368-.032.688-.096.96.064.256.096.576.096.96 0 .368-.032.688-.096.96h.72c.064.256.096.576.096.96Zm4.944-4.8c.064.256.096.576.096.96 0 .368-.032.688-.096.96.064.256.096.576.096.96 0 .368-.032.688-.096.96.064.256.096.576.096.96 0 .368-.032.688-.096.96.064.256.096.576.096.96 0 .368-.032.688-.096.96h-1.92a4.23 4.23 0 0 1-.096-.96c0-.384.032-.704.096-.96h-.72a4.23 4.23 0 0 1-.096-.96c0-.384.032-.704.096-.96h.72a4.23 4.23 0 0 1-.096-.96c0-.384.032-.704.096-.96a4.23 4.23 0 0 1-.096-.96c0-.384.032-.704.096-.96a4.23 4.23 0 0 1-.096-.96c0-.384.032-.704.096-.96h1.92c.064.256.096.576.096.96 0 .368-.032.688-.096.96Zm9.609 0c.064.256.096.576.096.96 0 .368-.032.688-.096.96h-1.92a4.23 4.23 0 0 1-.096-.96c0-.384.032-.704.096-.96h-1.68c.064.256.096.576.096.96 0 .368-.032.688-.096.96h-.72c.064.256.096.576.096.96 0 .368-.032.688-.096.96.064.256.096.576.096.96 0 .368-.032.688-.096.96h1.44c.064.256.096.576.096.96 0 .368-.032.688-.096.96h-4.8a4.23 4.23 0 0 1-.096-.96c0-.384.032-.704.096-.96h1.44a4.23 4.23 0 0 1-.096-.96c0-.384.032-.704.096-.96a4.23 4.23 0 0 1-.096-.96c0-.384.032-.704.096-.96a4.23 4.23 0 0 1-.096-.96c0-.384.032-.704.096-.96h-1.44a4.23 4.23 0 0 1-.096-.96c0-.384.032-.704.096-.96h2.4c.064.256.096.576.096.96 0 .368-.032.688-.096.96h.96a4.23 4.23 0 0 1-.096-.96c0-.384.032-.704.096-.96h3.6c.064.256.096.576.096.96 0 .368-.032.688-.096.96h.72Zm19.315-.96c0 .368-.032.688-.096.96.064.256.096.576.096.96 0 .368-.032.688-.096.96h-.72c.064.256.096.576.096.96 0 .368-.032.688-.096.96.064.256.096.576.096.96 0 .368-.032.688-.096.96h-.48c.064.256.096.576.096.96 0 .368-.032.688-.096.96h-1.44a4.23 4.23 0 0 1-.096-.96c0-.384.032-.704.096-.96h-.48a4.23 4.23 0 0 1-.096-.96c0-.384.032-.704.096-.96h-1.44c.064.256.096.576.096.96 0 .368-.032.688-.096.96h-.48c.064.256.096.576.096.96 0 .368-.032.688-.096.96h-1.44a4.23 4.23 0 0 1-.096-.96c0-.384.032-.704.096-.96h-.48a4.23 4.23 0 0 1-.096-.96c0-.384.032-.704.096-.96a4.23 4.23 0 0 1-.096-.96c0-.384.032-.704.096-.96h-.72a4.23 4.23 0 0 1-.096-.96c0-.384.032-.704.096-.96a4.23 4.23 0 0 1-.096-.96c0-.384.032-.704.096-.96h1.92c.064.256.096.576.096.96 0 .368-.032.688-.096.96.064.256.096.576.096.96 0 .368-.032.688-.096.96.064.256.096.576.096.96 0 .368-.032.688-.096.96h.72a4.23 4.23 0 0 1-.096-.96c0-.384.032-.704.096-.96h.48a4.23 4.23 0 0 1-.096-.96c0-.384.032-.704.096-.96a4.23 4.23 0 0 1-.096-.96c0-.384.032-.704.096-.96h1.44c.064.256.096.576.096.96 0 .368-.032.688-.096.96.064.256.096.576.096.96 0 .368-.032.688-.096.96h.48c.064.256.096.576.096.96 0 .368-.032.688-.096.96h.72a4.23 4.23 0 0 1-.096-.96c0-.384.032-.704.096-.96a4.23 4.23 0 0 1-.096-.96c0-.384.032-.704.096-.96a4.23 4.23 0 0 1-.096-.96c0-.384.032-.704.096-.96h1.92c.064.256.096.576.096.96Zm9.513 6.72c.064.256.096.576.096.96 0 .368-.032.688-.096.96h-1.92a4.23 4.23 0 0 1-.096-.96c0-.384.032-.704.096-.96h-.96a4.23 4.23 0 0 1-.096-.96c0-.384.032-.704.096-.96h-2.88c.064.256.096.576.096.96 0 .368-.032.688-.096.96h2.88c.064.256.096.576.096.96 0 .368-.032.688-.096.96h-3.84a4.23 4.23 0 0 1-.096-.96c0-.384.032-.704.096-.96h-.96a4.23 4.23 0 0 1-.096-.96c0-.384.032-.704.096-.96h.96a4.23 4.23 0 0 1-.096-.96c0-.384.032-.704.096-.96h3.84a4.23 4.23 0 0 1-.096-.96c0-.384.032-.704.096-.96h-3.36a4.23 4.23 0 0 1-.096-.96c0-.384.032-.704.096-.96h4.32c.064.256.096.576.096.96 0 .368-.032.688-.096.96h.96c.064.256.096.576.096.96 0 .368-.032.688-.096.96.064.256.096.576.096.96 0 .368-.032.688-.096.96.064.256.096.576.096.96 0 .368-.032.688-.096.96h.96Zm8.65 0c.064.256.096.576.096.96 0 .368-.032.688-.096.96h-5.76a4.23 4.23 0 0 1-.096-.96c0-.384.032-.704.096-.96h1.92a4.23 4.23 0 0 1-.096-.96c0-.384.032-.704.096-.96a4.23 4.23 0 0 1-.096-.96c0-.384.032-.704.096-.96a4.23 4.23 0 0 1-.096-.96c0-.384.032-.704.096-.96a4.23 4.23 0 0 1-.096-.96c0-.384.032-.704.096-.96a4.23 4.23 0 0 1-.096-.96c0-.384.032-.704.096-.96h-1.44a4.23 4.23 0 0 1-.096-.96c0-.384.032-.704.096-.96h3.36c.064.256.096.576.096.96 0 .368-.032.688-.096.96.064.256.096.576.096.96 0 .368-.032.688-.096.96.064.256.096.576.096.96 0 .368-.032.688-.096.96.064.256.096.576.096.96 0 .368-.032.688-.096.96.064.256.096.576.096.96 0 .368-.032.688-.096.96.064.256.096.576.096.96 0 .368-.032.688-.096.96h1.92Zm9.609 0c.064.256.096.576.096.96 0 .368-.032.688-.096.96h-5.76a4.23 4.23 0 0 1-.096-.96c0-.384.032-.704.096-.96h1.92a4.23 4.23 0 0 1-.096-.96c0-.384.032-.704.096-.96a4.23 4.23 0 0 1-.096-.96c0-.384.032-.704.096-.96a4.23 4.23 0 0 1-.096-.96c0-.384.032-.704.096-.96a4.23 4.23 0 0 1-.096-.96c0-.384.032-.704.096-.96a4.23 4.23 0 0 1-.096-.96c0-.384.032-.704.096-.96h-1.44a4.23 4.23 0 0 1-.096-.96c0-.384.032-.704.096-.96h3.36c.064.256.096.576.096.96 0 .368-.032.688-.096.96.064.256.096.576.096.96 0 .368-.032.688-.096.96.064.256.096.576.096.96 0 .368-.032.688-.096.96.064.256.096.576.096.96 0 .368-.032.688-.096.96.064.256.096.576.096.96 0 .368-.032.688-.096.96.064.256.096.576.096.96 0 .368-.032.688-.096.96h1.92Zm10.665-4.8c0 .368-.032.688-.096.96.064.256.096.576.096.96 0 .368-.032.688-.096.96h-5.04c.064.256.096.576.096.96 0 .368-.032.688-.096.96h4.08c.064.256.096.576.096.96 0 .368-.032.688-.096.96h-4.8a4.23 4.23 0 0 1-.096-.96c0-.384.032-.704.096-.96h-1.2a4.23 4.23 0 0 1-.096-.96c0-.384.032-.704.096-.96h-.72a4.23 4.23 0 0 1-.096-.96c0-.384.032-.704.096-.96h.72a4.23 4.23 0 0 1-.096-.96c0-.384.032-.704.096-.96h1.2a4.23 4.23 0 0 1-.096-.96c0-.384.032-.704.096-.96h4.8c.064.256.096.576.096.96 0 .368-.032.688-.096.96h.96c.064.256.096.576.096.96Zm-2.016.96a4.23 4.23 0 0 1-.096-.96c0-.384.032-.704.096-.96h-3.12c.064.256.096.576.096.96 0 .368-.032.688-.096.96h3.12Zm10.57 3.84c.064.256.096.576.096.96 0 .368-.032.688-.096.96h-3.84a4.23 4.23 0 0 1-.096-.96c0-.384.032-.704.096-.96h-.96a4.23 4.23 0 0 1-.096-.96c0-.384.032-.704.096-.96a4.23 4.23 0 0 1-.096-.96c0-.384.032-.704.096-.96a4.23 4.23 0 0 1-.096-.96c0-.384.032-.704.096-.96h-1.92a4.23 4.23 0 0 1-.096-.96c0-.384.032-.704.096-.96h1.92a4.23 4.23 0 0 1-.096-.96c0-.384.032-.704.096-.96a4.23 4.23 0 0 1-.096-.96c0-.384.032-.704.096-.96h1.92c.064.256.096.576.096.96 0 .368-.032.688-.096.96.064.256.096.576.096.96 0 .368-.032.688-.096.96h2.88c.064.256.096.576.096.96 0 .368-.032.688-.096.96h-2.88c.064.256.096.576.096.96 0 .368-.032.688-.096.96.064.256.096.576.096.96 0 .368-.032.688-.096.96.064.256.096.576.096.96 0 .368-.032.688-.096.96h2.88Z" fill="#99F0FF"/></svg>