<svg width="343" height="52" viewBox="0 0 343 52" fill="none" xmlns="http://www.w3.org/2000/svg">
<rect x="0.5" y="0.5" width="336" height="45" stroke="#00A9FF"/>
<rect x="6.5" y="6.5" width="336" height="45" stroke="#00A9FF"/>
<path d="M88.8509 29.66C88.9149 29.916 88.9469 30.236 88.9469 30.62C88.9469 30.988 88.9149 31.308 88.8509 31.58H87.8909C87.9549 31.836 87.9869 32.156 87.9869 32.54C87.9869 32.908 87.9549 33.228 87.8909 33.5H83.0909C83.0269 33.228 82.9949 32.908 82.9949 32.54C82.9949 32.156 83.0269 31.836 83.0909 31.58H82.1309C82.0669 31.308 82.0349 30.988 82.0349 30.62C82.0349 30.236 82.0669 29.916 82.1309 29.66H81.1709C81.1069 29.388 81.0749 29.068 81.0749 28.7C81.0749 28.316 81.1069 27.996 81.1709 27.74C81.1069 27.468 81.0749 27.148 81.0749 26.78C81.0749 26.396 81.1069 26.076 81.1709 25.82C81.1069 25.548 81.0749 25.228 81.0749 24.86C81.0749 24.476 81.1069 24.156 81.1709 23.9H82.1309C82.0669 23.628 82.0349 23.308 82.0349 22.94C82.0349 22.556 82.0669 22.236 82.1309 21.98H83.0909C83.0269 21.708 82.9949 21.388 82.9949 21.02C82.9949 20.636 83.0269 20.316 83.0909 20.06H87.8909C87.9549 20.316 87.9869 20.636 87.9869 21.02C87.9869 21.388 87.9549 21.708 87.8909 21.98H88.8509C88.9149 22.236 88.9469 22.556 88.9469 22.94C88.9469 23.308 88.9149 23.628 88.8509 23.9H86.9309C86.8669 23.628 86.8349 23.308 86.8349 22.94C86.8349 22.556 86.8669 22.236 86.9309 21.98H84.0509C84.1149 22.236 84.1469 22.556 84.1469 22.94C84.1469 23.308 84.1149 23.628 84.0509 23.9H83.0909C83.1549 24.156 83.1869 24.476 83.1869 24.86C83.1869 25.228 83.1549 25.548 83.0909 25.82C83.1549 26.076 83.1869 26.396 83.1869 26.78C83.1869 27.148 83.1549 27.468 83.0909 27.74C83.1549 27.996 83.1869 28.316 83.1869 28.7C83.1869 29.068 83.1549 29.388 83.0909 29.66H84.0509C84.1149 29.916 84.1469 30.236 84.1469 30.62C84.1469 30.988 84.1149 31.308 84.0509 31.58H86.9309C86.8669 31.308 86.8349 30.988 86.8349 30.62C86.8349 30.236 86.8669 29.916 86.9309 29.66H88.8509ZM98.5563 28.7C98.5563 29.068 98.5243 29.388 98.4603 29.66H97.7403C97.8043 29.916 97.8363 30.236 97.8363 30.62C97.8363 30.988 97.8043 31.308 97.7403 31.58H96.5403C96.6043 31.836 96.6363 32.156 96.6363 32.54C96.6363 32.908 96.6043 33.228 96.5403 33.5H92.7003C92.6363 33.228 92.6043 32.908 92.6043 32.54C92.6043 32.156 92.6363 31.836 92.7003 31.58H91.5003C91.4363 31.308 91.4043 30.988 91.4043 30.62C91.4043 30.236 91.4363 29.916 91.5003 29.66H90.7803C90.7163 29.388 90.6843 29.068 90.6843 28.7C90.6843 28.316 90.7163 27.996 90.7803 27.74H91.5003C91.4363 27.468 91.4043 27.148 91.4043 26.78C91.4043 26.396 91.4363 26.076 91.5003 25.82H92.7003C92.6363 25.548 92.6043 25.228 92.6043 24.86C92.6043 24.476 92.6363 24.156 92.7003 23.9H96.5403C96.6043 24.156 96.6363 24.476 96.6363 24.86C96.6363 25.228 96.6043 25.548 96.5403 25.82H97.7403C97.8043 26.076 97.8363 26.396 97.8363 26.78C97.8363 27.148 97.8043 27.468 97.7403 27.74H98.4603C98.5243 27.996 98.5563 28.316 98.5563 28.7ZM96.5403 29.66C96.4763 29.388 96.4443 29.068 96.4443 28.7C96.4443 28.316 96.4763 27.996 96.5403 27.74H95.8203C95.7563 27.468 95.7243 27.148 95.7243 26.78C95.7243 26.396 95.7563 26.076 95.8203 25.82H93.4203C93.4843 26.076 93.5163 26.396 93.5163 26.78C93.5163 27.148 93.4843 27.468 93.4203 27.74H92.7003C92.7643 27.996 92.7963 28.316 92.7963 28.7C92.7963 29.068 92.7643 29.388 92.7003 29.66H93.4203C93.4843 29.916 93.5163 30.236 93.5163 30.62C93.5163 30.988 93.4843 31.308 93.4203 31.58H95.8203C95.7563 31.308 95.7243 30.988 95.7243 30.62C95.7243 30.236 95.7563 29.916 95.8203 29.66H96.5403ZM102.166 24.86C102.166 25.228 102.134 25.548 102.07 25.82H103.03C103.094 26.076 103.126 26.396 103.126 26.78C103.126 27.148 103.094 27.468 103.03 27.74H102.31C102.374 27.996 102.406 28.316 102.406 28.7C102.406 29.068 102.374 29.388 102.31 29.66C102.374 29.916 102.406 30.236 102.406 30.62C102.406 30.988 102.374 31.308 102.31 31.58C102.374 31.836 102.406 32.156 102.406 32.54C102.406 32.908 102.374 33.228 102.31 33.5H100.39C100.326 33.228 100.294 32.908 100.294 32.54C100.294 32.156 100.326 31.836 100.39 31.58C100.326 31.308 100.294 30.988 100.294 30.62C100.294 30.236 100.326 29.916 100.39 29.66C100.326 29.388 100.294 29.068 100.294 28.7C100.294 28.316 100.326 27.996 100.39 27.74C100.326 27.468 100.294 27.148 100.294 26.78C100.294 26.396 100.326 26.076 100.39 25.82C100.326 25.548 100.294 25.228 100.294 24.86C100.294 24.476 100.326 24.156 100.39 23.9H102.07C102.134 24.156 102.166 24.476 102.166 24.86ZM108.07 27.74C108.134 27.996 108.166 28.316 108.166 28.7C108.166 29.068 108.134 29.388 108.07 29.66C108.134 29.916 108.166 30.236 108.166 30.62C108.166 30.988 108.134 31.308 108.07 31.58C108.134 31.836 108.166 32.156 108.166 32.54C108.166 32.908 108.134 33.228 108.07 33.5H106.15C106.086 33.228 106.054 32.908 106.054 32.54C106.054 32.156 106.086 31.836 106.15 31.58C106.086 31.308 106.054 30.988 106.054 30.62C106.054 30.236 106.086 29.916 106.15 29.66C106.086 29.388 106.054 29.068 106.054 28.7C106.054 28.316 106.086 27.996 106.15 27.74C106.086 27.468 106.054 27.148 106.054 26.78C106.054 26.396 106.086 26.076 106.15 25.82H103.03C102.966 25.548 102.934 25.228 102.934 24.86C102.934 24.476 102.966 24.156 103.03 23.9H106.87C106.934 24.156 106.966 24.476 106.966 24.86C106.966 25.228 106.934 25.548 106.87 25.82H108.07C108.134 26.076 108.166 26.396 108.166 26.78C108.166 27.148 108.134 27.468 108.07 27.74ZM111.775 24.86C111.775 25.228 111.743 25.548 111.679 25.82H112.639C112.703 26.076 112.735 26.396 112.735 26.78C112.735 27.148 112.703 27.468 112.639 27.74H111.919C111.983 27.996 112.015 28.316 112.015 28.7C112.015 29.068 111.983 29.388 111.919 29.66C111.983 29.916 112.015 30.236 112.015 30.62C112.015 30.988 111.983 31.308 111.919 31.58C111.983 31.836 112.015 32.156 112.015 32.54C112.015 32.908 111.983 33.228 111.919 33.5H109.999C109.935 33.228 109.903 32.908 109.903 32.54C109.903 32.156 109.935 31.836 109.999 31.58C109.935 31.308 109.903 30.988 109.903 30.62C109.903 30.236 109.935 29.916 109.999 29.66C109.935 29.388 109.903 29.068 109.903 28.7C109.903 28.316 109.935 27.996 109.999 27.74C109.935 27.468 109.903 27.148 109.903 26.78C109.903 26.396 109.935 26.076 109.999 25.82C109.935 25.548 109.903 25.228 109.903 24.86C109.903 24.476 109.935 24.156 109.999 23.9H111.679C111.743 24.156 111.775 24.476 111.775 24.86ZM117.679 27.74C117.743 27.996 117.775 28.316 117.775 28.7C117.775 29.068 117.743 29.388 117.679 29.66C117.743 29.916 117.775 30.236 117.775 30.62C117.775 30.988 117.743 31.308 117.679 31.58C117.743 31.836 117.775 32.156 117.775 32.54C117.775 32.908 117.743 33.228 117.679 33.5H115.759C115.695 33.228 115.663 32.908 115.663 32.54C115.663 32.156 115.695 31.836 115.759 31.58C115.695 31.308 115.663 30.988 115.663 30.62C115.663 30.236 115.695 29.916 115.759 29.66C115.695 29.388 115.663 29.068 115.663 28.7C115.663 28.316 115.695 27.996 115.759 27.74C115.695 27.468 115.663 27.148 115.663 26.78C115.663 26.396 115.695 26.076 115.759 25.82H112.639C112.575 25.548 112.543 25.228 112.543 24.86C112.543 24.476 112.575 24.156 112.639 23.9H116.479C116.543 24.156 116.575 24.476 116.575 24.86C116.575 25.228 116.543 25.548 116.479 25.82H117.679C117.743 26.076 117.775 26.396 117.775 26.78C117.775 27.148 117.743 27.468 117.679 27.74ZM127.384 26.78C127.384 27.148 127.352 27.468 127.288 27.74C127.352 27.996 127.384 28.316 127.384 28.7C127.384 29.068 127.352 29.388 127.288 29.66H122.248C122.312 29.916 122.344 30.236 122.344 30.62C122.344 30.988 122.312 31.308 122.248 31.58H126.328C126.392 31.836 126.424 32.156 126.424 32.54C126.424 32.908 126.392 33.228 126.328 33.5H121.528C121.464 33.228 121.432 32.908 121.432 32.54C121.432 32.156 121.464 31.836 121.528 31.58H120.328C120.264 31.308 120.232 30.988 120.232 30.62C120.232 30.236 120.264 29.916 120.328 29.66H119.608C119.544 29.388 119.512 29.068 119.512 28.7C119.512 28.316 119.544 27.996 119.608 27.74H120.328C120.264 27.468 120.232 27.148 120.232 26.78C120.232 26.396 120.264 26.076 120.328 25.82H121.528C121.464 25.548 121.432 25.228 121.432 24.86C121.432 24.476 121.464 24.156 121.528 23.9H126.328C126.392 24.156 126.424 24.476 126.424 24.86C126.424 25.228 126.392 25.548 126.328 25.82H127.288C127.352 26.076 127.384 26.396 127.384 26.78ZM125.368 27.74C125.304 27.468 125.272 27.148 125.272 26.78C125.272 26.396 125.304 26.076 125.368 25.82H122.248C122.312 26.076 122.344 26.396 122.344 26.78C122.344 27.148 122.312 27.468 122.248 27.74H125.368ZM136.898 29.66C136.962 29.916 136.994 30.236 136.994 30.62C136.994 30.988 136.962 31.308 136.898 31.58H135.938C136.002 31.836 136.034 32.156 136.034 32.54C136.034 32.908 136.002 33.228 135.938 33.5H131.138C131.074 33.228 131.042 32.908 131.042 32.54C131.042 32.156 131.074 31.836 131.138 31.58H130.178C130.114 31.308 130.082 30.988 130.082 30.62C130.082 30.236 130.114 29.916 130.178 29.66H129.218C129.154 29.388 129.122 29.068 129.122 28.7C129.122 28.316 129.154 27.996 129.218 27.74H130.178C130.114 27.468 130.082 27.148 130.082 26.78C130.082 26.396 130.114 26.076 130.178 25.82H131.138C131.074 25.548 131.042 25.228 131.042 24.86C131.042 24.476 131.074 24.156 131.138 23.9H135.938C136.002 24.156 136.034 24.476 136.034 24.86C136.034 25.228 136.002 25.548 135.938 25.82H136.898C136.962 26.076 136.994 26.396 136.994 26.78C136.994 27.148 136.962 27.468 136.898 27.74H134.978C134.914 27.468 134.882 27.148 134.882 26.78C134.882 26.396 134.914 26.076 134.978 25.82H132.098C132.162 26.076 132.194 26.396 132.194 26.78C132.194 27.148 132.162 27.468 132.098 27.74H131.138C131.202 27.996 131.234 28.316 131.234 28.7C131.234 29.068 131.202 29.388 131.138 29.66H132.098C132.162 29.916 132.194 30.236 132.194 30.62C132.194 30.988 132.162 31.308 132.098 31.58H134.978C134.914 31.308 134.882 30.988 134.882 30.62C134.882 30.236 134.914 29.916 134.978 29.66H136.898ZM145.547 31.58C145.611 31.836 145.643 32.156 145.643 32.54C145.643 32.908 145.611 33.228 145.547 33.5H141.707C141.643 33.228 141.611 32.908 141.611 32.54C141.611 32.156 141.643 31.836 141.707 31.58H140.747C140.683 31.308 140.651 30.988 140.651 30.62C140.651 30.236 140.683 29.916 140.747 29.66C140.683 29.388 140.651 29.068 140.651 28.7C140.651 28.316 140.683 27.996 140.747 27.74C140.683 27.468 140.651 27.148 140.651 26.78C140.651 26.396 140.683 26.076 140.747 25.82H138.827C138.763 25.548 138.731 25.228 138.731 24.86C138.731 24.476 138.763 24.156 138.827 23.9H140.747C140.683 23.628 140.651 23.308 140.651 22.94C140.651 22.556 140.683 22.236 140.747 21.98C140.683 21.708 140.651 21.388 140.651 21.02C140.651 20.636 140.683 20.316 140.747 20.06H142.667C142.731 20.316 142.763 20.636 142.763 21.02C142.763 21.388 142.731 21.708 142.667 21.98C142.731 22.236 142.763 22.556 142.763 22.94C142.763 23.308 142.731 23.628 142.667 23.9H145.547C145.611 24.156 145.643 24.476 145.643 24.86C145.643 25.228 145.611 25.548 145.547 25.82H142.667C142.731 26.076 142.763 26.396 142.763 26.78C142.763 27.148 142.731 27.468 142.667 27.74C142.731 27.996 142.763 28.316 142.763 28.7C142.763 29.068 142.731 29.388 142.667 29.66C142.731 29.916 142.763 30.236 142.763 30.62C142.763 30.988 142.731 31.308 142.667 31.58H145.547ZM165.822 24.86C165.822 25.228 165.79 25.548 165.726 25.82H165.006C165.07 26.076 165.102 26.396 165.102 26.78C165.102 27.148 165.07 27.468 165.006 27.74H164.286C164.35 27.996 164.382 28.316 164.382 28.7C164.382 29.068 164.35 29.388 164.286 29.66H163.806C163.87 29.916 163.902 30.236 163.902 30.62C163.902 30.988 163.87 31.308 163.806 31.58H163.086C163.15 31.836 163.182 32.156 163.182 32.54C163.182 32.908 163.15 33.228 163.086 33.5H162.606C162.67 33.756 162.702 34.076 162.702 34.46C162.702 34.828 162.67 35.148 162.606 35.42H161.646C161.71 35.676 161.742 35.996 161.742 36.38C161.742 36.748 161.71 37.068 161.646 37.34H158.766C158.702 37.068 158.67 36.748 158.67 36.38C158.67 35.996 158.702 35.676 158.766 35.42H160.686C160.622 35.148 160.59 34.828 160.59 34.46C160.59 34.076 160.622 33.756 160.686 33.5C160.622 33.228 160.59 32.908 160.59 32.54C160.59 32.156 160.622 31.836 160.686 31.58H159.726C159.662 31.308 159.63 30.988 159.63 30.62C159.63 30.236 159.662 29.916 159.726 29.66H159.246C159.182 29.388 159.15 29.068 159.15 28.7C159.15 28.316 159.182 27.996 159.246 27.74H158.526C158.462 27.468 158.43 27.148 158.43 26.78C158.43 26.396 158.462 26.076 158.526 25.82H157.806C157.742 25.548 157.71 25.228 157.71 24.86C157.71 24.476 157.742 24.156 157.806 23.9H159.726C159.79 24.156 159.822 24.476 159.822 24.86C159.822 25.228 159.79 25.548 159.726 25.82H160.446C160.51 26.076 160.542 26.396 160.542 26.78C160.542 27.148 160.51 27.468 160.446 27.74H161.166C161.23 27.996 161.262 28.316 161.262 28.7C161.262 29.068 161.23 29.388 161.166 29.66C161.23 29.916 161.262 30.236 161.262 30.62C161.262 30.988 161.23 31.308 161.166 31.58H161.886C161.822 31.308 161.79 30.988 161.79 30.62C161.79 30.236 161.822 29.916 161.886 29.66H162.366C162.302 29.388 162.27 29.068 162.27 28.7C162.27 28.316 162.302 27.996 162.366 27.74H163.086C163.022 27.468 162.99 27.148 162.99 26.78C162.99 26.396 163.022 26.076 163.086 25.82H163.806C163.742 25.548 163.71 25.228 163.71 24.86C163.71 24.476 163.742 24.156 163.806 23.9H165.726C165.79 24.156 165.822 24.476 165.822 24.86ZM175.431 28.7C175.431 29.068 175.399 29.388 175.335 29.66H174.615C174.679 29.916 174.711 30.236 174.711 30.62C174.711 30.988 174.679 31.308 174.615 31.58H173.415C173.479 31.836 173.511 32.156 173.511 32.54C173.511 32.908 173.479 33.228 173.415 33.5H169.575C169.511 33.228 169.479 32.908 169.479 32.54C169.479 32.156 169.511 31.836 169.575 31.58H168.375C168.311 31.308 168.279 30.988 168.279 30.62C168.279 30.236 168.311 29.916 168.375 29.66H167.655C167.591 29.388 167.559 29.068 167.559 28.7C167.559 28.316 167.591 27.996 167.655 27.74H168.375C168.311 27.468 168.279 27.148 168.279 26.78C168.279 26.396 168.311 26.076 168.375 25.82H169.575C169.511 25.548 169.479 25.228 169.479 24.86C169.479 24.476 169.511 24.156 169.575 23.9H173.415C173.479 24.156 173.511 24.476 173.511 24.86C173.511 25.228 173.479 25.548 173.415 25.82H174.615C174.679 26.076 174.711 26.396 174.711 26.78C174.711 27.148 174.679 27.468 174.615 27.74H175.335C175.399 27.996 175.431 28.316 175.431 28.7ZM173.415 29.66C173.351 29.388 173.319 29.068 173.319 28.7C173.319 28.316 173.351 27.996 173.415 27.74H172.695C172.631 27.468 172.599 27.148 172.599 26.78C172.599 26.396 172.631 26.076 172.695 25.82H170.295C170.359 26.076 170.391 26.396 170.391 26.78C170.391 27.148 170.359 27.468 170.295 27.74H169.575C169.639 27.996 169.671 28.316 169.671 28.7C169.671 29.068 169.639 29.388 169.575 29.66H170.295C170.359 29.916 170.391 30.236 170.391 30.62C170.391 30.988 170.359 31.308 170.295 31.58H172.695C172.631 31.308 172.599 30.988 172.599 30.62C172.599 30.236 172.631 29.916 172.695 29.66H173.415ZM180.001 30.62C180.001 30.988 179.969 31.308 179.905 31.58H182.305C182.369 31.836 182.401 32.156 182.401 32.54C182.401 32.908 182.369 33.228 182.305 33.5H178.465C178.401 33.228 178.369 32.908 178.369 32.54C178.369 32.156 178.401 31.836 178.465 31.58H177.265C177.201 31.308 177.169 30.988 177.169 30.62C177.169 30.236 177.201 29.916 177.265 29.66C177.201 29.388 177.169 29.068 177.169 28.7C177.169 28.316 177.201 27.996 177.265 27.74C177.201 27.468 177.169 27.148 177.169 26.78C177.169 26.396 177.201 26.076 177.265 25.82C177.201 25.548 177.169 25.228 177.169 24.86C177.169 24.476 177.201 24.156 177.265 23.9H179.185C179.249 24.156 179.281 24.476 179.281 24.86C179.281 25.228 179.249 25.548 179.185 25.82C179.249 26.076 179.281 26.396 179.281 26.78C179.281 27.148 179.249 27.468 179.185 27.74C179.249 27.996 179.281 28.316 179.281 28.7C179.281 29.068 179.249 29.388 179.185 29.66H179.905C179.969 29.916 180.001 30.236 180.001 30.62ZM184.945 25.82C185.009 26.076 185.041 26.396 185.041 26.78C185.041 27.148 185.009 27.468 184.945 27.74C185.009 27.996 185.041 28.316 185.041 28.7C185.041 29.068 185.009 29.388 184.945 29.66C185.009 29.916 185.041 30.236 185.041 30.62C185.041 30.988 185.009 31.308 184.945 31.58C185.009 31.836 185.041 32.156 185.041 32.54C185.041 32.908 185.009 33.228 184.945 33.5H183.025C182.961 33.228 182.929 32.908 182.929 32.54C182.929 32.156 182.961 31.836 183.025 31.58H182.305C182.241 31.308 182.209 30.988 182.209 30.62C182.209 30.236 182.241 29.916 182.305 29.66H183.025C182.961 29.388 182.929 29.068 182.929 28.7C182.929 28.316 182.961 27.996 183.025 27.74C182.961 27.468 182.929 27.148 182.929 26.78C182.929 26.396 182.961 26.076 183.025 25.82C182.961 25.548 182.929 25.228 182.929 24.86C182.929 24.476 182.961 24.156 183.025 23.9H184.945C185.009 24.156 185.041 24.476 185.041 24.86C185.041 25.228 185.009 25.548 184.945 25.82ZM194.554 25.82C194.618 26.076 194.65 26.396 194.65 26.78C194.65 27.148 194.618 27.468 194.554 27.74H192.634C192.57 27.468 192.538 27.148 192.538 26.78C192.538 26.396 192.57 26.076 192.634 25.82H190.954C191.018 26.076 191.05 26.396 191.05 26.78C191.05 27.148 191.018 27.468 190.954 27.74H190.234C190.298 27.996 190.33 28.316 190.33 28.7C190.33 29.068 190.298 29.388 190.234 29.66C190.298 29.916 190.33 30.236 190.33 30.62C190.33 30.988 190.298 31.308 190.234 31.58H191.674C191.738 31.836 191.77 32.156 191.77 32.54C191.77 32.908 191.738 33.228 191.674 33.5H186.874C186.81 33.228 186.778 32.908 186.778 32.54C186.778 32.156 186.81 31.836 186.874 31.58H188.314C188.25 31.308 188.218 30.988 188.218 30.62C188.218 30.236 188.25 29.916 188.314 29.66C188.25 29.388 188.218 29.068 188.218 28.7C188.218 28.316 188.25 27.996 188.314 27.74C188.25 27.468 188.218 27.148 188.218 26.78C188.218 26.396 188.25 26.076 188.314 25.82H186.874C186.81 25.548 186.778 25.228 186.778 24.86C186.778 24.476 186.81 24.156 186.874 23.9H189.274C189.338 24.156 189.37 24.476 189.37 24.86C189.37 25.228 189.338 25.548 189.274 25.82H190.234C190.17 25.548 190.138 25.228 190.138 24.86C190.138 24.476 190.17 24.156 190.234 23.9H193.834C193.898 24.156 193.93 24.476 193.93 24.86C193.93 25.228 193.898 25.548 193.834 25.82H194.554ZM213.869 24.86C213.869 25.228 213.837 25.548 213.773 25.82C213.837 26.076 213.869 26.396 213.869 26.78C213.869 27.148 213.837 27.468 213.773 27.74H213.053C213.117 27.996 213.149 28.316 213.149 28.7C213.149 29.068 213.117 29.388 213.053 29.66C213.117 29.916 213.149 30.236 213.149 30.62C213.149 30.988 213.117 31.308 213.053 31.58H212.573C212.637 31.836 212.669 32.156 212.669 32.54C212.669 32.908 212.637 33.228 212.573 33.5H211.133C211.069 33.228 211.037 32.908 211.037 32.54C211.037 32.156 211.069 31.836 211.133 31.58H210.653C210.589 31.308 210.557 30.988 210.557 30.62C210.557 30.236 210.589 29.916 210.653 29.66H209.213C209.277 29.916 209.309 30.236 209.309 30.62C209.309 30.988 209.277 31.308 209.213 31.58H208.733C208.797 31.836 208.829 32.156 208.829 32.54C208.829 32.908 208.797 33.228 208.733 33.5H207.293C207.229 33.228 207.197 32.908 207.197 32.54C207.197 32.156 207.229 31.836 207.293 31.58H206.813C206.749 31.308 206.717 30.988 206.717 30.62C206.717 30.236 206.749 29.916 206.813 29.66C206.749 29.388 206.717 29.068 206.717 28.7C206.717 28.316 206.749 27.996 206.813 27.74H206.093C206.029 27.468 205.997 27.148 205.997 26.78C205.997 26.396 206.029 26.076 206.093 25.82C206.029 25.548 205.997 25.228 205.997 24.86C205.997 24.476 206.029 24.156 206.093 23.9H208.013C208.077 24.156 208.109 24.476 208.109 24.86C208.109 25.228 208.077 25.548 208.013 25.82C208.077 26.076 208.109 26.396 208.109 26.78C208.109 27.148 208.077 27.468 208.013 27.74C208.077 27.996 208.109 28.316 208.109 28.7C208.109 29.068 208.077 29.388 208.013 29.66H208.733C208.669 29.388 208.637 29.068 208.637 28.7C208.637 28.316 208.669 27.996 208.733 27.74H209.213C209.149 27.468 209.117 27.148 209.117 26.78C209.117 26.396 209.149 26.076 209.213 25.82C209.149 25.548 209.117 25.228 209.117 24.86C209.117 24.476 209.149 24.156 209.213 23.9H210.653C210.717 24.156 210.749 24.476 210.749 24.86C210.749 25.228 210.717 25.548 210.653 25.82C210.717 26.076 210.749 26.396 210.749 26.78C210.749 27.148 210.717 27.468 210.653 27.74H211.133C211.197 27.996 211.229 28.316 211.229 28.7C211.229 29.068 211.197 29.388 211.133 29.66H211.853C211.789 29.388 211.757 29.068 211.757 28.7C211.757 28.316 211.789 27.996 211.853 27.74C211.789 27.468 211.757 27.148 211.757 26.78C211.757 26.396 211.789 26.076 211.853 25.82C211.789 25.548 211.757 25.228 211.757 24.86C211.757 24.476 211.789 24.156 211.853 23.9H213.773C213.837 24.156 213.869 24.476 213.869 24.86ZM223.382 31.58C223.446 31.836 223.478 32.156 223.478 32.54C223.478 32.908 223.446 33.228 223.382 33.5H221.462C221.398 33.228 221.366 32.908 221.366 32.54C221.366 32.156 221.398 31.836 221.462 31.58H220.502C220.438 31.308 220.406 30.988 220.406 30.62C220.406 30.236 220.438 29.916 220.502 29.66H217.622C217.686 29.916 217.718 30.236 217.718 30.62C217.718 30.988 217.686 31.308 217.622 31.58H220.502C220.566 31.836 220.598 32.156 220.598 32.54C220.598 32.908 220.566 33.228 220.502 33.5H216.662C216.598 33.228 216.566 32.908 216.566 32.54C216.566 32.156 216.598 31.836 216.662 31.58H215.702C215.638 31.308 215.606 30.988 215.606 30.62C215.606 30.236 215.638 29.916 215.702 29.66H216.662C216.598 29.388 216.566 29.068 216.566 28.7C216.566 28.316 216.598 27.996 216.662 27.74H220.502C220.438 27.468 220.406 27.148 220.406 26.78C220.406 26.396 220.438 26.076 220.502 25.82H217.142C217.078 25.548 217.046 25.228 217.046 24.86C217.046 24.476 217.078 24.156 217.142 23.9H221.462C221.526 24.156 221.558 24.476 221.558 24.86C221.558 25.228 221.526 25.548 221.462 25.82H222.422C222.486 26.076 222.518 26.396 222.518 26.78C222.518 27.148 222.486 27.468 222.422 27.74C222.486 27.996 222.518 28.316 222.518 28.7C222.518 29.068 222.486 29.388 222.422 29.66C222.486 29.916 222.518 30.236 222.518 30.62C222.518 30.988 222.486 31.308 222.422 31.58H223.382ZM232.032 31.58C232.096 31.836 232.128 32.156 232.128 32.54C232.128 32.908 232.096 33.228 232.032 33.5H226.272C226.208 33.228 226.176 32.908 226.176 32.54C226.176 32.156 226.208 31.836 226.272 31.58H228.192C228.128 31.308 228.096 30.988 228.096 30.62C228.096 30.236 228.128 29.916 228.192 29.66C228.128 29.388 228.096 29.068 228.096 28.7C228.096 28.316 228.128 27.996 228.192 27.74C228.128 27.468 228.096 27.148 228.096 26.78C228.096 26.396 228.128 26.076 228.192 25.82C228.128 25.548 228.096 25.228 228.096 24.86C228.096 24.476 228.128 24.156 228.192 23.9C228.128 23.628 228.096 23.308 228.096 22.94C228.096 22.556 228.128 22.236 228.192 21.98H226.752C226.688 21.708 226.656 21.388 226.656 21.02C226.656 20.636 226.688 20.316 226.752 20.06H230.112C230.176 20.316 230.208 20.636 230.208 21.02C230.208 21.388 230.176 21.708 230.112 21.98C230.176 22.236 230.208 22.556 230.208 22.94C230.208 23.308 230.176 23.628 230.112 23.9C230.176 24.156 230.208 24.476 230.208 24.86C230.208 25.228 230.176 25.548 230.112 25.82C230.176 26.076 230.208 26.396 230.208 26.78C230.208 27.148 230.176 27.468 230.112 27.74C230.176 27.996 230.208 28.316 230.208 28.7C230.208 29.068 230.176 29.388 230.112 29.66C230.176 29.916 230.208 30.236 230.208 30.62C230.208 30.988 230.176 31.308 230.112 31.58H232.032ZM241.641 31.58C241.705 31.836 241.737 32.156 241.737 32.54C241.737 32.908 241.705 33.228 241.641 33.5H235.881C235.817 33.228 235.785 32.908 235.785 32.54C235.785 32.156 235.817 31.836 235.881 31.58H237.801C237.737 31.308 237.705 30.988 237.705 30.62C237.705 30.236 237.737 29.916 237.801 29.66C237.737 29.388 237.705 29.068 237.705 28.7C237.705 28.316 237.737 27.996 237.801 27.74C237.737 27.468 237.705 27.148 237.705 26.78C237.705 26.396 237.737 26.076 237.801 25.82C237.737 25.548 237.705 25.228 237.705 24.86C237.705 24.476 237.737 24.156 237.801 23.9C237.737 23.628 237.705 23.308 237.705 22.94C237.705 22.556 237.737 22.236 237.801 21.98H236.361C236.297 21.708 236.265 21.388 236.265 21.02C236.265 20.636 236.297 20.316 236.361 20.06H239.721C239.785 20.316 239.817 20.636 239.817 21.02C239.817 21.388 239.785 21.708 239.721 21.98C239.785 22.236 239.817 22.556 239.817 22.94C239.817 23.308 239.785 23.628 239.721 23.9C239.785 24.156 239.817 24.476 239.817 24.86C239.817 25.228 239.785 25.548 239.721 25.82C239.785 26.076 239.817 26.396 239.817 26.78C239.817 27.148 239.785 27.468 239.721 27.74C239.785 27.996 239.817 28.316 239.817 28.7C239.817 29.068 239.785 29.388 239.721 29.66C239.785 29.916 239.817 30.236 239.817 30.62C239.817 30.988 239.785 31.308 239.721 31.58H241.641ZM252.306 26.78C252.306 27.148 252.274 27.468 252.21 27.74C252.274 27.996 252.306 28.316 252.306 28.7C252.306 29.068 252.274 29.388 252.21 29.66H247.17C247.234 29.916 247.266 30.236 247.266 30.62C247.266 30.988 247.234 31.308 247.17 31.58H251.25C251.314 31.836 251.346 32.156 251.346 32.54C251.346 32.908 251.314 33.228 251.25 33.5H246.45C246.386 33.228 246.354 32.908 246.354 32.54C246.354 32.156 246.386 31.836 246.45 31.58H245.25C245.186 31.308 245.154 30.988 245.154 30.62C245.154 30.236 245.186 29.916 245.25 29.66H244.53C244.466 29.388 244.434 29.068 244.434 28.7C244.434 28.316 244.466 27.996 244.53 27.74H245.25C245.186 27.468 245.154 27.148 245.154 26.78C245.154 26.396 245.186 26.076 245.25 25.82H246.45C246.386 25.548 246.354 25.228 246.354 24.86C246.354 24.476 246.386 24.156 246.45 23.9H251.25C251.314 24.156 251.346 24.476 251.346 24.86C251.346 25.228 251.314 25.548 251.25 25.82H252.21C252.274 26.076 252.306 26.396 252.306 26.78ZM250.29 27.74C250.226 27.468 250.194 27.148 250.194 26.78C250.194 26.396 250.226 26.076 250.29 25.82H247.17C247.234 26.076 247.266 26.396 247.266 26.78C247.266 27.148 247.234 27.468 247.17 27.74H250.29ZM260.86 31.58C260.924 31.836 260.956 32.156 260.956 32.54C260.956 32.908 260.924 33.228 260.86 33.5H257.02C256.956 33.228 256.924 32.908 256.924 32.54C256.924 32.156 256.956 31.836 257.02 31.58H256.06C255.996 31.308 255.964 30.988 255.964 30.62C255.964 30.236 255.996 29.916 256.06 29.66C255.996 29.388 255.964 29.068 255.964 28.7C255.964 28.316 255.996 27.996 256.06 27.74C255.996 27.468 255.964 27.148 255.964 26.78C255.964 26.396 255.996 26.076 256.06 25.82H254.14C254.076 25.548 254.044 25.228 254.044 24.86C254.044 24.476 254.076 24.156 254.14 23.9H256.06C255.996 23.628 255.964 23.308 255.964 22.94C255.964 22.556 255.996 22.236 256.06 21.98C255.996 21.708 255.964 21.388 255.964 21.02C255.964 20.636 255.996 20.316 256.06 20.06H257.98C258.044 20.316 258.076 20.636 258.076 21.02C258.076 21.388 258.044 21.708 257.98 21.98C258.044 22.236 258.076 22.556 258.076 22.94C258.076 23.308 258.044 23.628 257.98 23.9H260.86C260.924 24.156 260.956 24.476 260.956 24.86C260.956 25.228 260.924 25.548 260.86 25.82H257.98C258.044 26.076 258.076 26.396 258.076 26.78C258.076 27.148 258.044 27.468 257.98 27.74C258.044 27.996 258.076 28.316 258.076 28.7C258.076 29.068 258.044 29.388 257.98 29.66C258.044 29.916 258.076 30.236 258.076 30.62C258.076 30.988 258.044 31.308 257.98 31.58H260.86Z" fill="#99F0FF"/>
</svg>
