<svg width="480" height="103" viewBox="0 0 480 103" fill="none" xmlns="http://www.w3.org/2000/svg">
<path d="M96.4775 59.76C96.6482 60.4427 96.7335 61.296 96.7335 62.32C96.7335 63.3013 96.6482 64.1547 96.4775 64.88H93.9175C94.0882 65.5627 94.1735 66.416 94.1735 67.44C94.1735 68.4213 94.0882 69.2747 93.9175 70H81.1175C80.9468 69.2747 80.8615 68.4213 80.8615 67.44C80.8615 66.416 80.9468 65.5627 81.1175 64.88H78.5575C78.3868 64.1547 78.3015 63.3013 78.3015 62.32C78.3015 61.296 78.3868 60.4427 78.5575 59.76H75.9975C75.8268 59.0347 75.7415 58.1813 75.7415 57.2C75.7415 56.176 75.8268 55.3227 75.9975 54.64C75.8268 53.9147 75.7415 53.0613 75.7415 52.08C75.7415 51.056 75.8268 50.2027 75.9975 49.52C75.8268 48.7947 75.7415 47.9413 75.7415 46.96C75.7415 45.936 75.8268 45.0827 75.9975 44.4H78.5575C78.3868 43.6747 78.3015 42.8213 78.3015 41.84C78.3015 40.816 78.3868 39.9627 78.5575 39.28H81.1175C80.9468 38.5547 80.8615 37.7013 80.8615 36.72C80.8615 35.696 80.9468 34.8427 81.1175 34.16H93.9175C94.0882 34.8427 94.1735 35.696 94.1735 36.72C94.1735 37.7013 94.0882 38.5547 93.9175 39.28H96.4775C96.6482 39.9627 96.7335 40.816 96.7335 41.84C96.7335 42.8213 96.6482 43.6747 96.4775 44.4H91.3575C91.1868 43.6747 91.1015 42.8213 91.1015 41.84C91.1015 40.816 91.1868 39.9627 91.3575 39.28H83.6775C83.8482 39.9627 83.9335 40.816 83.9335 41.84C83.9335 42.8213 83.8482 43.6747 83.6775 44.4H81.1175C81.2882 45.0827 81.3735 45.936 81.3735 46.96C81.3735 47.9413 81.2882 48.7947 81.1175 49.52C81.2882 50.2027 81.3735 51.056 81.3735 52.08C81.3735 53.0613 81.2882 53.9147 81.1175 54.64C81.2882 55.3227 81.3735 56.176 81.3735 57.2C81.3735 58.1813 81.2882 59.0347 81.1175 59.76H83.6775C83.8482 60.4427 83.9335 61.296 83.9335 62.32C83.9335 63.3013 83.8482 64.1547 83.6775 64.88H91.3575C91.1868 64.1547 91.1015 63.3013 91.1015 62.32C91.1015 61.296 91.1868 60.4427 91.3575 59.76H96.4775ZM122.103 49.52C122.273 50.2027 122.359 51.056 122.359 52.08C122.359 53.0613 122.273 53.9147 122.103 54.64H116.983C116.812 53.9147 116.727 53.0613 116.727 52.08C116.727 51.056 116.812 50.2027 116.983 49.52H112.503C112.673 50.2027 112.759 51.056 112.759 52.08C112.759 53.0613 112.673 53.9147 112.503 54.64H110.583C110.753 55.3227 110.839 56.176 110.839 57.2C110.839 58.1813 110.753 59.0347 110.583 59.76C110.753 60.4427 110.839 61.296 110.839 62.32C110.839 63.3013 110.753 64.1547 110.583 64.88H114.423C114.593 65.5627 114.679 66.416 114.679 67.44C114.679 68.4213 114.593 69.2747 114.423 70H101.623C101.452 69.2747 101.367 68.4213 101.367 67.44C101.367 66.416 101.452 65.5627 101.623 64.88H105.463C105.292 64.1547 105.207 63.3013 105.207 62.32C105.207 61.296 105.292 60.4427 105.463 59.76C105.292 59.0347 105.207 58.1813 105.207 57.2C105.207 56.176 105.292 55.3227 105.463 54.64C105.292 53.9147 105.207 53.0613 105.207 52.08C105.207 51.056 105.292 50.2027 105.463 49.52H101.623C101.452 48.7947 101.367 47.9413 101.367 46.96C101.367 45.936 101.452 45.0827 101.623 44.4H108.023C108.193 45.0827 108.279 45.936 108.279 46.96C108.279 47.9413 108.193 48.7947 108.023 49.52H110.583C110.412 48.7947 110.327 47.9413 110.327 46.96C110.327 45.936 110.412 45.0827 110.583 44.4H120.183C120.353 45.0827 120.439 45.936 120.439 46.96C120.439 47.9413 120.353 48.7947 120.183 49.52H122.103ZM147.984 52.08C147.984 53.0613 147.898 53.9147 147.728 54.64C147.898 55.3227 147.984 56.176 147.984 57.2C147.984 58.1813 147.898 59.0347 147.728 59.76H134.288C134.458 60.4427 134.544 61.296 134.544 62.32C134.544 63.3013 134.458 64.1547 134.288 64.88H145.168C145.338 65.5627 145.424 66.416 145.424 67.44C145.424 68.4213 145.338 69.2747 145.168 70H132.368C132.197 69.2747 132.112 68.4213 132.112 67.44C132.112 66.416 132.197 65.5627 132.368 64.88H129.168C128.997 64.1547 128.911 63.3013 128.911 62.32C128.911 61.296 128.997 60.4427 129.168 59.76H127.248C127.077 59.0347 126.992 58.1813 126.992 57.2C126.992 56.176 127.077 55.3227 127.248 54.64H129.168C128.997 53.9147 128.911 53.0613 128.911 52.08C128.911 51.056 128.997 50.2027 129.168 49.52H132.368C132.197 48.7947 132.112 47.9413 132.112 46.96C132.112 45.936 132.197 45.0827 132.368 44.4H145.168C145.338 45.0827 145.424 45.936 145.424 46.96C145.424 47.9413 145.338 48.7947 145.168 49.52H147.728C147.898 50.2027 147.984 51.056 147.984 52.08ZM142.608 54.64C142.437 53.9147 142.352 53.0613 142.352 52.08C142.352 51.056 142.437 50.2027 142.608 49.52H134.288C134.458 50.2027 134.544 51.056 134.544 52.08C134.544 53.0613 134.458 53.9147 134.288 54.64H142.608ZM173.353 64.88C173.523 65.5627 173.609 66.416 173.609 67.44C173.609 68.4213 173.523 69.2747 173.353 70H168.233C168.062 69.2747 167.977 68.4213 167.977 67.44C167.977 66.416 168.062 65.5627 168.233 64.88H165.673C165.502 64.1547 165.417 63.3013 165.417 62.32C165.417 61.296 165.502 60.4427 165.673 59.76H157.993C158.163 60.4427 158.249 61.296 158.249 62.32C158.249 63.3013 158.163 64.1547 157.993 64.88H165.673C165.843 65.5627 165.929 66.416 165.929 67.44C165.929 68.4213 165.843 69.2747 165.673 70H155.433C155.262 69.2747 155.177 68.4213 155.177 67.44C155.177 66.416 155.262 65.5627 155.433 64.88H152.873C152.702 64.1547 152.617 63.3013 152.617 62.32C152.617 61.296 152.702 60.4427 152.873 59.76H155.433C155.262 59.0347 155.177 58.1813 155.177 57.2C155.177 56.176 155.262 55.3227 155.433 54.64H165.673C165.502 53.9147 165.417 53.0613 165.417 52.08C165.417 51.056 165.502 50.2027 165.673 49.52H156.713C156.542 48.7947 156.457 47.9413 156.457 46.96C156.457 45.936 156.542 45.0827 156.713 44.4H168.233C168.403 45.0827 168.489 45.936 168.489 46.96C168.489 47.9413 168.403 48.7947 168.233 49.52H170.793C170.963 50.2027 171.049 51.056 171.049 52.08C171.049 53.0613 170.963 53.9147 170.793 54.64C170.963 55.3227 171.049 56.176 171.049 57.2C171.049 58.1813 170.963 59.0347 170.793 59.76C170.963 60.4427 171.049 61.296 171.049 62.32C171.049 63.3013 170.963 64.1547 170.793 64.88H173.353ZM196.418 64.88C196.588 65.5627 196.674 66.416 196.674 67.44C196.674 68.4213 196.588 69.2747 196.418 70H186.178C186.007 69.2747 185.922 68.4213 185.922 67.44C185.922 66.416 186.007 65.5627 186.178 64.88H183.618C183.447 64.1547 183.362 63.3013 183.362 62.32C183.362 61.296 183.447 60.4427 183.618 59.76C183.447 59.0347 183.362 58.1813 183.362 57.2C183.362 56.176 183.447 55.3227 183.618 54.64C183.447 53.9147 183.362 53.0613 183.362 52.08C183.362 51.056 183.447 50.2027 183.618 49.52H178.498C178.327 48.7947 178.242 47.9413 178.242 46.96C178.242 45.936 178.327 45.0827 178.498 44.4H183.618C183.447 43.6747 183.362 42.8213 183.362 41.84C183.362 40.816 183.447 39.9627 183.618 39.28C183.447 38.5547 183.362 37.7013 183.362 36.72C183.362 35.696 183.447 34.8427 183.618 34.16H188.738C188.908 34.8427 188.994 35.696 188.994 36.72C188.994 37.7013 188.908 38.5547 188.738 39.28C188.908 39.9627 188.994 40.816 188.994 41.84C188.994 42.8213 188.908 43.6747 188.738 44.4H196.418C196.588 45.0827 196.674 45.936 196.674 46.96C196.674 47.9413 196.588 48.7947 196.418 49.52H188.738C188.908 50.2027 188.994 51.056 188.994 52.08C188.994 53.0613 188.908 53.9147 188.738 54.64C188.908 55.3227 188.994 56.176 188.994 57.2C188.994 58.1813 188.908 59.0347 188.738 59.76C188.908 60.4427 188.994 61.296 188.994 62.32C188.994 63.3013 188.908 64.1547 188.738 64.88H196.418ZM224.859 52.08C224.859 53.0613 224.773 53.9147 224.603 54.64C224.773 55.3227 224.859 56.176 224.859 57.2C224.859 58.1813 224.773 59.0347 224.603 59.76H211.163C211.333 60.4427 211.419 61.296 211.419 62.32C211.419 63.3013 211.333 64.1547 211.163 64.88H222.043C222.213 65.5627 222.299 66.416 222.299 67.44C222.299 68.4213 222.213 69.2747 222.043 70H209.243C209.072 69.2747 208.987 68.4213 208.987 67.44C208.987 66.416 209.072 65.5627 209.243 64.88H206.043C205.872 64.1547 205.786 63.3013 205.786 62.32C205.786 61.296 205.872 60.4427 206.043 59.76H204.123C203.952 59.0347 203.867 58.1813 203.867 57.2C203.867 56.176 203.952 55.3227 204.123 54.64H206.043C205.872 53.9147 205.786 53.0613 205.786 52.08C205.786 51.056 205.872 50.2027 206.043 49.52H209.243C209.072 48.7947 208.987 47.9413 208.987 46.96C208.987 45.936 209.072 45.0827 209.243 44.4H222.043C222.213 45.0827 222.299 45.936 222.299 46.96C222.299 47.9413 222.213 48.7947 222.043 49.52H224.603C224.773 50.2027 224.859 51.056 224.859 52.08ZM219.483 54.64C219.312 53.9147 219.227 53.0613 219.227 52.08C219.227 51.056 219.312 50.2027 219.483 49.52H211.163C211.333 50.2027 211.419 51.056 211.419 52.08C211.419 53.0613 211.333 53.9147 211.163 54.64H219.483ZM276.109 41.84C276.109 42.8213 276.023 43.6747 275.853 44.4C276.023 45.0827 276.109 45.936 276.109 46.96C276.109 47.9413 276.023 48.7947 275.853 49.52H273.293C273.463 50.2027 273.549 51.056 273.549 52.08C273.549 53.0613 273.463 53.9147 273.293 54.64H260.493C260.663 55.3227 260.749 56.176 260.749 57.2C260.749 58.1813 260.663 59.0347 260.493 59.76C260.663 60.4427 260.749 61.296 260.749 62.32C260.749 63.3013 260.663 64.1547 260.493 64.88C260.663 65.5627 260.749 66.416 260.749 67.44C260.749 68.4213 260.663 69.2747 260.493 70H255.373C255.202 69.2747 255.117 68.4213 255.117 67.44C255.117 66.416 255.202 65.5627 255.373 64.88C255.202 64.1547 255.117 63.3013 255.117 62.32C255.117 61.296 255.202 60.4427 255.373 59.76C255.202 59.0347 255.117 58.1813 255.117 57.2C255.117 56.176 255.202 55.3227 255.373 54.64C255.202 53.9147 255.117 53.0613 255.117 52.08C255.117 51.056 255.202 50.2027 255.373 49.52C255.202 48.7947 255.117 47.9413 255.117 46.96C255.117 45.936 255.202 45.0827 255.373 44.4C255.202 43.6747 255.117 42.8213 255.117 41.84C255.117 40.816 255.202 39.9627 255.373 39.28C255.202 38.5547 255.117 37.7013 255.117 36.72C255.117 35.696 255.202 34.8427 255.373 34.16H273.293C273.463 34.8427 273.549 35.696 273.549 36.72C273.549 37.7013 273.463 38.5547 273.293 39.28H275.853C276.023 39.9627 276.109 40.816 276.109 41.84ZM270.733 49.52C270.562 48.7947 270.477 47.9413 270.477 46.96C270.477 45.936 270.562 45.0827 270.733 44.4C270.562 43.6747 270.477 42.8213 270.477 41.84C270.477 40.816 270.562 39.9627 270.733 39.28H260.493C260.663 39.9627 260.749 40.816 260.749 41.84C260.749 42.8213 260.663 43.6747 260.493 44.4C260.663 45.0827 260.749 45.936 260.749 46.96C260.749 47.9413 260.663 48.7947 260.493 49.52H270.733ZM301.478 49.52C301.648 50.2027 301.734 51.056 301.734 52.08C301.734 53.0613 301.648 53.9147 301.478 54.64H296.358C296.187 53.9147 296.102 53.0613 296.102 52.08C296.102 51.056 296.187 50.2027 296.358 49.52H291.878C292.048 50.2027 292.134 51.056 292.134 52.08C292.134 53.0613 292.048 53.9147 291.878 54.64H289.958C290.128 55.3227 290.214 56.176 290.214 57.2C290.214 58.1813 290.128 59.0347 289.958 59.76C290.128 60.4427 290.214 61.296 290.214 62.32C290.214 63.3013 290.128 64.1547 289.958 64.88H293.798C293.968 65.5627 294.054 66.416 294.054 67.44C294.054 68.4213 293.968 69.2747 293.798 70H280.998C280.827 69.2747 280.742 68.4213 280.742 67.44C280.742 66.416 280.827 65.5627 280.998 64.88H284.838C284.667 64.1547 284.582 63.3013 284.582 62.32C284.582 61.296 284.667 60.4427 284.838 59.76C284.667 59.0347 284.582 58.1813 284.582 57.2C284.582 56.176 284.667 55.3227 284.838 54.64C284.667 53.9147 284.582 53.0613 284.582 52.08C284.582 51.056 284.667 50.2027 284.838 49.52H280.998C280.827 48.7947 280.742 47.9413 280.742 46.96C280.742 45.936 280.827 45.0827 280.998 44.4H287.398C287.568 45.0827 287.654 45.936 287.654 46.96C287.654 47.9413 287.568 48.7947 287.398 49.52H289.958C289.787 48.7947 289.702 47.9413 289.702 46.96C289.702 45.936 289.787 45.0827 289.958 44.4H299.558C299.728 45.0827 299.814 45.936 299.814 46.96C299.814 47.9413 299.728 48.7947 299.558 49.52H301.478ZM327.359 57.2C327.359 58.1813 327.273 59.0347 327.103 59.76H325.183C325.353 60.4427 325.439 61.296 325.439 62.32C325.439 63.3013 325.353 64.1547 325.183 64.88H321.983C322.153 65.5627 322.239 66.416 322.239 67.44C322.239 68.4213 322.153 69.2747 321.983 70H311.743C311.572 69.2747 311.487 68.4213 311.487 67.44C311.487 66.416 311.572 65.5627 311.743 64.88H308.543C308.372 64.1547 308.286 63.3013 308.286 62.32C308.286 61.296 308.372 60.4427 308.543 59.76H306.623C306.452 59.0347 306.367 58.1813 306.367 57.2C306.367 56.176 306.452 55.3227 306.623 54.64H308.543C308.372 53.9147 308.286 53.0613 308.286 52.08C308.286 51.056 308.372 50.2027 308.543 49.52H311.743C311.572 48.7947 311.487 47.9413 311.487 46.96C311.487 45.936 311.572 45.0827 311.743 44.4H321.983C322.153 45.0827 322.239 45.936 322.239 46.96C322.239 47.9413 322.153 48.7947 321.983 49.52H325.183C325.353 50.2027 325.439 51.056 325.439 52.08C325.439 53.0613 325.353 53.9147 325.183 54.64H327.103C327.273 55.3227 327.359 56.176 327.359 57.2ZM321.983 59.76C321.812 59.0347 321.727 58.1813 321.727 57.2C321.727 56.176 321.812 55.3227 321.983 54.64H320.062C319.892 53.9147 319.807 53.0613 319.807 52.08C319.807 51.056 319.892 50.2027 320.062 49.52H313.663C313.833 50.2027 313.919 51.056 313.919 52.08C313.919 53.0613 313.833 53.9147 313.663 54.64H311.743C311.913 55.3227 311.999 56.176 311.999 57.2C311.999 58.1813 311.913 59.0347 311.743 59.76H313.663C313.833 60.4427 313.919 61.296 313.919 62.32C313.919 63.3013 313.833 64.1547 313.663 64.88H320.062C319.892 64.1547 319.807 63.3013 319.807 62.32C319.807 61.296 319.892 60.4427 320.062 59.76H321.983ZM352.728 49.52C352.898 50.2027 352.984 51.056 352.984 52.08C352.984 53.0613 352.898 53.9147 352.728 54.64C352.898 55.3227 352.984 56.176 352.984 57.2C352.984 58.1813 352.898 59.0347 352.728 59.76C352.898 60.4427 352.984 61.296 352.984 62.32C352.984 63.3013 352.898 64.1547 352.728 64.88C352.898 65.5627 352.984 66.416 352.984 67.44C352.984 68.4213 352.898 69.2747 352.728 70H347.608C347.437 69.2747 347.352 68.4213 347.352 67.44C347.352 66.416 347.437 65.5627 347.608 64.88C347.437 64.1547 347.352 63.3013 347.352 62.32C347.352 61.296 347.437 60.4427 347.608 59.76C347.437 59.0347 347.352 58.1813 347.352 57.2C347.352 56.176 347.437 55.3227 347.608 54.64C347.437 53.9147 347.352 53.0613 347.352 52.08C347.352 51.056 347.437 50.2027 347.608 49.52H339.928C340.098 50.2027 340.184 51.056 340.184 52.08C340.184 53.0613 340.098 53.9147 339.928 54.64C340.098 55.3227 340.184 56.176 340.184 57.2C340.184 58.1813 340.098 59.0347 339.928 59.76C340.098 60.4427 340.184 61.296 340.184 62.32C340.184 63.3013 340.098 64.1547 339.928 64.88H342.488C342.658 65.5627 342.744 66.416 342.744 67.44C342.744 68.4213 342.658 69.2747 342.488 70H332.248C332.077 69.2747 331.992 68.4213 331.992 67.44C331.992 66.416 332.077 65.5627 332.248 64.88H334.808C334.637 64.1547 334.552 63.3013 334.552 62.32C334.552 61.296 334.637 60.4427 334.808 59.76C334.637 59.0347 334.552 58.1813 334.552 57.2C334.552 56.176 334.637 55.3227 334.808 54.64C334.637 53.9147 334.552 53.0613 334.552 52.08C334.552 51.056 334.637 50.2027 334.808 49.52H332.248C332.077 48.7947 331.992 47.9413 331.992 46.96C331.992 45.936 332.077 45.0827 332.248 44.4H334.808C334.637 43.6747 334.552 42.8213 334.552 41.84C334.552 40.816 334.637 39.9627 334.808 39.28H337.368C337.197 38.5547 337.112 37.7013 337.112 36.72C337.112 35.696 337.197 34.8427 337.368 34.16H347.608C347.778 34.8427 347.864 35.696 347.864 36.72C347.864 37.7013 347.778 38.5547 347.608 39.28H339.928C340.098 39.9627 340.184 40.816 340.184 41.84C340.184 42.8213 340.098 43.6747 339.928 44.4H352.728C352.898 45.0827 352.984 45.936 352.984 46.96C352.984 47.9413 352.898 48.7947 352.728 49.52ZM375.793 64.88C375.963 65.5627 376.049 66.416 376.049 67.44C376.049 68.4213 375.963 69.2747 375.793 70H360.433C360.262 69.2747 360.177 68.4213 360.177 67.44C360.177 66.416 360.262 65.5627 360.433 64.88H365.553C365.382 64.1547 365.297 63.3013 365.297 62.32C365.297 61.296 365.382 60.4427 365.553 59.76C365.382 59.0347 365.297 58.1813 365.297 57.2C365.297 56.176 365.382 55.3227 365.553 54.64C365.382 53.9147 365.297 53.0613 365.297 52.08C365.297 51.056 365.382 50.2027 365.553 49.52C365.382 48.7947 365.297 47.9413 365.297 46.96C365.297 45.936 365.382 45.0827 365.553 44.4C365.382 43.6747 365.297 42.8213 365.297 41.84C365.297 40.816 365.382 39.9627 365.553 39.28H361.713C361.542 38.5547 361.457 37.7013 361.457 36.72C361.457 35.696 361.542 34.8427 361.713 34.16H370.673C370.843 34.8427 370.929 35.696 370.929 36.72C370.929 37.7013 370.843 38.5547 370.673 39.28C370.843 39.9627 370.929 40.816 370.929 41.84C370.929 42.8213 370.843 43.6747 370.673 44.4C370.843 45.0827 370.929 45.936 370.929 46.96C370.929 47.9413 370.843 48.7947 370.673 49.52C370.843 50.2027 370.929 51.056 370.929 52.08C370.929 53.0613 370.843 53.9147 370.673 54.64C370.843 55.3227 370.929 56.176 370.929 57.2C370.929 58.1813 370.843 59.0347 370.673 59.76C370.843 60.4427 370.929 61.296 370.929 62.32C370.929 63.3013 370.843 64.1547 370.673 64.88H375.793ZM404.234 52.08C404.234 53.0613 404.148 53.9147 403.978 54.64C404.148 55.3227 404.234 56.176 404.234 57.2C404.234 58.1813 404.148 59.0347 403.978 59.76H390.538C390.708 60.4427 390.794 61.296 390.794 62.32C390.794 63.3013 390.708 64.1547 390.538 64.88H401.418C401.588 65.5627 401.674 66.416 401.674 67.44C401.674 68.4213 401.588 69.2747 401.418 70H388.618C388.447 69.2747 388.362 68.4213 388.362 67.44C388.362 66.416 388.447 65.5627 388.618 64.88H385.418C385.247 64.1547 385.161 63.3013 385.161 62.32C385.161 61.296 385.247 60.4427 385.418 59.76H383.498C383.327 59.0347 383.242 58.1813 383.242 57.2C383.242 56.176 383.327 55.3227 383.498 54.64H385.418C385.247 53.9147 385.161 53.0613 385.161 52.08C385.161 51.056 385.247 50.2027 385.418 49.52H388.618C388.447 48.7947 388.362 47.9413 388.362 46.96C388.362 45.936 388.447 45.0827 388.618 44.4H401.418C401.588 45.0827 401.674 45.936 401.674 46.96C401.674 47.9413 401.588 48.7947 401.418 49.52H403.978C404.148 50.2027 404.234 51.056 404.234 52.08ZM398.858 54.64C398.687 53.9147 398.602 53.0613 398.602 52.08C398.602 51.056 398.687 50.2027 398.858 49.52H390.538C390.708 50.2027 390.794 51.056 390.794 52.08C390.794 53.0613 390.708 53.9147 390.538 54.64H398.858Z" fill="#FB8500"/>
<rect x="24.7552" y="12.7552" width="453.49" height="88.4895" stroke="#FB8500" stroke-width="3.51048"/>
<rect x="1.75524" y="1.75524" width="453.49" height="87.4895" stroke="#FB8500" stroke-width="3.51048"/>
</svg>
