<svg width="480" height="103" viewBox="0 0 480 103" fill="none" xmlns="http://www.w3.org/2000/svg"><path d="M96.478 59.76c.17.683.256 1.536.256 2.56 0 .981-.086 1.835-.256 2.56h-2.56c.17.683.255 1.536.255 2.56 0 .981-.085 1.835-.255 2.56h-12.8c-.171-.725-.256-1.579-.256-2.56 0-1.024.085-1.877.256-2.56h-2.56c-.171-.725-.257-1.579-.257-2.56 0-1.024.086-1.877.257-2.56h-2.56c-.171-.725-.257-1.579-.257-2.56 0-1.024.086-1.877.257-2.56-.171-.725-.257-1.579-.257-2.56 0-1.024.086-1.877.257-2.56-.171-.725-.257-1.579-.257-2.56 0-1.024.086-1.877.257-2.56h2.56c-.171-.725-.257-1.579-.257-2.56 0-1.024.086-1.877.257-2.56h2.56c-.171-.725-.256-1.579-.256-2.56 0-1.024.085-1.877.256-2.56h12.8c.17.683.255 1.536.255 2.56 0 .981-.085 1.835-.255 2.56h2.56c.17.683.256 1.536.256 2.56 0 .981-.086 1.835-.256 2.56h-5.12c-.171-.725-.257-1.579-.257-2.56 0-1.024.086-1.877.257-2.56h-7.68c.17.683.255 1.536.255 2.56 0 .981-.085 1.835-.256 2.56h-2.56c.171.683.257 1.536.257 2.56 0 .981-.086 1.835-.256 2.56.17.683.256 1.536.256 2.56 0 .981-.086 1.835-.256 2.56.17.683.256 1.536.256 2.56 0 .981-.086 1.835-.256 2.56h2.56c.17.683.255 1.536.255 2.56 0 .981-.085 1.835-.256 2.56h7.68c-.17-.725-.255-1.579-.255-2.56 0-1.024.085-1.877.255-2.56h5.12Zm25.625-10.24c.17.683.256 1.536.256 2.56 0 .981-.086 1.835-.256 2.56h-5.12c-.171-.725-.256-1.579-.256-2.56 0-1.024.085-1.877.256-2.56h-4.48c.17.683.256 1.536.256 2.56 0 .981-.086 1.835-.256 2.56h-1.92c.17.683.256 1.536.256 2.56 0 .981-.086 1.835-.256 2.56.17.683.256 1.536.256 2.56 0 .981-.086 1.835-.256 2.56h3.84c.17.683.256 1.536.256 2.56 0 .981-.086 1.835-.256 2.56h-12.8c-.171-.725-.256-1.579-.256-2.56 0-1.024.085-1.877.256-2.56h3.84c-.171-.725-.256-1.579-.256-2.56 0-1.024.085-1.877.256-2.56-.171-.725-.256-1.579-.256-2.56 0-1.024.085-1.877.256-2.56-.171-.725-.256-1.579-.256-2.56 0-1.024.085-1.877.256-2.56h-3.84c-.171-.725-.256-1.579-.256-2.56 0-1.024.085-1.877.256-2.56h6.4c.17.683.256 1.536.256 2.56 0 .981-.086 1.835-.256 2.56h2.56c-.171-.725-.256-1.579-.256-2.56 0-1.024.085-1.877.256-2.56h9.6c.17.683.256 1.536.256 2.56 0 .981-.086 1.835-.256 2.56h1.92Zm25.881 2.56c0 .981-.086 1.835-.256 2.56.17.683.256 1.536.256 2.56 0 .981-.086 1.835-.256 2.56h-13.44c.17.683.256 1.536.256 2.56 0 .981-.086 1.835-.256 2.56h10.88c.17.683.256 1.536.256 2.56 0 .981-.086 1.835-.256 2.56h-12.8c-.171-.725-.256-1.579-.256-2.56 0-1.024.085-1.877.256-2.56h-3.2c-.171-.725-.257-1.579-.257-2.56 0-1.024.086-1.877.257-2.56h-1.92c-.171-.725-.256-1.579-.256-2.56 0-1.024.085-1.877.256-2.56h1.92c-.171-.725-.257-1.579-.257-2.56 0-1.024.086-1.877.257-2.56h3.2c-.171-.725-.256-1.579-.256-2.56 0-1.024.085-1.877.256-2.56h12.8c.17.683.256 1.536.256 2.56 0 .981-.086 1.835-.256 2.56h2.56c.17.683.256 1.536.256 2.56Zm-5.376 2.56c-.171-.725-.256-1.579-.256-2.56 0-1.024.085-1.877.256-2.56h-8.32c.17.683.256 1.536.256 2.56 0 .981-.086 1.835-.256 2.56h8.32Zm30.745 10.24c.17.683.256 1.536.256 2.56 0 .981-.086 1.835-.256 2.56h-5.12c-.171-.725-.256-1.579-.256-2.56 0-1.024.085-1.877.256-2.56h-2.56c-.171-.725-.256-1.579-.256-2.56 0-1.024.085-1.877.256-2.56h-7.68c.17.683.256 1.536.256 2.56 0 .981-.086 1.835-.256 2.56h7.68c.17.683.256 1.536.256 2.56 0 .981-.086 1.835-.256 2.56h-10.24c-.171-.725-.256-1.579-.256-2.56 0-1.024.085-1.877.256-2.56h-2.56c-.171-.725-.256-1.579-.256-2.56 0-1.024.085-1.877.256-2.56h2.56c-.171-.725-.256-1.579-.256-2.56 0-1.024.085-1.877.256-2.56h10.24c-.171-.725-.256-1.579-.256-2.56 0-1.024.085-1.877.256-2.56h-8.96c-.171-.725-.256-1.579-.256-2.56 0-1.024.085-1.877.256-2.56h11.52c.17.683.256 1.536.256 2.56 0 .981-.086 1.835-.256 2.56h2.56c.17.683.256 1.536.256 2.56 0 .981-.086 1.835-.256 2.56.17.683.256 1.536.256 2.56 0 .981-.086 1.835-.256 2.56.17.683.256 1.536.256 2.56 0 .981-.086 1.835-.256 2.56h2.56Zm23.065 0c.17.683.256 1.536.256 2.56 0 .981-.086 1.835-.256 2.56h-10.24c-.171-.725-.256-1.579-.256-2.56 0-1.024.085-1.877.256-2.56h-2.56c-.171-.725-.256-1.579-.256-2.56 0-1.024.085-1.877.256-2.56-.171-.725-.256-1.579-.256-2.56 0-1.024.085-1.877.256-2.56-.171-.725-.256-1.579-.256-2.56 0-1.024.085-1.877.256-2.56h-5.12c-.171-.725-.256-1.579-.256-2.56 0-1.024.085-1.877.256-2.56h5.12c-.171-.725-.256-1.579-.256-2.56 0-1.024.085-1.877.256-2.56-.171-.725-.256-1.579-.256-2.56 0-1.024.085-1.877.256-2.56h5.12c.17.683.256 1.536.256 2.56 0 .981-.086 1.835-.256 2.56.17.683.256 1.536.256 2.56 0 .981-.086 1.835-.256 2.56h7.68c.17.683.256 1.536.256 2.56 0 .981-.086 1.835-.256 2.56h-7.68c.17.683.256 1.536.256 2.56 0 .981-.086 1.835-.256 2.56.17.683.256 1.536.256 2.56 0 .981-.086 1.835-.256 2.56.17.683.256 1.536.256 2.56 0 .981-.086 1.835-.256 2.56h7.68Zm28.441-12.8c0 .981-.086 1.835-.256 2.56.17.683.256 1.536.256 2.56 0 .981-.086 1.835-.256 2.56h-13.44c.17.683.256 1.536.256 2.56 0 .981-.086 1.835-.256 2.56h10.88c.17.683.256 1.536.256 2.56 0 .981-.086 1.835-.256 2.56h-12.8c-.171-.725-.256-1.579-.256-2.56 0-1.024.085-1.877.256-2.56h-3.2c-.171-.725-.257-1.579-.257-2.56 0-1.024.086-1.877.257-2.56h-1.92c-.171-.725-.256-1.579-.256-2.56 0-1.024.085-1.877.256-2.56h1.92c-.171-.725-.257-1.579-.257-2.56 0-1.024.086-1.877.257-2.56h3.2c-.171-.725-.256-1.579-.256-2.56 0-1.024.085-1.877.256-2.56h12.8c.17.683.256 1.536.256 2.56 0 .981-.086 1.835-.256 2.56h2.56c.17.683.256 1.536.256 2.56Zm-5.376 2.56c-.171-.725-.256-1.579-.256-2.56 0-1.024.085-1.877.256-2.56h-8.32c.17.683.256 1.536.256 2.56 0 .981-.086 1.835-.256 2.56h8.32Zm56.626-12.8c0 .981-.086 1.835-.256 2.56.17.683.256 1.536.256 2.56 0 .981-.086 1.835-.256 2.56h-2.56c.17.683.256 1.536.256 2.56 0 .981-.086 1.835-.256 2.56h-12.8c.17.683.256 1.536.256 2.56 0 .981-.086 1.835-.256 2.56.17.683.256 1.536.256 2.56 0 .981-.086 1.835-.256 2.56.17.683.256 1.536.256 2.56 0 .981-.086 1.835-.256 2.56h-5.12c-.171-.725-.256-1.579-.256-2.56 0-1.024.085-1.877.256-2.56-.171-.725-.256-1.579-.256-2.56 0-1.024.085-1.877.256-2.56-.171-.725-.256-1.579-.256-2.56 0-1.024.085-1.877.256-2.56-.171-.725-.256-1.579-.256-2.56 0-1.024.085-1.877.256-2.56-.171-.725-.256-1.579-.256-2.56 0-1.024.085-1.877.256-2.56-.171-.725-.256-1.579-.256-2.56 0-1.024.085-1.877.256-2.56-.171-.725-.256-1.579-.256-2.56 0-1.024.085-1.877.256-2.56h17.92c.17.683.256 1.536.256 2.56 0 .981-.086 1.835-.256 2.56h2.56c.17.683.256 1.536.256 2.56Zm-5.376 7.68c-.171-.725-.256-1.579-.256-2.56 0-1.024.085-1.877.256-2.56-.171-.725-.256-1.579-.256-2.56 0-1.024.085-1.877.256-2.56h-10.24c.17.683.256 1.536.256 2.56 0 .981-.086 1.835-.256 2.56.17.683.256 1.536.256 2.56 0 .981-.086 1.835-.256 2.56h10.24Zm30.745 0c.17.683.256 1.536.256 2.56 0 .981-.086 1.835-.256 2.56h-5.12c-.171-.725-.256-1.579-.256-2.56 0-1.024.085-1.877.256-2.56h-4.48c.17.683.256 1.536.256 2.56 0 .981-.086 1.835-.256 2.56h-1.92c.17.683.256 1.536.256 2.56 0 .981-.086 1.835-.256 2.56.17.683.256 1.536.256 2.56 0 .981-.086 1.835-.256 2.56h3.84c.17.683.256 1.536.256 2.56 0 .981-.086 1.835-.256 2.56h-12.8c-.171-.725-.256-1.579-.256-2.56 0-1.024.085-1.877.256-2.56h3.84c-.171-.725-.256-1.579-.256-2.56 0-1.024.085-1.877.256-2.56-.171-.725-.256-1.579-.256-2.56 0-1.024.085-1.877.256-2.56-.171-.725-.256-1.579-.256-2.56 0-1.024.085-1.877.256-2.56h-3.84c-.171-.725-.256-1.579-.256-2.56 0-1.024.085-1.877.256-2.56h6.4c.17.683.256 1.536.256 2.56 0 .981-.086 1.835-.256 2.56h2.56c-.171-.725-.256-1.579-.256-2.56 0-1.024.085-1.877.256-2.56h9.6c.17.683.256 1.536.256 2.56 0 .981-.086 1.835-.256 2.56h1.92Zm25.881 7.68c0 .981-.086 1.835-.256 2.56h-1.92c.17.683.256 1.536.256 2.56 0 .981-.086 1.835-.256 2.56h-3.2c.17.683.256 1.536.256 2.56 0 .981-.086 1.835-.256 2.56h-10.24c-.171-.725-.256-1.579-.256-2.56 0-1.024.085-1.877.256-2.56h-3.2c-.171-.725-.257-1.579-.257-2.56 0-1.024.086-1.877.257-2.56h-1.92c-.171-.725-.256-1.579-.256-2.56 0-1.024.085-1.877.256-2.56h1.92c-.171-.725-.257-1.579-.257-2.56 0-1.024.086-1.877.257-2.56h3.2c-.171-.725-.256-1.579-.256-2.56 0-1.024.085-1.877.256-2.56h10.24c.17.683.256 1.536.256 2.56 0 .981-.086 1.835-.256 2.56h3.2c.17.683.256 1.536.256 2.56 0 .981-.086 1.835-.256 2.56h1.92c.17.683.256 1.536.256 2.56Zm-5.376 2.56c-.171-.725-.256-1.579-.256-2.56 0-1.024.085-1.877.256-2.56h-1.921c-.17-.725-.255-1.579-.255-2.56 0-1.024.085-1.877.255-2.56h-6.399c.17.683.256 1.536.256 2.56 0 .981-.086 1.835-.256 2.56h-1.92c.17.683.256 1.536.256 2.56 0 .981-.086 1.835-.256 2.56h1.92c.17.683.256 1.536.256 2.56 0 .981-.086 1.835-.256 2.56h6.399c-.17-.725-.255-1.579-.255-2.56 0-1.024.085-1.877.255-2.56h1.921Zm30.745-10.24c.17.683.256 1.536.256 2.56 0 .981-.086 1.835-.256 2.56.17.683.256 1.536.256 2.56 0 .981-.086 1.835-.256 2.56.17.683.256 1.536.256 2.56 0 .981-.086 1.835-.256 2.56.17.683.256 1.536.256 2.56 0 .981-.086 1.835-.256 2.56h-5.12c-.171-.725-.256-1.579-.256-2.56 0-1.024.085-1.877.256-2.56-.171-.725-.256-1.579-.256-2.56 0-1.024.085-1.877.256-2.56-.171-.725-.256-1.579-.256-2.56 0-1.024.085-1.877.256-2.56-.171-.725-.256-1.579-.256-2.56 0-1.024.085-1.877.256-2.56h-7.68c.17.683.256 1.536.256 2.56 0 .981-.086 1.835-.256 2.56.17.683.256 1.536.256 2.56 0 .981-.086 1.835-.256 2.56.17.683.256 1.536.256 2.56 0 .981-.086 1.835-.256 2.56h2.56c.17.683.256 1.536.256 2.56 0 .981-.086 1.835-.256 2.56h-10.24c-.171-.725-.256-1.579-.256-2.56 0-1.024.085-1.877.256-2.56h2.56c-.171-.725-.256-1.579-.256-2.56 0-1.024.085-1.877.256-2.56-.171-.725-.256-1.579-.256-2.56 0-1.024.085-1.877.256-2.56-.171-.725-.256-1.579-.256-2.56 0-1.024.085-1.877.256-2.56h-2.56c-.171-.725-.256-1.579-.256-2.56 0-1.024.085-1.877.256-2.56h2.56c-.171-.725-.256-1.579-.256-2.56 0-1.024.085-1.877.256-2.56h2.56c-.171-.725-.256-1.579-.256-2.56 0-1.024.085-1.877.256-2.56h10.24c.17.683.256 1.536.256 2.56 0 .981-.086 1.835-.256 2.56h-7.68c.17.683.256 1.536.256 2.56 0 .981-.086 1.835-.256 2.56h12.8c.17.683.256 1.536.256 2.56 0 .981-.086 1.835-.256 2.56Zm23.065 15.36c.17.683.256 1.536.256 2.56 0 .981-.086 1.835-.256 2.56h-15.36c-.171-.725-.256-1.579-.256-2.56 0-1.024.085-1.877.256-2.56h5.12c-.171-.725-.256-1.579-.256-2.56 0-1.024.085-1.877.256-2.56-.171-.725-.256-1.579-.256-2.56 0-1.024.085-1.877.256-2.56-.171-.725-.256-1.579-.256-2.56 0-1.024.085-1.877.256-2.56-.171-.725-.256-1.579-.256-2.56 0-1.024.085-1.877.256-2.56-.171-.725-.256-1.579-.256-2.56 0-1.024.085-1.877.256-2.56h-3.84c-.171-.725-.256-1.579-.256-2.56 0-1.024.085-1.877.256-2.56h8.96c.17.683.256 1.536.256 2.56 0 .981-.086 1.835-.256 2.56.17.683.256 1.536.256 2.56 0 .981-.086 1.835-.256 2.56.17.683.256 1.536.256 2.56 0 .981-.086 1.835-.256 2.56.17.683.256 1.536.256 2.56 0 .981-.086 1.835-.256 2.56.17.683.256 1.536.256 2.56 0 .981-.086 1.835-.256 2.56.17.683.256 1.536.256 2.56 0 .981-.086 1.835-.256 2.56h5.12Zm28.441-12.8c0 .981-.086 1.835-.256 2.56.17.683.256 1.536.256 2.56 0 .981-.086 1.835-.256 2.56h-13.44c.17.683.256 1.536.256 2.56 0 .981-.086 1.835-.256 2.56h10.88c.17.683.256 1.536.256 2.56 0 .981-.086 1.835-.256 2.56h-12.8c-.171-.725-.256-1.579-.256-2.56 0-1.024.085-1.877.256-2.56h-3.2c-.171-.725-.257-1.579-.257-2.56 0-1.024.086-1.877.257-2.56h-1.92c-.171-.725-.256-1.579-.256-2.56 0-1.024.085-1.877.256-2.56h1.92c-.171-.725-.257-1.579-.257-2.56 0-1.024.086-1.877.257-2.56h3.2c-.171-.725-.256-1.579-.256-2.56 0-1.024.085-1.877.256-2.56h12.8c.17.683.256 1.536.256 2.56 0 .981-.086 1.835-.256 2.56h2.56c.17.683.256 1.536.256 2.56Zm-5.376 2.56c-.171-.725-.256-1.579-.256-2.56 0-1.024.085-1.877.256-2.56h-8.32c.17.683.256 1.536.256 2.56 0 .981-.086 1.835-.256 2.56h8.32Z" fill="#FB8500"/><path stroke="#FB8500" stroke-width="3.51" d="M24.755 12.755h453.49v88.49H24.755z"/><path stroke="#FB8500" stroke-width="3.51" d="M1.755 1.755h453.49v87.49H1.755z"/></svg>