<svg width="25" height="22" viewBox="0 0 25 22" fill="none" xmlns="http://www.w3.org/2000/svg">
<path d="M16.46 1H2.5C1.94772 1 1.5 1.44771 1.5 2V6.08696C1.5 6.63924 1.96285 7.06347 2.48642 7.23922C5.38394 8.21186 4.89675 13.5509 2.46862 14.6965C1.96913 14.9322 1.5 15.3608 1.5 15.913V20C1.5 20.5523 1.94772 21 2.5 21H16.46M16.46 1H22.5C23.0523 1 23.5 1.44772 23.5 2V6.08696C23.5 6.63924 23.0309 7.0678 22.5314 7.30346C20.1032 8.44907 19.6161 13.7881 22.5136 14.7608C23.0372 14.9365 23.5 15.3608 23.5 15.913V20C23.5 20.5523 23.0523 21 22.5 21H16.46M16.46 1V21" stroke="white" stroke-width="1.70261"/>
</svg>
