<svg width="9" height="8" viewBox="0 0 9 8" fill="none" xmlns="http://www.w3.org/2000/svg">
<path fill-rule="evenodd" clip-rule="evenodd" d="M4.80011 1.62103C4.62926 1.77341 4.37074 1.77341 4.19989 1.62103L3.89978 1.35336C3.58073 1.06881 3.16159 0.896844 2.7 0.896844C1.70589 0.896844 0.9 1.69991 0.9 2.69053C0.9 4.08222 1.77278 5.19749 2.81221 6.02608C3.31998 6.43086 3.83262 6.73789 4.22038 6.94396C4.39523 7.03688 4.60475 7.03687 4.7796 6.94395C5.16737 6.73787 5.68001 6.43083 6.18778 6.02604C7.22722 5.19742 8.1 4.08229 8.1 2.6906C8.1 1.69998 7.29411 0.896844 6.3 0.896844C5.83841 0.896844 5.41927 1.06881 5.10022 1.35336L4.80011 1.62103ZM4.5 0.685093C4.02232 0.259057 3.39152 0 2.7 0C1.20883 0 0 1.20459 0 2.69053C0 5.6866 3.13878 7.43155 4.17352 7.92539C4.38194 8.02487 4.61806 8.02487 4.82648 7.9254C5.86122 7.43157 9 5.68666 9 2.6906C9 1.20466 7.79117 0 6.3 0C5.60848 0 4.97768 0.259057 4.5 0.685093Z" fill="#747474"/>
</svg>
