<svg width="16" height="22" viewBox="0 0 16 22" fill="none" xmlns="http://www.w3.org/2000/svg">
<path fill-rule="evenodd" clip-rule="evenodd" d="M1.80558 2.74416C2.93928 1.3922 4.93411 0 7.68416 0C9.01163 0 10.0134 0.345605 10.0235 0.349104L10.0284 0.346968C11.9264 0.956974 13.551 2.23755 14.5337 4.12597L14.5322 4.12772C14.5495 4.15718 15.4 5.61755 15.4 7.71376C15.4 9.9777 14.5198 11.5988 14.5198 11.5988C13.9061 12.8633 12.6503 14.4174 12.1486 15.0384L12.1485 15.0384C12.0647 15.1421 12.002 15.2198 11.9668 15.2657C11.0579 16.4001 10.133 17.5803 9.38861 18.9084C9.00927 19.5963 8.76881 20.3244 8.46238 21.2784C8.31481 21.7166 8.12384 22 7.70282 22C7.31653 22 7.13684 21.8334 6.93805 21.2753C6.61383 20.2652 6.42893 19.6967 5.98534 18.8583C5.46581 17.9668 4.88468 17.1125 4.24617 16.3014L4.24664 16.2987C3.9569 15.9089 3.63002 15.5045 3.29092 15.0849C2.3708 13.9466 1.36073 12.6969 0.758694 11.3262C0.758694 11.3262 0 9.84531 0 7.69991C0 5.67219 0.790812 3.89971 1.80558 2.74416ZM5.43238 5.78624L5.43412 5.7877L5.41882 5.80582C5.31966 5.92664 4.75789 6.65616 4.75789 7.67698C4.75789 9.30972 6.07215 10.6046 7.69892 10.6046C8.81559 10.6046 9.54914 9.99104 9.83265 9.70215L9.96458 9.55243L10.0189 9.48462C10.1778 9.27351 10.6421 8.57768 10.6421 7.65535C10.6421 5.98454 9.23063 4.73641 7.70586 4.73641C6.264 4.73641 5.43586 5.78424 5.43586 5.78424V5.78212L5.43238 5.78624Z" fill="#898989"/>
</svg>
