<svg width="143" height="142" viewBox="0 0 143 142" fill="none" xmlns="http://www.w3.org/2000/svg"><path fill-rule="evenodd" clip-rule="evenodd" d="M134.556 27.804c0 2.383 1.589 3.972 3.972 3.972s3.972-1.589 3.972-3.972V11.916C142.5 5.561 136.939 0 130.584 0h-15.888c-2.383 0-3.972 1.589-3.972 3.972s1.589 3.972 3.972 3.972h15.888c2.383 0 3.972 1.589 3.972 3.972v15.888ZM.5 27.804c0 2.384 1.589 3.972 3.972 3.972s3.972-1.588 3.972-3.972V11.916c0-2.383 1.589-3.972 3.972-3.972h15.888c2.383 0 3.972-1.589 3.972-3.972S30.687 0 28.304 0H12.416C6.061 0 .5 5.56.5 11.916v15.888ZM12.416 142h15.888c2.383 0 3.972-1.589 3.972-3.972s-1.589-3.972-3.972-3.972H12.416c-2.383 0-3.972-1.589-3.972-3.972v-15.888c0-2.383-1.589-3.972-3.972-3.972S.5 111.813.5 114.196v15.888C.5 136.439 6.06 142 12.416 142Zm118.168 0h-15.888c-2.383 0-3.972-1.589-3.972-3.972s1.589-3.972 3.972-3.972h15.888c2.383 0 3.972-1.589 3.972-3.972v-15.888c0-2.383 1.589-3.972 3.972-3.972s3.972 1.589 3.972 3.972v15.888c0 6.355-5.561 11.916-11.916 11.916Z" fill="#fff" fill-opacity=".3"/></svg>