<svg width="33" height="33" viewBox="0 0 33 33" fill="none" xmlns="http://www.w3.org/2000/svg">
<path d="M5.15527 5.15527H10.3916V10.3916H5.15527V5.15527Z" fill="color"/>
<path d="M5.15527 22.6094H10.3916V27.8457H5.15527V22.6094Z" fill="color"/>
<path d="M22.6089 5.15527H27.8452V10.3916H22.6089V5.15527Z" fill="color"/>
<path d="M29.8813 29.8808H24.645V32.499H29.8813C31.3358 32.499 32.4995 31.3354 32.4995 29.8808V27.2627H29.8813V29.8808Z" fill="color"/>
<path d="M0.5 3.11815V15.0453H15.0453V0.5H3.11815C1.66362 0.5 0.5 1.66362 0.5 3.11815ZM12.4271 12.4271H3.11815V3.11815H12.4271V12.4271Z" fill="color"/>
<path d="M0.5 29.8812C0.5 31.3358 1.66362 32.4994 3.11815 32.4994H15.0453V17.9541H0.5V29.8812ZM3.11815 20.5723H12.4271V29.8812H3.11815V20.5723Z" fill="color"/>
<path d="M17.9536 17.9541H27.2626V20.5723H17.9536V17.9541Z" fill="color"/>
<path d="M24.6459 21.7363H21.7368V24.6454H24.6459V27.2635H27.264V24.6454H32.5003V21.7363H27.264H24.6459Z" fill="color"/>
<path d="M17.9536 27.2627H20.5718V32.499H17.9536V27.2627Z" fill="color"/>
<path d="M21.7368 27.2627H24.355V29.8808H21.7368V27.2627Z" fill="color"/>
<path d="M17.9536 21.7363H20.5718V24.3545H17.9536V21.7363Z" fill="color"/>
<path d="M29.8818 17.9541H32.5V20.5723H29.8818V17.9541Z" fill="color"/>
<path d="M29.8807 0.5H17.9536V15.0453H32.4989V3.11815C32.4989 1.66362 31.3353 0.5 29.8807 0.5ZM29.8807 12.4271H20.5718V3.11815H29.8807V12.4271Z" fill="color"/>
</svg>
