<svg width="33" height="33" viewBox="0 0 33 33" fill="none" xmlns="http://www.w3.org/2000/svg"><path d="M5.155 5.155h5.237v5.237H5.155V5.155Zm0 17.455h5.237v5.236H5.155v-5.237ZM22.609 5.155h5.236v5.237H22.61V5.155Zm7.272 24.725h-5.236v2.62h5.236a2.607 2.607 0 0 0 2.618-2.618v-2.618h-2.618v2.618Z" fill="color"/><path d="M.5 3.118v11.927h14.545V.5H3.118A2.607 2.607 0 0 0 .5 3.118Zm11.927 9.31H3.118v-9.31h9.31v9.31ZM.5 29.881A2.607 2.607 0 0 0 3.118 32.5h11.927V17.954H.5v11.927Zm2.618-9.309h9.31v9.31h-9.31v-9.31Zm14.836-2.618h9.309v2.618h-9.31v-2.618Zm6.692 3.782h-2.91v2.91h2.91v2.617h2.618v-2.618H32.5v-2.909h-7.854Zm-6.692 5.527h2.618v5.236h-2.618v-5.236Zm3.783 0h2.618v2.618h-2.618v-2.618Zm-3.783-5.527h2.618v2.619h-2.618v-2.619Zm11.928-3.782H32.5v2.618h-2.618v-2.618ZM29.88.5H17.955v14.545H32.5V3.118A2.607 2.607 0 0 0 29.88.5Zm0 11.927h-9.308V3.118h9.309v9.31Z" fill="color"/></svg>