<svg width="33" height="33" viewBox="0 0 33 33" fill="none" xmlns="http://www.w3.org/2000/svg"><path fill-rule="evenodd" clip-rule="evenodd" d="M1.955 12.136c-.873 0-1.455-.581-1.455-1.454V4.864C.5 2.536 2.536.5 4.864.5h5.818c.873 0 1.454.582 1.454 1.455 0 .872-.581 1.454-1.454 1.454H4.864c-.873 0-1.455.582-1.455 1.455v5.818c0 .873-.582 1.454-1.454 1.454ZM10.682 32.5H4.864C2.536 32.5.5 30.464.5 28.136v-5.818c0-.873.582-1.454 1.455-1.454.872 0 1.454.581 1.454 1.454v5.818c0 .873.582 1.455 1.455 1.455h5.818c.873 0 1.454.582 1.454 1.454 0 .873-.581 1.455-1.454 1.455Zm11.636 0h5.818c2.328 0 4.364-2.036 4.364-4.364v-5.818c0-.873-.582-1.454-1.455-1.454-.872 0-1.454.581-1.454 1.454v5.818c0 .873-.582 1.455-1.455 1.455h-5.818c-.873 0-1.454.582-1.454 1.454 0 .873.581 1.455 1.454 1.455Zm8.727-20.364c-.872 0-1.454-.581-1.454-1.454V4.864c0-.873-.582-1.455-1.455-1.455h-5.818c-.873 0-1.454-.582-1.454-1.454 0-.873.581-1.455 1.454-1.455h5.818C30.464.5 32.5 2.536 32.5 4.864v5.818c0 .873-.582 1.454-1.455 1.454Zm-29.09 5.818h29.09c.873 0 1.455-.581 1.455-1.454s-.582-1.455-1.454-1.455H1.954C1.082 15.045.5 15.627.5 16.5c0 .873.582 1.454 1.455 1.454Z" fill="color"/></svg>