<svg width="96" height="96" viewBox="0 0 96 96" fill="none" xmlns="http://www.w3.org/2000/svg">
<path d="M47.7732 77.709C64.3417 77.709 77.7732 64.2775 77.7732 47.709C77.7732 31.1404 64.3417 17.709 47.7732 17.709C31.2046 17.709 17.7732 31.1404 17.7732 47.709C17.7732 64.2775 31.2046 77.709 47.7732 77.709Z" fill="#F6AE22"/>
<path d="M73.4051 42.9694C73.4051 51.1462 69.5579 57.679 63.8351 62.0494C59.3759 65.4538 53.8296 67.8922 47.7732 67.8922C35.22 67.8922 21.0684 58.1998 21.0684 43.783C21.0684 30.745 34.5083 18.7402 48.3443 18.7402C62.1803 18.7402 73.4051 29.9326 73.4051 42.9694Z" fill="#F6CA2C"/>
<path d="M34.5121 47.6629C37.2121 47.6629 39.4009 45.0179 39.4009 41.7553C39.4009 38.4926 37.2121 35.8477 34.5121 35.8477C31.8121 35.8477 29.6233 38.4926 29.6233 41.7553C29.6233 45.0179 31.8121 47.6629 34.5121 47.6629Z" fill="#802D0D"/>
<path d="M61.5121 47.2772C64.2121 47.2772 66.4009 44.8048 66.4009 41.7548C66.4009 38.7049 64.2121 36.2324 61.5121 36.2324C58.8121 36.2324 56.6233 38.7049 56.6233 41.7548C56.6233 44.8048 58.8121 47.2772 61.5121 47.2772Z" fill="#802D0D"/>
<path d="M56.4865 63.338C56.4865 68.558 52.6345 72.2012 47.8621 72.2012C43.0897 72.2012 38.7073 69.3512 38.7073 64.1312C38.7073 58.9112 43.0897 53.2988 47.8621 53.2988C52.6345 53.2988 56.4865 58.118 56.4865 63.338Z" fill="#802D0D"/>
<path d="M52.9823 69.3768C52.9823 71.2536 50.7227 72.2017 47.9351 72.2017C45.1475 72.2017 43.0427 71.5176 43.0427 69.6396C43.0427 67.7616 45.6695 65.9473 48.4571 65.9473C51.2447 65.9473 52.9823 67.4988 52.9823 69.3768Z" fill="#EC423E"/>
</svg>
