<svg width="96" height="96" viewBox="0 0 96 96" fill="none" xmlns="http://www.w3.org/2000/svg"><path d="M47.773 77.709c16.569 0 30-13.431 30-30 0-16.569-13.431-30-30-30-16.568 0-30 13.431-30 30 0 16.569 13.432 30 30 30Z" fill="#F6AE22"/><path d="M73.405 42.97c0 8.176-3.847 14.709-9.57 19.08-4.46 3.404-10.005 5.842-16.062 5.842-12.553 0-26.705-9.692-26.705-24.109 0-13.038 13.44-25.043 27.276-25.043s25.061 11.193 25.061 24.23Z" fill="#F6CA2C"/><path d="M34.512 47.663c2.7 0 4.889-2.645 4.889-5.908 0-3.262-2.189-5.907-4.889-5.907s-4.889 2.645-4.889 5.907c0 3.263 2.19 5.908 4.89 5.908Zm27-.386c2.7 0 4.889-2.472 4.889-5.522 0-3.05-2.189-5.523-4.889-5.523s-4.889 2.473-4.889 5.523 2.19 5.522 4.89 5.522Zm-5.026 16.061c0 5.22-3.851 8.863-8.624 8.863-4.772 0-9.155-2.85-9.155-8.07 0-5.22 4.383-10.832 9.155-10.832 4.773 0 8.624 4.819 8.624 10.039Z" fill="#802D0D"/><path d="M52.982 69.377c0 1.877-2.26 2.825-5.047 2.825-2.788 0-4.892-.684-4.892-2.562 0-1.878 2.627-3.693 5.414-3.693 2.788 0 4.525 1.552 4.525 3.43Z" fill="#EC423E"/></svg>