<svg width="230" height="267" viewBox="0 0 230 267" fill="none" xmlns="http://www.w3.org/2000/svg"><rect x="83" y="240" width="66.443" height="26.182" rx="8" fill="#565656"/><path d="M98.969 258.182H97L100.585 248h2.277l3.589 10.182h-1.969l-2.719-8.094h-.08l-2.714 8.094Zm.064-3.992h5.37v1.481h-5.37v-1.481Zm18.387 3.723-1.025-1.014 3.068-3.067h-7.453v-1.482h7.453l-3.068-3.062 1.025-1.02 4.822 4.823-4.822 4.822Zm10.486.269v-1.149l5.22-7.487h-5.25V248h7.537v1.148l-5.215 7.488h5.245v1.546h-7.537Z" fill="#fff"/><path d="m7.292 79.38 51.494 124.064a20.872 20.872 0 0 0 18.791 13.081c2.7 0 5.503-.519 8.202-1.661l76.515-31.665c7.787-3.219 12.562-10.901 12.77-18.584.104-2.699-.415-5.71-1.35-8.409L121.805 32.142a20.29 20.29 0 0 0-18.792-12.977c-2.699 0-5.398.622-7.994 1.556L18.61 52.386A20.702 20.702 0 0 0 7.291 79.38Z" fill="#FBB76C"/><path d="m196.079 35.155 13.912 5.814c10.694 4.36 15.573 16.507 11.317 27.097l-25.229 60.838v-93.75Zm-26.949-9.907a20.764 20.764 0 0 1 6.082 14.683v65.821l-35.818-86.585h15.054a20.763 20.763 0 0 1 14.682 6.081Z" fill="#FB8500"/><path d="M168.887 25.04A20.5 20.5 0 0 1 175 39.624V105l-36-86h15.13a20.995 20.995 0 0 1 14.757 6.04Z" fill="#FFB703"/></svg>