<svg width="302" height="229" viewBox="0 0 302 229" fill="none" xmlns="http://www.w3.org/2000/svg"><circle cx="158.299" cy="107.233" r="73.756" fill="#FBB76C" stroke="#FB8500" stroke-width="5.68"/><path d="M216.005 88.477c-34.985-49.159-82.12-31.162-101.315-16.018l-1.926-9.71c57.966-36.18 92.98 2.077 103.241 25.728Z" fill="#fff"/><path d="M103.587 39.392 129.119 0l5.836 10.213c97.458-27.429 126.2 44.498 128.388 83.89l-19.696-5.106C230.808 14.88 171.185 17.264 142.979 27.72l7.295 14.59-46.687-2.918Zm96.665 150.221-30.968 35.279-4.295-10.95C64.586 226.965 46.565 151.634 50.105 112.341l18.748 7.905c1.97 75.193 61.309 81.471 90.732 75.21l-5.105-15.492 45.772 9.649Z" fill="#219EBC"/><circle cx="59.088" cy="79.513" r="56.721" fill="#CBE3EE" stroke="#219EBC" stroke-width="4.733"/><path d="m72.878 79.209.008-.005.007-.004a2.72 2.72 0 0 0-2.717-4.706l-.008.004-.007.004-15.981 9.227-3.934-6.814-.005-.007-.004-.008a2.719 2.719 0 0 0-4.706 2.718l.004.007.004.007 5.293 9.168a2.719 2.719 0 0 0 3.711.994L72.879 79.21Z" fill="#219EBC" stroke="#83BEDA" stroke-width=".947"/><path d="m50.321 108.914.276-.384c-13.256-9.515-19.516-23.501-15.344-39.07l3.893-14.53a.27.27 0 0 1 .193-.192c5.266 1.456 9.37 2.181 13.375 2.004 4.006-.178 7.877-1.257 12.682-3.354a.3.3 0 0 1 .034.009c2.735 3.88 5.433 6.537 8.845 8.67 3.413 2.135 7.52 3.733 13.042 5.521a.276.276 0 0 1 .079.273l-3.893 14.528c-4.172 15.571-16.585 24.55-32.822 26.163a.122.122 0 0 1-.085-.023l-.275.385Zm0 0a.597.597 0 0 0 .405.109l14.58-56.112c-9.64 4.225-15.35 4.28-25.933 1.346a.745.745 0 0 0-.684.551l-3.893 14.53c-4.231 15.79 2.137 29.966 15.525 39.576Zm18.234-59.957-.045-.052-.057-.037a5.713 5.713 0 0 0-3.406-.913l-.07.004-.067.024c-5.222 1.904-9.257 2.996-13.164 3.237-3.899.24-7.703-.364-12.461-1.9l-.083-.026-.087.004a5.713 5.713 0 0 0-5.221 4.225L30 68.053c-4.856 18.123 2.658 34.293 17.427 44.896v.001a5.573 5.573 0 0 0 3.787 1.014c18.091-1.801 32.685-12.044 37.541-30.168l3.894-14.53a5.714 5.714 0 0 0-2.41-6.269l-.069-.045-.08-.019c-4.348-1.02-7.682-2.13-10.945-4.165-3.267-2.037-6.492-5.016-10.59-9.81Z" fill="#219EBC" stroke="#83BEDA" stroke-width=".947"/><path fill-rule="evenodd" clip-rule="evenodd" d="M130.121 98.17c0-2.84.736-5.63 2.136-8.103a16.487 16.487 0 0 1 5.853-6.005 16.52 16.52 0 0 1 22.405 5.223 16.448 16.448 0 0 1 .903 16.18 16.485 16.485 0 0 1-5.507 6.323 27.008 27.008 0 0 1 12.609 9.543 26.94 26.94 0 0 1 5.092 14.955 2.24 2.24 0 0 1-.611 1.608 2.254 2.254 0 0 1-3.889-1.473 22.448 22.448 0 0 0-6.825-15.438 22.524 22.524 0 0 0-15.666-6.338 22.524 22.524 0 0 0-15.667 6.338 22.448 22.448 0 0 0-6.825 15.438 2.246 2.246 0 0 1-2.313 2.13 2.249 2.249 0 0 1-2.184-2.262 26.94 26.94 0 0 1 5.092-14.957 27.006 27.006 0 0 1 12.609-9.544 16.468 16.468 0 0 1-5.301-5.915 16.43 16.43 0 0 1-1.911-7.703Zm16.501-11.98a12.012 12.012 0 0 0-8.486 3.509 11.971 11.971 0 0 0-3.515 8.47c0 3.178 1.265 6.225 3.515 8.472a12.014 12.014 0 0 0 16.972 0 11.969 11.969 0 0 0 0-16.942 12.012 12.012 0 0 0-8.486-3.509Z" fill="#219EBC"/><path d="M171.616 97.9c-.432 0-.851.03-1.266.09a2.113 2.113 0 0 1-.871-.021 2.15 2.15 0 0 1-.795-.372 2.238 2.238 0 0 1-.591-.664 2.318 2.318 0 0 1-.241-1.75 2.29 2.29 0 0 1 .387-.808c.18-.24.406-.439.662-.587.257-.147.539-.24.831-.272 2.9-.434 5.857.142 8.406 1.636 2.549 1.495 4.544 3.824 5.673 6.62a14.097 14.097 0 0 1 .562 8.826c-.765 2.924-2.448 5.503-4.786 7.331 3.436 1.59 6.353 4.175 8.4 7.443a20.674 20.674 0 0 1 3.135 10.969c0 .6-.231 1.175-.641 1.599-.41.425-.966.663-1.546.663-.58 0-1.136-.238-1.546-.663a2.301 2.301 0 0 1-.641-1.599 16.01 16.01 0 0 0-2.989-9.339c-1.941-2.7-4.672-4.682-7.787-5.651l-1.557-.483v-5.053l1.195-.63a9.008 9.008 0 0 0 4.025-4.311 9.423 9.423 0 0 0 .576-5.962 9.173 9.173 0 0 0-3.121-5.049 8.65 8.65 0 0 0-5.474-1.963Z" fill="#219EBC"/><circle cx="242.912" cy="147.355" r="56.721" fill="#CBE3EE" stroke="#219EBC" stroke-width="4.733"/><path d="m259.61 143.504.006-.006.005-.006a3.056 3.056 0 0 0-.014-4.25 3.063 3.063 0 0 0-4.248-.135l-.006.006-.006.006-15.291 14.864-6.367-6.549-.005-.006-.006-.006a3.063 3.063 0 0 0-4.25.015 3.062 3.062 0 0 0-.135 4.248l.005.006.006.006 8.498 8.742h.001a3.055 3.055 0 0 0 4.323.061l17.484-16.996Z" fill="#219EBC" stroke="#83BEDA" stroke-width=".947"/><path d="m246.24 111.058-.056-.039-.065-.022a6.504 6.504 0 0 0-4.015-.057l-.068.021-.059.04c-5.295 3.601-9.498 5.964-13.802 7.339-4.297 1.373-8.725 1.772-14.477 1.401l-.087-.006-.083.026a6.508 6.508 0 0 0-4.587 6.124l-.245 17.323c-.304 21.572 12.627 37.481 32.089 45.142h.001a6.348 6.348 0 0 0 4.464.063c19.668-7.111 33.047-22.645 33.352-44.218l.244-17.322a6.509 6.509 0 0 0-4.411-6.251l-.078-.027-.083.002c-5.146.089-9.191-.211-13.419-1.564-4.233-1.355-8.682-3.776-14.615-7.975Zm-2.262 5.711a.365.365 0 0 1 .099.001c4.149 3.563 7.908 5.767 12.315 7.185 4.408 1.418 9.443 2.042 16.119 2.48a.388.388 0 0 1 .217.352v.001l-.245 17.321c-.262 18.599-11.611 32.153-29.309 38.547a.218.218 0 0 1-.151-.003c-17.51-6.891-28.471-20.763-28.208-39.359l.245-17.322a.383.383 0 0 1 .216-.341c6.296.14 11.08-.209 15.496-1.536s8.43-3.623 13.206-7.326Z" fill="#219EBC" stroke="#83BEDA" stroke-width=".947"/></svg>