<svg fill="#fff" xmlns="http://www.w3.org/2000/svg" viewBox="0 0 512 512" style="enable-background:new 0 0 512 512" xml:space="preserve"><path d="M89.044 278.261h33.391v66.783H89.044zm0-111.304v-66.783H55.652v178.087h33.392v-77.913h66.782v-33.391zm333.913-66.783v100.174H322.783v33.391h100.174v44.522h33.391V100.174zM122.435 345.043h33.391v33.391h-33.391zm233.739 0h33.391v33.391h-33.391zm-33.391 33.392v33.391h-33.392v33.391h66.783v-66.782zm-200.348 66.782h33.391v33.391h-33.391z"/><path d="M356.174 445.217h33.391v33.391h-33.391zm-166.957-33.391v-33.391h-33.391v66.782h66.783v-33.391zM89.044 478.609h33.391V512H89.044zm300.521 0h33.391V512h-33.391zM155.826 0h200.348v33.391H155.826zm-33.391 33.391h33.391v33.391h-33.391zM89.044 66.783h33.391v33.391H89.044zm267.13-33.392h33.391v33.391h-33.391zm-166.957 66.783h33.391v33.391h-33.391zm33.392 33.391H256v33.391h-33.391zm-66.783 0h33.391v33.391h-33.391zM256 166.957h66.783v33.391H256zM389.565 66.783h33.391v33.391h-33.391zm0 211.478h33.391v66.783h-33.391z"/></svg>