<svg xmlns="http://www.w3.org/2000/svg" viewBox="0 0 512 512" style="enable-background:new 0 0 512 512" xml:space="preserve"><path d="M375.467 0h68.267v34.133h-68.267zm102.4 68.267H512v68.267h-34.133z"/><path d="M170.667 477.867v-34.134H204.8V409.6h34.133v-34.133h34.134v-34.134H307.2V307.2h34.133v-34.133h34.134v-34.134H409.6V204.8h34.133v-34.133h34.134v-34.134h-34.134V102.4H409.6V68.267h-34.133V34.133h-34.134v34.134H307.2V102.4h-34.133v34.133h-34.134v34.134H204.8V204.8h-34.133v34.133h-34.134v34.134H102.4V307.2H68.267v34.133H34.133v34.134h34.134V409.6H102.4v34.133h34.133v34.134H68.267v-34.134H34.133v-68.266H0V512h512v-34.133zM443.733 34.133h34.133v34.133h-34.133z"/></svg>