<svg xmlns="http://www.w3.org/2000/svg" viewBox="0 0 512 512" style="enable-background:new 0 0 512 512" xml:space="preserve"><path d="M189.217 122.435h133.565v33.391H189.217zm0 222.608h133.565v33.391H189.217zm-66.782-155.826h33.391v122.435h-33.391zM66.783 66.783h33.391v33.391H66.783zM0 166.957h33.391v178.087H0zm33.391-66.783h33.391v66.783H33.391zm0 244.869h33.391v66.783H33.391zm33.392 66.783h33.391v33.391H66.783zM166.957 0h178.087v33.391H166.957zm-66.783 33.391h66.783v33.391h-66.783zm311.652 33.392h33.391v33.391h-33.391zm-66.783-33.392h66.783v33.391h-66.783zm100.174 66.783h33.39v66.783h-33.39zm33.392 66.783H512v178.087h-33.391zm-89.044 178.086h89.042v33.391h-89.042zM166.957 478.609h178.087V512H166.957z"/><path d="M100.174 445.217h66.783v33.391h-66.783zm244.869 0h66.783v33.391h-66.783zm11.131-256v122.435h-33.391v33.391h66.782V189.217zm-33.391-33.391h33.391v33.391h-33.391zm-166.957 0h33.391v33.391h-33.391zm0 155.826h33.391v33.391h-33.391z"/></svg>