<svg xmlns="http://www.w3.org/2000/svg" viewBox="0 0 512 512" style="enable-background:new 0 0 512 512" xml:space="preserve"><path d="M478.608 144.696v-44.522h-33.39V66.783h-33.391V33.391h-66.783V0H166.957v33.391h-66.784v33.391H66.781v33.391h-33.39v44.522H0v189.217h33.39v44.522h33.39v33.391h66.785l-.001 33.391h-33.391v33.391h-33.39V512H267.13v-33.391h77.913v-33.391h66.781v-33.391h33.391v-33.391h33.391v-44.522h33.391L512 144.696h-33.392zm-333.912 66.782h-44.522v-77.913h44.522v77.913zm189.217 100.174h-33.391v33.391h-89.043v-33.391h-33.391V211.478h155.826v100.174zm77.913-100.174h-44.522v-77.913h44.522v77.913z"/></svg>