<svg xmlns="http://www.w3.org/2000/svg" viewBox="0 0 512 512" style="enable-background:new 0 0 512 512" xml:space="preserve"><path d="M345.043 133.565v-33.391h-33.391V66.783H133.565v33.391h-33.391v33.391H66.783v178.087h33.391v33.391h33.391v33.391h178.087v-33.391h33.391v-33.391h33.391V133.565h-33.391zM311.652 267.13H256v33.391h33.391v33.391H155.826v-33.391h33.391V267.13h-55.652V144.696h33.391v-33.391H278.26v33.391h33.391V267.13zM66.783 33.391h66.783v33.391H66.783zM133.565 0h178.087v33.391H133.565zm0 411.826h178.087v33.391H133.565zM311.652 33.391h66.783v33.391h-66.783zm66.783 33.392h33.39v66.783h-33.39zm33.391 66.782h33.391v178.087h-33.391zm-33.391 178.087h33.39v33.391h-33.39zM33.391 66.783h33.391v66.783H33.391zM0 133.565h33.391v178.087H0zm33.391 178.087h33.391v66.783H33.391zm33.392 66.783h66.783v33.391H66.783zm244.869 0h33.391v33.391h-33.391zm100.174-33.392h33.391v33.391h-33.391zm-66.783 66.783h33.391v33.391h-33.391zm100.174-33.391h33.391v33.391h-33.391zm-66.782 66.782h33.391v33.391h-33.391zm100.174-33.391H512v66.783h-33.391zm-66.783 66.783h66.783V512h-66.783z"/></svg>